SplineFontDB: 1.0
FontName: LKLUG
FullName: LKLUG
FamilyName: LKLUG
Weight: Book
Copyright: Copyright (C) 2004 by Yannis Haralambous.  OTF tables added by Anuradha Ratnaweera and Harshani Devadithya. "Kunddaliya" glyph Copyright (c) 2006 Harshula Jayasuriya
Version: 0.2
ItalicAngle: 0
UnderlinePosition: -205
UnderlineWidth: 102
Ascent: 800
Descent: 200
XUID: [1021 668 958370197 10234196]
UniqueID: 4107101
FSType: 0
PfmFamily: 81
TTFWeight: 400
TTFWidth: 5
LineGap: 184
VLineGap: 0
Panose: 1 1 1 1 1 1 1 1 1 1
OS2TypoAscent: 68
OS2TypoAOffset: 1
OS2TypoDescent: -214
OS2TypoDOffset: 1
OS2TypoLinegap: 0
OS2WinAscent: 0
OS2WinAOffset: 1
OS2WinDescent: 0
OS2WinDOffset: 1
HheadAscent: 0
HheadAOffset: 1
HheadDescent: 0
HheadDOffset: 1
OS2SubXSize: 650
OS2SubYSize: 700
OS2SubXOff: 0
OS2SubYOff: 140
OS2SupXSize: 650
OS2SupYSize: 700
OS2SupXOff: 0
OS2SupYOff: 480
OS2StrikeYSize: 49
OS2StrikeYPos: 258
OS2Vendor: 'PfEd'
ScriptLang: 1
 1 sinh 1 dflt 
TableOrder: GSUB 0
LangName: 1033 "" "" "Regular" "PfaEdit 1.0 : LklugNormal : 20-8-2003" 
Encoding: UnicodeBmp
UnicodeInterp: none
DisplaySize: -24
AntiAlias: 1
FitToEm: 1
WinInfo: 3250 25 23
BeginPrivate: 6
BlueScale 8 0.039625
BlueShift 2 15
BlueFuzz 1 1
StdHW 4 [22]
StdVW 4 [22]
ExpansionFactor 4 0.06
EndPrivate
BeginChars: 65925 578
StartChar: uni0D82
Encoding: 3458 3458 2
Width: 251
GlyphClass: 2
Flags: W
Fore
117 355 m 0
 145 358 177 346 194 323 c 0
 224 284 216 222 174 195 c 0
 162 187 149 183 135 181 c 0
 107 178 77 188 58 210 c 0
 27 247 32 310 72 338 c 0
 86 348 101 353 117 355 c 0
120 333 m 0
 110 332 99 329 90 324 c 0
 56 304 51 253 75 224 c 0
 89 208 110 202 130 203 c 0
 140 204 150 206 159 211 c 0
 193 230 199 282 175 311 c 0
 162 327 140 334 120 333 c 0
EndSplineSet
EndChar
StartChar: uni0D83
Encoding: 3459 3459 3
Width: 251
GlyphClass: 2
Flags: W
Fore
115 485 m 0
 127 486 139 485 150 482 c 0
 160 480 169 475 177 469 c 0
 220 439 224 370 186 334 c 0
 173 322 156 314 139 312 c 0
 123 310 107 311 92 317 c 0
 39 336 22 407 55 451 c 0
 69 471 91 481 115 485 c 0
118 463 m 0
 109 462 99 459 91 455 c 0
 56 435 51 382 76 353 c 0
 89 339 110 332 129 333 c 0
 141 334 153 337 163 344 c 0
 195 366 199 418 172 445 c 0
 158 459 138 464 118 463 c 0
121 236 m 0
 129 236 139 235 147 233 c 0
 156 231 164 228 172 223 c 0
 226 191 224 104 170 73 c 0
 159 67 147 63 135 62 c 0
 111 60 86 66 68 81 c 0
 28 116 28 185 70 218 c 0
 85 230 102 234 121 236 c 0
124 213 m 0
 106 214 87 207 76 193 c 0
 50 163 57 109 93 91 c 0
 103 86 113 84 124 84 c 0
 144 84 163 91 176 107 c 0
 200 136 192 187 159 205 c 0
 148 211 136 213 124 213 c 0
EndSplineSet
EndChar
StartChar: uni0D85
Encoding: 3461 3461 4
Width: 625
GlyphClass: 2
Flags: W
Fore
411 414 m 1
 418 423 422 436 426 446 c 2
 453 510 l 2
 456 518 460 526 463 534 c 0
 465 538 467 543 472 545 c 0
 479 547 485 542 486 536 c 0
 489 527 490 518 495 509 c 0
 507 488 527 473 543 456 c 0
 558 439 576 423 582 400 c 0
 585 389 584 378 583 367 c 0
 573 310 517 278 464 268 c 0
 454 266 443 265 433 265 c 1
 433 55 l 1
 466 59 500 69 532 80 c 0
 546 85 559 92 573 95 c 1
 574 90 580 81 578 75 c 0
 577 72 573 70 570 69 c 0
 564 65 558 62 552 59 c 0
 526 46 499 35 471 26 c 0
 462 23 453 20 444 18 c 0
 440 17 435 16 433 11 c 0
 432 4 433 -6 433 -13 c 2
 433 -62 l 1
 433 -221 l 1
 433 -278 l 2
 433 -285 435 -294 428 -299 c 0
 420 -304 412 -297 411 -289 c 0
 410 -282 411 -275 411 -268 c 2
 411 -230 l 1
 411 10 l 1
 390 8 370 4 349 2 c 0
 303 -1 255 1 210 14 c 0
 177 23 144 36 116 55 c 0
 94 71 74 91 61 114 c 0
 35 157 34 212 53 258 c 0
 66 289 87 315 113 336 c 0
 171 382 249 399 322 387 c 0
 349 382 376 374 400 361 c 1
 395 406 371 453 326 470 c 0
 313 474 297 477 284 474 c 0
 277 472 270 468 264 464 c 0
 260 461 256 457 252 454 c 0
 232 437 206 410 178 428 c 0
 174 430 171 433 168 437 c 0
 164 442 161 449 160 455 c 0
 159 461 159 467 160 473 c 0
 165 518 217 536 257 535 c 0
 311 533 360 504 390 459 c 0
 399 446 408 430 411 414 c 1
474 502 m 1
 465 481 l 1
 448 442 l 1
 433 405 l 1
 433 373 l 1
 433 311 l 1
 461 311 490 316 515 328 c 0
 531 337 544 349 549 367 c 0
 551 373 551 378 551 384 c 0
 551 391 550 398 547 405 c 0
 541 421 530 434 519 446 c 0
 503 464 486 481 474 502 c 1
411 51 m 1
 411 254 l 1
 411 308 l 2
 411 314 413 324 409 329 c 2
 408 332 404 333 401 335 c 0
 394 338 386 341 379 343 c 0
 347 353 312 356 279 351 c 0
 211 340 137 293 131 218 c 0
 130 205 131 192 134 179 c 0
 137 164 142 150 150 137 c 0
 160 121 172 107 187 95 c 0
 212 75 241 61 272 54 c 0
 303 46 334 45 366 47 c 0
 381 48 396 50 411 51 c 1
EndSplineSet
EndChar
StartChar: uni0D86
Encoding: 3462 3462 5
Width: 898
GlyphClass: 2
Flags: W
Fore
603 342 m 1
 603 352 605 362 608 372 c 0
 631 443 725 466 785 429 c 0
 809 414 827 390 840 365 c 0
 862 322 871 271 871 223 c 0
 871 211 870 198 869 186 c 0
 863 123 840 51 783 16 c 0
 723 -21 629 5 607 75 c 0
 604 84 603 94 603 104 c 1
 625 104 l 1
 625 98 626 93 628 87 c 0
 645 40 714 33 748 63 c 0
 767 80 778 102 785 125 c 0
 796 160 798 197 798 234 c 0
 798 246 797 258 795 270 c 0
 790 311 779 359 744 386 c 0
 709 413 645 403 628 359 c 0
 626 353 625 348 625 342 c 1
 603 342 l 1
411 414 m 1
 418 423 422 436 426 446 c 2
 453 510 l 2
 456 518 460 526 463 534 c 0
 465 538 467 543 472 545 c 0
 479 547 485 542 486 536 c 0
 489 527 490 518 495 509 c 0
 507 488 527 473 543 456 c 0
 558 439 576 423 582 400 c 0
 585 389 584 378 583 367 c 0
 573 310 517 278 464 268 c 0
 454 266 443 265 433 265 c 1
 433 55 l 1
 466 59 500 69 532 80 c 0
 546 85 559 92 573 95 c 1
 574 90 580 81 578 75 c 0
 577 72 573 70 570 69 c 0
 564 65 558 62 552 59 c 0
 526 46 499 35 471 26 c 0
 462 23 453 20 444 18 c 0
 440 17 435 16 433 11 c 0
 432 4 433 -6 433 -13 c 2
 433 -62 l 1
 433 -221 l 1
 433 -278 l 2
 433 -285 435 -294 428 -299 c 0
 420 -304 412 -297 411 -289 c 0
 410 -282 411 -275 411 -268 c 2
 411 -230 l 1
 411 10 l 1
 390 8 370 4 349 2 c 0
 303 -1 255 1 210 14 c 0
 177 23 144 36 116 55 c 0
 94 71 74 91 61 114 c 0
 35 157 34 212 53 258 c 0
 66 289 87 315 113 336 c 0
 171 382 249 399 322 387 c 0
 349 382 376 374 400 361 c 1
 395 406 371 453 326 470 c 0
 313 474 297 477 284 474 c 0
 277 472 270 468 264 464 c 0
 260 461 256 457 252 454 c 0
 232 437 206 410 178 428 c 0
 174 430 171 433 168 437 c 0
 164 442 161 449 160 455 c 0
 159 461 159 467 160 473 c 0
 165 518 217 536 257 535 c 0
 311 533 360 504 390 459 c 0
 399 446 408 430 411 414 c 1
474 502 m 1
 465 481 l 1
 448 442 l 1
 433 405 l 1
 433 373 l 1
 433 311 l 1
 461 311 490 316 515 328 c 0
 531 337 544 349 549 367 c 0
 551 373 551 378 551 384 c 0
 551 391 550 398 547 405 c 0
 541 421 530 434 519 446 c 0
 503 464 486 481 474 502 c 1
411 51 m 1
 411 254 l 1
 411 308 l 2
 411 314 413 324 409 329 c 2
 408 332 404 333 401 335 c 0
 394 338 386 341 379 343 c 0
 347 353 312 356 279 351 c 0
 211 340 137 293 131 218 c 0
 130 205 131 192 134 179 c 0
 137 164 142 150 150 137 c 0
 160 121 172 107 187 95 c 0
 212 75 241 61 272 54 c 0
 303 46 334 45 366 47 c 0
 381 48 396 50 411 51 c 1
EndSplineSet
EndChar
StartChar: uni0D87
Encoding: 3463 3463 6
Width: 946
GlyphClass: 2
Flags: W
Fore
619 377 m 1
 767 377 l 1
 790 377 l 2
 800 377 811 377 817 366 c 0
 822 355 813 343 809 333 c 0
 797 308 787 283 779 257 c 0
 759 196 747 133 744 69 c 0
 743 39 742 9 753 -20 c 0
 771 -70 820 -114 876 -104 c 0
 887 -103 896 -98 906 -93 c 1
 909 -99 915 -106 915 -112 c 0
 915 -117 910 -122 907 -125 c 0
 897 -135 886 -144 874 -151 c 0
 834 -173 783 -173 744 -148 c 0
 730 -140 719 -129 709 -116 c 0
 701 -106 694 -95 689 -84 c 0
 653 -8 676 78 703 153 c 2
 724 206 l 2
 734 229 744 252 755 274 c 0
 768 301 782 328 794 355 c 1
 619 355 l 1
 619 377 l 1
411 414 m 1
 418 423 422 436 426 446 c 2
 453 510 l 2
 456 518 460 526 463 534 c 0
 465 538 467 543 472 545 c 0
 479 547 485 542 486 536 c 0
 489 527 490 518 495 509 c 0
 507 488 527 473 543 456 c 0
 558 439 576 423 582 400 c 0
 585 389 584 378 583 367 c 0
 573 310 517 278 464 268 c 0
 454 266 443 265 433 265 c 1
 433 55 l 1
 466 59 500 69 532 80 c 0
 546 85 559 92 573 95 c 1
 574 90 580 81 578 75 c 0
 577 72 573 70 570 69 c 0
 564 65 558 62 552 59 c 0
 526 46 499 35 471 26 c 0
 462 23 453 20 444 18 c 0
 440 17 435 16 433 11 c 0
 432 4 433 -6 433 -13 c 2
 433 -62 l 1
 433 -221 l 1
 433 -278 l 2
 433 -285 435 -294 428 -299 c 0
 420 -304 412 -297 411 -289 c 0
 410 -282 411 -275 411 -268 c 2
 411 -230 l 1
 411 10 l 1
 390 8 370 4 349 2 c 0
 303 -1 255 1 210 14 c 0
 177 23 144 36 116 55 c 0
 94 71 74 91 61 114 c 0
 35 157 34 212 53 258 c 0
 66 289 87 315 113 336 c 0
 171 382 249 399 322 387 c 0
 349 382 376 374 400 361 c 1
 395 406 371 453 326 470 c 0
 313 474 297 477 284 474 c 0
 277 472 270 468 264 464 c 0
 260 461 256 457 252 454 c 0
 232 437 206 410 178 428 c 0
 174 430 171 433 168 437 c 0
 164 442 161 449 160 455 c 0
 159 461 159 467 160 473 c 0
 165 518 217 536 257 535 c 0
 311 533 360 504 390 459 c 0
 399 446 408 430 411 414 c 1
474 502 m 1
 465 481 l 1
 448 442 l 1
 433 405 l 1
 433 373 l 1
 433 311 l 1
 461 311 490 316 515 328 c 0
 531 337 544 349 549 367 c 0
 551 373 551 378 551 384 c 0
 551 391 550 398 547 405 c 0
 541 421 530 434 519 446 c 0
 503 464 486 481 474 502 c 1
411 51 m 1
 411 254 l 1
 411 308 l 2
 411 314 413 324 409 329 c 2
 408 332 404 333 401 335 c 0
 394 338 386 341 379 343 c 0
 347 353 312 356 279 351 c 0
 211 340 137 293 131 218 c 0
 130 205 131 192 134 179 c 0
 137 164 142 150 150 137 c 0
 160 121 172 107 187 95 c 0
 212 75 241 61 272 54 c 0
 303 46 334 45 366 47 c 0
 381 48 396 50 411 51 c 1
EndSplineSet
EndChar
StartChar: uni0D88
Encoding: 3464 3464 7
Width: 961
GlyphClass: 2
Flags: W
Fore
625 379 m 1
 758 379 l 2
 769 379 780 379 790 376 c 0
 795 375 800 373 802 368 c 0
 805 359 797 347 793 340 c 2
 761 271 l 1
 834 271 l 2
 844 271 855 267 857 256 c 0
 860 244 850 235 843 226 c 0
 827 207 812 187 799 166 c 0
 775 129 756 88 751 44 c 0
 749 28 748 12 751 -4 c 0
 761 -63 820 -113 882 -102 c 0
 893 -101 902 -96 912 -91 c 1
 915 -97 921 -104 921 -110 c 0
 921 -115 917 -119 914 -122 c 0
 906 -131 896 -139 886 -145 c 0
 851 -167 806 -171 767 -156 c 0
 747 -148 728 -135 714 -119 c 0
 705 -108 697 -97 691 -84 c 0
 686 -75 683 -65 680 -55 c 0
 670 -12 681 29 700 67 c 0
 717 101 739 132 762 162 c 0
 771 175 781 188 792 200 c 0
 805 216 819 232 832 249 c 1
 738 249 l 1
 715 249 l 1
 707 252 l 1
 707 261 l 1
 715 280 l 1
 751 357 l 1
 625 357 l 1
 625 379 l 1
411 414 m 1
 418 423 422 436 426 446 c 2
 453 510 l 2
 456 518 460 526 463 534 c 0
 465 538 467 543 472 545 c 0
 479 547 485 542 486 536 c 0
 489 527 490 518 495 509 c 0
 507 488 527 473 543 456 c 0
 558 439 576 423 582 400 c 0
 585 389 584 378 583 367 c 0
 573 310 517 278 464 268 c 0
 454 266 443 265 433 265 c 1
 433 55 l 1
 466 59 500 69 532 80 c 0
 546 85 559 92 573 95 c 1
 574 90 580 81 578 75 c 0
 577 72 573 70 570 69 c 0
 564 65 558 62 552 59 c 0
 526 46 499 35 471 26 c 0
 462 23 453 20 444 18 c 0
 440 17 435 16 433 11 c 0
 432 4 433 -6 433 -13 c 2
 433 -62 l 1
 433 -221 l 1
 433 -278 l 2
 433 -285 435 -294 428 -299 c 0
 420 -304 412 -297 411 -289 c 0
 410 -282 411 -275 411 -268 c 2
 411 -230 l 1
 411 10 l 1
 390 8 370 4 349 2 c 0
 303 -1 255 1 210 14 c 0
 177 23 144 36 116 55 c 0
 94 71 74 91 61 114 c 0
 35 157 34 212 53 258 c 0
 66 289 87 315 113 336 c 0
 171 382 249 399 322 387 c 0
 349 382 376 374 400 361 c 1
 395 406 371 453 326 470 c 0
 313 474 297 477 284 474 c 0
 277 472 270 468 264 464 c 0
 260 461 256 457 252 454 c 0
 232 437 206 410 178 428 c 0
 174 430 171 433 168 437 c 0
 164 442 161 449 160 455 c 0
 159 461 159 467 160 473 c 0
 165 518 217 536 257 535 c 0
 311 533 360 504 390 459 c 0
 399 446 408 430 411 414 c 1
474 502 m 1
 465 481 l 1
 448 442 l 1
 433 405 l 1
 433 373 l 1
 433 311 l 1
 461 311 490 316 515 328 c 0
 531 337 544 349 549 367 c 0
 551 373 551 378 551 384 c 0
 551 391 550 398 547 405 c 0
 541 421 530 434 519 446 c 0
 503 464 486 481 474 502 c 1
411 51 m 1
 411 254 l 1
 411 308 l 2
 411 314 413 324 409 329 c 2
 408 332 404 333 401 335 c 0
 394 338 386 341 379 343 c 0
 347 353 312 356 279 351 c 0
 211 340 137 293 131 218 c 0
 130 205 131 192 134 179 c 0
 137 164 142 150 150 137 c 0
 160 121 172 107 187 95 c 0
 212 75 241 61 272 54 c 0
 303 46 334 45 366 47 c 0
 381 48 396 50 411 51 c 1
EndSplineSet
EndChar
StartChar: uni0D89
Encoding: 3465 3465 8
Width: 609
GlyphClass: 2
Flags: W
Fore
279 163 m 1
 270 165 261 171 254 177 c 0
 212 211 215 283 258 315 c 0
 268 322 280 327 292 329 c 0
 317 334 345 330 365 314 c 0
 406 283 409 217 373 181 c 0
 355 163 326 152 302 145 c 0
 225 123 133 141 80 204 c 0
 65 222 53 243 46 265 c 0
 29 322 43 387 78 434 c 0
 100 463 129 486 161 502 c 0
 201 522 246 534 291 535 c 0
 395 538 504 490 556 396 c 0
 609 298 581 172 505 94 c 0
 469 57 425 33 376 20 c 1
 396 9 414 -4 426 -25 c 0
 444 -54 443 -92 425 -121 c 0
 417 -135 405 -147 391 -156 c 0
 345 -186 281 -185 232 -164 c 0
 200 -150 171 -126 164 -90 c 0
 162 -78 160 -65 167 -54 c 0
 178 -38 204 -35 217 -49 c 0
 229 -61 225 -78 229 -92 c 0
 234 -113 248 -132 266 -143 c 0
 300 -165 347 -158 379 -137 c 0
 400 -123 416 -100 417 -74 c 0
 417 -67 416 -59 414 -52 c 0
 411 -43 407 -35 401 -28 c 0
 383 -4 353 8 324 12 c 2
 301 12 l 2
 290 12 279 13 268 14 c 0
 253 16 239 18 224 21 c 0
 207 25 189 29 172 35 c 0
 165 37 157 44 162 52 c 0
 164 56 168 58 173 57 c 0
 182 57 191 52 199 50 c 0
 236 40 275 34 314 34 c 0
 427 35 533 115 556 227 c 0
 561 250 563 275 559 298 c 0
 549 351 509 389 462 413 c 0
 406 441 343 446 281 443 c 0
 256 442 232 440 207 435 c 0
 171 429 134 418 104 396 c 0
 94 388 85 379 78 369 c 0
 46 322 63 257 98 217 c 0
 107 208 116 200 126 192 c 0
 157 171 195 159 233 158 c 0
 249 158 264 161 279 162 c 1
 279 163 l 1
303 309 m 0
 284 307 266 297 256 281 c 0
 235 247 249 194 289 182 c 0
 297 180 306 179 314 179 c 0
 331 181 348 186 360 199 c 0
 385 228 380 283 344 301 c 0
 331 308 317 310 303 309 c 0
EndSplineSet
EndChar
StartChar: uni0D8A
Encoding: 3466 3466 9
Width: 624
GlyphClass: 2
Flags: W
Fore
177 832 m 0
 191 833 207 832 220 827 c 0
 229 824 238 819 245 813 c 0
 290 776 284 698 233 669 c 0
 224 664 213 661 203 659 c 0
 182 657 160 660 142 671 c 0
 95 698 89 768 125 807 c 0
 139 821 158 829 177 832 c 0
196 478 m 1
 241 496 290 506 339 502 c 0
 377 500 413 491 448 475 c 0
 468 466 487 453 503 439 c 0
 523 421 540 400 552 376 c 0
 590 297 571 195 522 125 c 0
 496 87 461 56 420 34 c 0
 340 -8 239 -12 160 33 c 0
 130 51 103 75 84 104 c 0
 69 126 57 150 50 175 c 0
 28 245 37 325 78 386 c 0
 87 398 96 410 106 420 c 0
 112 426 118 431 124 436 c 2
 154 469 l 2
 197 517 240 566 280 617 c 0
 315 661 348 708 375 758 c 2
 399 804 l 2
 401 809 404 819 409 822 c 0
 413 825 420 821 424 820 c 0
 437 817 450 813 463 810 c 1
 459 796 451 783 444 770 c 0
 433 749 421 729 407 709 c 0
 348 623 270 552 196 478 c 1
180 810 m 0
 166 808 152 803 142 793 c 0
 120 770 118 729 137 704 c 0
 152 684 176 679 199 681 c 0
 249 686 269 749 240 787 c 0
 226 806 202 812 180 810 c 0
504 694 m 0
 517 697 532 696 544 692 c 0
 553 690 561 686 569 681 c 0
 611 653 617 588 585 550 c 0
 572 535 554 526 534 523 c 0
 520 521 505 522 491 525 c 0
 433 542 414 618 450 664 c 0
 463 681 483 691 504 694 c 0
507 673 m 0
 461 668 441 612 462 575 c 0
 475 551 501 542 527 544 c 0
 541 546 555 551 565 561 c 0
 587 583 590 624 571 649 c 0
 556 670 531 675 507 673 c 0
298 479 m 0
 244 474 191 459 147 426 c 0
 140 421 134 414 128 408 c 0
 124 405 120 402 116 398 c 0
 104 385 95 370 87 355 c 0
 42 266 71 145 162 98 c 0
 195 80 232 78 269 80 c 0
 364 87 461 138 502 227 c 0
 510 245 515 265 517 285 c 0
 519 307 518 329 513 350 c 0
 487 440 386 486 298 479 c 0
EndSplineSet
EndChar
StartChar: uni0D8B
Encoding: 3467 3467 10
Width: 782
GlyphClass: 2
Flags: W
Fore
604 310 m 1
 586 366 542 410 484 423 c 0
 462 428 438 430 417 419 c 0
 388 403 369 372 339 358 c 0
 325 351 306 348 293 357 c 0
 268 376 269 421 287 444 c 0
 300 462 321 473 342 479 c 0
 437 506 543 467 599 386 c 0
 612 368 621 348 628 327 c 0
 631 320 635 311 634 303 c 0
 633 297 630 291 627 286 c 0
 622 275 616 263 610 252 c 1
 600 256 590 261 580 265 c 0
 562 272 544 278 525 283 c 0
 436 305 338 298 255 258 c 0
 207 234 163 198 138 149 c 0
 121 114 117 75 122 36 c 0
 132 -41 173 -110 235 -157 c 0
 273 -185 319 -205 366 -212 c 0
 418 -220 473 -214 524 -200 c 0
 570 -186 616 -164 651 -131 c 0
 686 -98 711 -57 717 -9 c 0
 718 -3 719 2 719 8 c 0
 719 12 719 17 720 21 c 0
 722 26 727 29 732 28 c 0
 738 27 741 22 741 16 c 0
 741 6 740 -5 739 -15 c 0
 732 -59 712 -101 682 -134 c 0
 620 -201 530 -236 441 -247 c 0
 417 -250 392 -252 368 -251 c 0
 251 -248 122 -195 67 -86 c 0
 60 -72 54 -58 49 -43 c 0
 43 -20 40 4 40 28 c 0
 40 55 45 82 55 107 c 0
 67 136 84 162 104 185 c 0
 135 219 173 245 214 265 c 0
 291 304 378 321 464 322 c 0
 479 322 493 323 508 322 c 0
 540 320 572 315 604 310 c 1
EndSplineSet
EndChar
StartChar: uni0D8C
Encoding: 3468 3468 11
Width: 1097
GlyphClass: 2
Flags: W
Fore
812 329 m 1
 809 335 804 342 802 349 c 0
 801 360 805 372 808 382 c 0
 824 422 867 449 909 451 c 0
 925 452 940 451 955 447 c 0
 1002 434 1032 391 1049 348 c 0
 1062 316 1067 281 1069 247 c 0
 1071 204 1067 161 1053 120 c 0
 1042 87 1025 53 997 31 c 0
 983 20 967 12 949 7 c 0
 894 -5 827 21 807 77 c 0
 804 87 802 98 802 109 c 1
 824 109 l 1
 826 57 894 36 934 59 c 0
 973 81 987 130 993 171 c 0
 999 215 999 260 990 303 c 0
 985 328 976 355 959 375 c 0
 949 387 936 398 921 402 c 0
 884 414 833 397 825 356 c 1
 832 357 838 357 845 356 c 0
 902 344 918 256 873 222 c 0
 854 207 827 204 804 206 c 0
 785 207 766 212 749 220 c 0
 701 244 670 294 670 347 c 0
 670 371 676 396 687 418 c 2
 696 433 l 2
 698 435 699 438 702 438 c 0
 708 438 715 430 719 427 c 1
 701 399 688 366 694 332 c 0
 701 286 743 251 789 251 c 0
 798 251 807 252 816 255 c 0
 836 262 851 282 849 304 c 0
 847 315 840 329 828 331 c 0
 823 332 817 330 812 329 c 1
604 310 m 1
 586 366 542 410 484 423 c 0
 462 428 438 430 417 419 c 0
 388 403 369 372 339 358 c 0
 325 351 306 348 293 357 c 0
 268 376 269 421 287 444 c 0
 300 462 321 473 342 479 c 0
 437 506 543 467 599 386 c 0
 612 368 621 348 628 327 c 0
 631 320 635 311 634 303 c 0
 633 297 630 291 627 286 c 0
 622 275 616 263 610 252 c 1
 600 256 590 261 580 265 c 0
 562 272 544 278 525 283 c 0
 436 305 338 298 255 258 c 0
 207 234 163 198 138 149 c 0
 121 114 117 75 122 36 c 0
 132 -41 173 -110 235 -157 c 0
 273 -185 319 -205 366 -212 c 0
 418 -220 473 -214 524 -200 c 0
 570 -186 616 -164 651 -131 c 0
 686 -98 711 -57 717 -9 c 0
 718 -3 719 2 719 8 c 0
 719 12 719 17 720 21 c 0
 722 26 727 29 732 28 c 0
 738 27 741 22 741 16 c 0
 741 6 740 -5 739 -15 c 0
 732 -59 712 -101 682 -134 c 0
 620 -201 530 -236 441 -247 c 0
 417 -250 392 -252 368 -251 c 0
 251 -248 122 -195 67 -86 c 0
 60 -72 54 -58 49 -43 c 0
 43 -20 40 4 40 28 c 0
 40 55 45 82 55 107 c 0
 67 136 84 162 104 185 c 0
 135 219 173 245 214 265 c 0
 291 304 378 321 464 322 c 0
 479 322 493 323 508 322 c 0
 540 320 572 315 604 310 c 1
EndSplineSet
EndChar
StartChar: uni0D8D
Encoding: 3469 3469 12
Width: 990
GlyphClass: 2
Flags: W
Fore
691 347 m 1
 691 356 692 366 695 375 c 0
 712 432 779 460 835 449 c 0
 869 442 896 420 915 392 c 0
 942 353 954 304 958 257 c 0
 960 233 959 208 959 184 c 2
 959 4 l 1
 837 4 l 2
 796 4 752 6 719 34 c 0
 710 41 703 50 698 60 c 0
 681 95 695 139 718 167 c 0
 747 201 789 218 831 229 c 0
 849 233 868 237 886 237 c 1
 886 247 885 258 884 268 c 0
 880 311 869 363 832 391 c 0
 797 418 733 408 716 364 c 0
 714 358 713 353 713 347 c 1
 691 347 l 1
886 216 m 1
 843 210 795 207 761 176 c 0
 752 168 746 159 741 148 c 0
 722 104 747 49 791 32 c 0
 806 26 822 26 838 26 c 2
 886 26 l 1
 886 216 l 1
289 376 m 1
 283 410 273 446 242 466 c 0
 230 473 212 479 198 473 c 0
 191 470 185 463 180 457 c 0
 166 437 158 396 126 399 c 0
 122 399 118 400 115 402 c 0
 111 404 107 407 104 411 c 0
 99 417 96 423 94 430 c 0
 82 468 104 516 142 530 c 0
 165 539 191 535 213 526 c 0
 281 500 312 422 312 354 c 1
 239 354 l 2
 224 354 209 355 195 354 c 0
 171 351 147 343 127 329 c 0
 78 297 47 230 71 173 c 0
 78 157 88 143 100 131 c 0
 111 121 123 112 137 105 c 0
 199 78 280 94 323 148 c 0
 339 168 346 191 348 216 c 0
 348 222 352 229 359 229 c 0
 365 229 369 224 370 218 c 0
 371 210 371 203 373 195 c 0
 375 181 381 168 389 156 c 0
 415 117 463 94 510 92 c 0
 570 90 630 122 650 181 c 0
 654 195 655 209 655 224 c 0
 655 238 652 251 647 264 c 0
 641 278 633 292 623 303 c 0
 602 327 574 343 543 350 c 0
 523 355 504 354 484 354 c 2
 405 354 l 1
 405 384 407 414 418 443 c 0
 426 464 439 485 456 501 c 0
 489 531 549 552 586 518 c 0
 612 494 622 455 624 421 c 0
 625 407 626 394 618 382 c 0
 610 369 595 364 581 360 c 1
 606 346 627 330 644 307 c 0
 693 241 685 146 642 80 c 0
 627 57 607 37 583 23 c 0
 543 -1 491 -7 448 13 c 0
 432 21 419 32 407 44 c 0
 390 61 378 83 369 105 c 0
 365 114 363 124 359 133 c 1
 355 123 352 113 348 103 c 0
 339 81 326 59 309 42 c 0
 298 31 286 21 272 14 c 0
 210 -17 134 9 91 60 c 0
 57 100 40 152 40 204 c 0
 40 219 40 233 44 247 c 0
 51 281 71 312 97 335 c 0
 110 346 125 356 141 362 c 0
 157 369 175 374 193 376 c 0
 206 377 218 376 231 376 c 2
 289 376 l 1
427 376 m 1
 503 376 l 2
 518 376 533 376 548 377 c 0
 561 378 575 379 587 385 c 0
 595 388 602 394 603 403 c 0
 603 407 602 410 602 414 c 0
 601 418 599 422 597 426 c 0
 594 431 591 436 586 439 c 0
 573 450 557 455 541 457 c 0
 507 461 467 450 445 423 c 0
 437 414 432 403 429 392 c 0
 428 387 428 381 427 376 c 1
EndSplineSet
EndChar
StartChar: uni0D8E
Encoding: 3470 3470 13
Width: 1338
GlyphClass: 2
Flags: W
Fore
706 343 m 1
 706 352 707 362 710 371 c 0
 727 428 794 456 850 445 c 0
 884 438 911 416 930 388 c 0
 957 349 969 300 973 253 c 0
 975 229 974 204 974 180 c 2
 974 0 l 1
 852 0 l 2
 811 0 767 2 734 30 c 0
 725 37 718 46 713 56 c 0
 696 91 710 135 733 163 c 0
 762 197 804 214 846 225 c 0
 864 229 883 233 901 233 c 1
 901 243 900 254 899 264 c 0
 895 307 884 359 847 387 c 0
 812 414 748 404 731 360 c 0
 729 354 728 349 728 343 c 1
 706 343 l 1
1037 343 m 1
 1037 352 1038 362 1041 371 c 0
 1059 429 1126 457 1182 445 c 0
 1215 438 1242 416 1261 388 c 0
 1288 349 1300 300 1304 253 c 0
 1306 229 1305 204 1305 180 c 2
 1305 0 l 1
 1183 0 l 2
 1142 0 1098 2 1065 30 c 0
 1056 37 1049 46 1044 56 c 0
 1027 91 1041 135 1064 163 c 0
 1093 197 1135 214 1177 225 c 0
 1195 229 1214 233 1232 233 c 1
 1232 243 1231 254 1230 264 c 0
 1226 307 1215 359 1178 387 c 0
 1143 414 1079 404 1062 360 c 0
 1060 354 1059 349 1059 343 c 1
 1037 343 l 1
901 212 m 1
 858 206 810 203 776 172 c 0
 767 164 761 155 756 144 c 0
 737 100 762 45 806 28 c 0
 821 22 837 22 853 22 c 2
 901 22 l 1
 901 212 l 1
1232 212 m 1
 1189 206 1141 203 1107 172 c 0
 1098 164 1092 155 1087 144 c 0
 1068 100 1093 45 1137 28 c 0
 1152 22 1168 22 1184 22 c 2
 1232 22 l 1
 1232 212 l 1
289 376 m 1
 283 410 273 446 242 466 c 0
 230 473 212 479 198 473 c 0
 191 470 185 463 180 457 c 0
 166 437 158 396 126 399 c 0
 122 399 118 400 115 402 c 0
 111 404 107 407 104 411 c 0
 99 417 96 423 94 430 c 0
 82 468 104 516 142 530 c 0
 165 539 191 535 213 526 c 0
 281 500 312 422 312 354 c 1
 239 354 l 2
 224 354 209 355 195 354 c 0
 171 351 147 343 127 329 c 0
 78 297 47 230 71 173 c 0
 78 157 88 143 100 131 c 0
 111 121 123 112 137 105 c 0
 199 78 280 94 323 148 c 0
 339 168 346 191 348 216 c 0
 348 222 352 229 359 229 c 0
 365 229 369 224 370 218 c 0
 371 210 371 203 373 195 c 0
 375 181 381 168 389 156 c 0
 415 117 463 94 510 92 c 0
 570 90 630 122 650 181 c 0
 654 195 655 209 655 224 c 0
 655 238 652 251 647 264 c 0
 641 278 633 292 623 303 c 0
 602 327 574 343 543 350 c 0
 523 355 504 354 484 354 c 2
 405 354 l 1
 405 384 407 414 418 443 c 0
 426 464 439 485 456 501 c 0
 489 531 549 552 586 518 c 0
 612 494 622 455 624 421 c 0
 625 407 626 394 618 382 c 0
 610 369 595 364 581 360 c 1
 606 346 627 330 644 307 c 0
 693 241 685 146 642 80 c 0
 627 57 607 37 583 23 c 0
 543 -1 491 -7 448 13 c 0
 432 21 419 32 407 44 c 0
 390 61 378 83 369 105 c 0
 365 114 363 124 359 133 c 1
 355 123 352 113 348 103 c 0
 339 81 326 59 309 42 c 0
 298 31 286 21 272 14 c 0
 210 -17 134 9 91 60 c 0
 57 100 40 152 40 204 c 0
 40 219 40 233 44 247 c 0
 51 281 71 312 97 335 c 0
 110 346 125 356 141 362 c 0
 157 369 175 374 193 376 c 0
 206 377 218 376 231 376 c 2
 289 376 l 1
427 376 m 1
 503 376 l 2
 518 376 533 376 548 377 c 0
 561 378 575 379 587 385 c 0
 595 388 602 394 603 403 c 0
 603 407 602 410 602 414 c 0
 601 418 599 422 597 426 c 0
 594 431 591 436 586 439 c 0
 573 450 557 455 541 457 c 0
 507 461 467 450 445 423 c 0
 437 414 432 403 429 392 c 0
 428 387 428 381 427 376 c 1
EndSplineSet
EndChar
StartChar: uni0D8F
Encoding: 3471 3471 14
Width: 1050
GlyphClass: 2
Flags: W
Fore
357 93 m 1
 352 78 341 63 331 51 c 0
 321 38 310 27 296 19 c 0
 252 -9 191 -3 148 25 c 0
 122 43 101 69 86 97 c 0
 62 143 49 195 44 247 c 0
 33 343 42 448 91 533 c 0
 111 567 138 597 173 616 c 0
 227 645 295 640 345 605 c 0
 363 591 379 574 391 555 c 0
 415 518 430 474 437 431 c 0
 439 416 441 402 442 387 c 0
 442 381 441 374 443 368 c 0
 447 360 458 354 464 349 c 2
 495 323 l 2
 502 317 510 311 516 304 c 1
 501 293 488 281 474 269 c 0
 456 254 439 240 425 221 c 0
 403 191 391 156 373 124 c 1
 392 116 409 105 427 96 c 0
 459 81 495 69 531 70 c 0
 570 72 606 88 640 105 c 0
 652 111 664 119 677 124 c 1
 659 156 647 191 625 221 c 0
 611 240 594 254 576 269 c 0
 562 281 549 293 534 304 c 1
 540 311 548 317 555 323 c 2
 586 349 l 2
 592 354 603 360 607 368 c 0
 609 374 608 381 608 387 c 0
 609 402 611 416 613 431 c 0
 620 474 635 518 659 555 c 0
 671 574 687 591 705 605 c 0
 755 640 823 645 877 616 c 0
 912 597 939 567 959 533 c 0
 1008 448 1017 343 1006 247 c 0
 1001 195 988 143 964 97 c 0
 949 69 928 43 902 25 c 0
 859 -3 798 -9 754 19 c 0
 740 27 729 38 719 51 c 0
 709 63 698 78 693 93 c 1
 665 73 641 48 612 30 c 0
 598 21 582 13 566 7 c 0
 555 4 543 2 531 1 c 0
 483 -1 442 24 406 53 c 0
 389 66 374 81 357 93 c 1
361 317 m 1
 376 328 389 340 403 352 c 0
 408 356 417 361 419 368 c 0
 421 375 420 383 419 390 c 0
 418 407 416 425 412 442 c 0
 398 511 361 590 286 609 c 0
 275 611 263 613 252 613 c 0
 242 613 232 612 223 609 c 0
 175 596 154 547 144 503 c 0
 131 442 132 379 132 317 c 0
 132 256 131 193 142 133 c 1
 148 137 154 142 160 147 c 0
 170 154 181 160 192 165 c 0
 230 180 272 171 308 156 c 0
 324 150 338 141 354 135 c 1
 394 213 l 1
 429 260 l 1
 361 316 l 1
 361 317 l 1
908 133 m 1
 919 192 918 253 918 312 c 0
 918 373 919 436 907 496 c 0
 899 537 883 585 842 604 c 0
 835 607 828 609 820 611 c 0
 809 613 798 613 786 612 c 0
 776 611 766 609 756 606 c 0
 687 584 653 511 639 446 c 0
 635 428 632 409 631 390 c 0
 630 383 629 375 631 368 c 0
 633 361 642 356 647 352 c 0
 661 340 676 329 689 316 c 1
 621 260 l 1
 656 213 l 1
 696 135 l 1
 712 141 726 150 742 156 c 0
 778 171 820 180 858 165 c 0
 869 160 880 154 890 147 c 0
 896 142 902 137 908 133 c 1
228 151 m 0
 204 149 183 139 165 124 c 0
 160 119 151 113 149 106 c 0
 148 102 150 98 151 95 c 0
 153 89 155 82 158 76 c 0
 165 62 173 48 186 38 c 0
 201 26 220 22 239 23 c 0
 276 26 303 47 323 77 c 0
 327 83 332 90 335 97 c 0
 337 100 339 103 338 107 c 0
 337 110 334 112 331 114 c 0
 325 118 320 122 314 125 c 0
 289 141 258 153 228 151 c 0
815 151 m 0
 786 149 759 140 734 124 c 0
 729 120 723 117 718 113 c 0
 716 112 713 110 712 107 c 0
 711 103 713 100 715 97 c 0
 719 89 724 82 728 75 c 0
 751 42 783 21 824 23 c 0
 858 25 880 49 893 78 c 2
 899 96 l 2
 900 99 902 103 901 107 c 0
 898 115 889 121 883 125 c 0
 864 141 840 152 815 151 c 0
EndSplineSet
EndChar
StartChar: uni0D90
Encoding: 3472 3472 15
Width: 1485
GlyphClass: 2
Flags: W
Fore
1199 329 m 1
 1196 335 1191 342 1189 349 c 0
 1188 360 1192 372 1195 382 c 0
 1211 422 1254 449 1296 451 c 0
 1312 452 1327 451 1342 447 c 0
 1389 434 1419 391 1436 348 c 0
 1449 316 1454 281 1456 247 c 0
 1458 204 1454 161 1440 120 c 0
 1429 87 1412 53 1384 31 c 0
 1370 20 1354 12 1336 7 c 0
 1281 -5 1214 21 1194 77 c 0
 1191 87 1189 98 1189 109 c 1
 1211 109 l 1
 1213 57 1281 36 1321 59 c 0
 1360 81 1374 130 1380 171 c 0
 1386 215 1386 260 1377 303 c 0
 1372 328 1363 355 1346 375 c 0
 1336 387 1323 398 1308 402 c 0
 1271 414 1220 397 1212 356 c 1
 1219 357 1225 357 1232 356 c 0
 1289 344 1305 256 1260 222 c 0
 1241 207 1214 204 1191 206 c 0
 1172 207 1153 212 1136 220 c 0
 1088 244 1057 294 1057 347 c 0
 1057 371 1063 396 1074 418 c 2
 1083 433 l 2
 1085 435 1086 438 1089 438 c 0
 1095 438 1102 430 1106 427 c 1
 1088 399 1075 366 1081 332 c 0
 1088 286 1130 251 1176 251 c 0
 1185 251 1194 252 1203 255 c 0
 1223 262 1238 282 1236 304 c 0
 1234 315 1227 329 1215 331 c 0
 1210 332 1204 330 1199 329 c 1
357 93 m 1
 352 78 341 63 331 51 c 0
 321 38 310 27 296 19 c 0
 252 -9 191 -3 148 25 c 0
 122 43 101 69 86 97 c 0
 62 143 49 195 44 247 c 0
 33 343 42 448 91 533 c 0
 111 567 138 597 173 616 c 0
 227 645 295 640 345 605 c 0
 363 591 379 574 391 555 c 0
 415 518 430 474 437 431 c 0
 439 416 441 402 442 387 c 0
 442 381 441 374 443 368 c 0
 447 360 458 354 464 349 c 2
 495 323 l 2
 502 317 510 311 516 304 c 1
 501 293 488 281 474 269 c 0
 456 254 439 240 425 221 c 0
 403 191 391 156 373 124 c 1
 392 116 409 105 427 96 c 0
 459 81 495 69 531 70 c 0
 570 72 606 88 640 105 c 0
 652 111 664 119 677 124 c 1
 659 156 647 191 625 221 c 0
 611 240 594 254 576 269 c 0
 562 281 549 293 534 304 c 1
 540 311 548 317 555 323 c 2
 586 349 l 2
 592 354 603 360 607 368 c 0
 609 374 608 381 608 387 c 0
 609 402 611 416 613 431 c 0
 620 474 635 518 659 555 c 0
 671 574 687 591 705 605 c 0
 755 640 823 645 877 616 c 0
 912 597 939 567 959 533 c 0
 1008 448 1017 343 1006 247 c 0
 1001 195 988 143 964 97 c 0
 949 69 928 43 902 25 c 0
 859 -3 798 -9 754 19 c 0
 740 27 729 38 719 51 c 0
 709 63 698 78 693 93 c 1
 665 73 641 48 612 30 c 0
 598 21 582 13 566 7 c 0
 555 4 543 2 531 1 c 0
 483 -1 442 24 406 53 c 0
 389 66 374 81 357 93 c 1
361 317 m 1
 376 328 389 340 403 352 c 0
 408 356 417 361 419 368 c 0
 421 375 420 383 419 390 c 0
 418 407 416 425 412 442 c 0
 398 511 361 590 286 609 c 0
 275 611 263 613 252 613 c 0
 242 613 232 612 223 609 c 0
 175 596 154 547 144 503 c 0
 131 442 132 379 132 317 c 0
 132 256 131 193 142 133 c 1
 148 137 154 142 160 147 c 0
 170 154 181 160 192 165 c 0
 230 180 272 171 308 156 c 0
 324 150 338 141 354 135 c 1
 394 213 l 1
 429 260 l 1
 361 316 l 1
 361 317 l 1
908 133 m 1
 919 192 918 253 918 312 c 0
 918 373 919 436 907 496 c 0
 899 537 883 585 842 604 c 0
 835 607 828 609 820 611 c 0
 809 613 798 613 786 612 c 0
 776 611 766 609 756 606 c 0
 687 584 653 511 639 446 c 0
 635 428 632 409 631 390 c 0
 630 383 629 375 631 368 c 0
 633 361 642 356 647 352 c 0
 661 340 676 329 689 316 c 1
 621 260 l 1
 656 213 l 1
 696 135 l 1
 712 141 726 150 742 156 c 0
 778 171 820 180 858 165 c 0
 869 160 880 154 890 147 c 0
 896 142 902 137 908 133 c 1
228 151 m 0
 204 149 183 139 165 124 c 0
 160 119 151 113 149 106 c 0
 148 102 150 98 151 95 c 0
 153 89 155 82 158 76 c 0
 165 62 173 48 186 38 c 0
 201 26 220 22 239 23 c 0
 276 26 303 47 323 77 c 0
 327 83 332 90 335 97 c 0
 337 100 339 103 338 107 c 0
 337 110 334 112 331 114 c 0
 325 118 320 122 314 125 c 0
 289 141 258 153 228 151 c 0
815 151 m 0
 786 149 759 140 734 124 c 0
 729 120 723 117 718 113 c 0
 716 112 713 110 712 107 c 0
 711 103 713 100 715 97 c 0
 719 89 724 82 728 75 c 0
 751 42 783 21 824 23 c 0
 858 25 880 49 893 78 c 2
 899 96 l 2
 900 99 902 103 901 107 c 0
 898 115 889 121 883 125 c 0
 864 141 840 152 815 151 c 0
EndSplineSet
EndChar
StartChar: uni0D91
Encoding: 3473 3473 16
Width: 676
GlyphClass: 2
Flags: W
Fore
392 743 m 1
 394 743 l 1
 428 701 468 665 501 623 c 0
 563 545 611 451 629 352 c 0
 636 309 638 265 629 222 c 0
 624 198 615 176 604 154 c 0
 592 131 576 110 558 92 c 0
 540 74 521 58 499 45 c 0
 415 -6 311 -9 218 16 c 0
 158 33 97 65 63 120 c 0
 27 180 33 261 77 315 c 0
 90 330 106 346 124 353 c 1
 124 354 l 1
 78 354 l 2
 70 354 61 353 53 354 c 0
 44 355 36 364 44 372 c 0
 48 377 56 376 62 376 c 2
 107 376 l 1
 289 376 l 1
 283 410 273 446 242 466 c 0
 230 473 212 479 198 473 c 0
 191 470 185 463 180 457 c 0
 166 437 158 396 126 399 c 0
 122 399 118 400 115 402 c 0
 111 404 107 407 104 411 c 0
 99 417 96 423 94 430 c 0
 82 468 104 516 142 530 c 0
 165 539 191 535 213 526 c 0
 281 500 312 422 312 354 c 1
 235 354 l 2
 218 354 202 355 185 352 c 0
 127 343 78 298 65 241 c 0
 60 216 62 189 75 167 c 0
 81 157 88 149 97 142 c 0
 133 111 184 102 229 97 c 0
 261 93 292 92 324 92 c 0
 390 92 458 100 517 134 c 0
 569 163 611 211 613 273 c 0
 614 321 604 370 589 416 c 0
 583 435 573 453 568 472 c 1
 553 457 537 446 517 440 c 0
 455 421 384 455 364 518 c 0
 356 543 358 569 360 595 c 0
 364 646 376 694 392 743 c 1
423 674 m 1
 416 665 409 656 404 646 c 0
 391 622 383 596 381 569 c 0
 379 543 384 518 402 499 c 0
 407 494 413 489 419 486 c 0
 450 467 494 469 521 495 c 0
 527 501 532 507 535 514 c 0
 537 517 539 520 539 524 c 0
 539 528 537 531 536 534 c 2
 525 551 l 2
 511 574 495 596 478 617 c 0
 466 631 455 644 442 657 c 0
 436 663 430 670 423 674 c 1
EndSplineSet
EndChar
StartChar: uni0D92
Encoding: 3474 3474 17
Width: 676
GlyphClass: 2
Flags: W
Fore
564 826 m 1
 581 816 597 804 613 794 c 0
 644 773 676 750 701 722 c 0
 714 708 726 692 733 674 c 0
 738 663 741 652 743 640 c 0
 744 631 744 623 743 614 c 0
 738 591 718 577 696 573 c 0
 659 565 618 577 586 596 c 1
 586 519 l 1
 586 499 l 2
 586 495 584 492 585 488 c 0
 587 480 591 472 595 465 c 0
 601 450 607 435 612 420 c 0
 632 357 643 287 629 221 c 0
 624 199 616 178 606 158 c 0
 596 138 583 120 568 103 c 0
 523 51 459 17 391 5 c 0
 341 -3 288 0 239 11 c 0
 192 22 146 40 108 70 c 0
 84 89 63 114 52 143 c 0
 29 197 38 263 73 310 c 0
 86 327 104 345 124 353 c 1
 124 354 l 1
 78 354 l 2
 70 354 61 353 53 354 c 0
 44 355 36 364 44 372 c 0
 48 377 56 376 62 376 c 2
 107 376 l 1
 289 376 l 1
 283 410 273 446 242 466 c 0
 230 473 212 479 198 473 c 0
 191 470 185 463 180 457 c 0
 166 437 158 396 126 399 c 0
 122 399 118 400 115 402 c 0
 111 404 107 407 104 411 c 0
 99 417 96 423 94 430 c 0
 82 468 104 516 142 530 c 0
 165 539 191 535 213 526 c 0
 281 500 312 422 312 354 c 1
 235 354 l 2
 218 354 202 355 185 352 c 0
 127 343 78 298 65 241 c 0
 60 216 62 189 75 167 c 0
 81 157 88 149 97 142 c 0
 133 111 184 102 229 97 c 0
 261 93 292 92 324 92 c 0
 390 92 458 100 517 134 c 0
 569 163 611 211 613 273 c 0
 614 321 604 370 589 416 c 0
 583 435 573 453 568 472 c 1
 553 457 537 446 517 440 c 0
 455 421 384 455 364 518 c 0
 356 543 358 569 360 595 c 0
 364 646 376 694 392 743 c 1
 394 743 l 1
 420 711 450 682 478 651 c 0
 497 630 514 607 530 584 c 0
 542 567 555 548 563 529 c 1
 564 529 l 1
 564 826 l 1
587 785 m 1
 586 780 586 774 586 769 c 2
 586 744 l 1
 586 661 l 1
 586 633 l 2
 586 628 586 624 589 620 c 0
 595 615 603 612 610 610 c 0
 637 600 682 602 689 637 c 0
 691 645 690 655 688 663 c 0
 684 690 668 714 650 734 c 0
 631 754 609 769 587 785 c 1
423 674 m 1
 416 665 409 656 404 646 c 0
 391 622 383 596 381 569 c 0
 379 543 384 518 402 499 c 0
 407 494 413 489 419 486 c 0
 450 467 494 469 521 495 c 0
 527 501 532 507 535 514 c 0
 537 517 539 520 539 524 c 0
 539 528 537 531 536 534 c 2
 525 551 l 2
 511 574 495 596 478 617 c 0
 466 631 455 644 442 657 c 0
 436 663 430 670 423 674 c 1
EndSplineSet
EndChar
StartChar: uni0D93
Encoding: 3475 3475 18
Width: 1331
GlyphClass: 2
Flags: W
Fore
1051 743 m 1
 1053 743 l 1
 1087 701 1127 665 1160 623 c 0
 1222 545 1270 451 1288 352 c 0
 1295 309 1297 265 1288 222 c 0
 1283 198 1274 176 1263 154 c 0
 1251 131 1235 110 1217 92 c 0
 1199 74 1180 58 1158 45 c 0
 1074 -6 970 -9 877 16 c 0
 817 33 756 65 722 120 c 0
 686 180 692 261 736 315 c 0
 749 330 765 346 783 353 c 1
 783 354 l 1
 737 354 l 2
 729 354 720 353 712 354 c 0
 703 355 695 364 703 372 c 0
 707 377 715 376 721 376 c 2
 766 376 l 1
 948 376 l 1
 942 410 932 446 901 466 c 0
 889 473 871 479 857 473 c 0
 850 470 844 463 839 457 c 0
 825 437 817 396 785 399 c 0
 781 399 777 400 774 402 c 0
 770 404 766 407 763 411 c 0
 758 417 755 423 753 430 c 0
 741 468 763 516 801 530 c 0
 824 539 850 535 872 526 c 0
 940 500 971 422 971 354 c 1
 894 354 l 2
 877 354 861 355 844 352 c 0
 786 343 737 298 724 241 c 0
 719 216 721 189 734 167 c 0
 740 157 747 149 756 142 c 0
 792 111 843 102 888 97 c 0
 920 93 951 92 983 92 c 0
 1049 92 1117 100 1176 134 c 0
 1228 163 1270 211 1272 273 c 0
 1273 321 1263 370 1248 416 c 0
 1242 435 1232 453 1227 472 c 1
 1212 457 1196 446 1176 440 c 0
 1114 421 1043 455 1023 518 c 0
 1015 543 1017 569 1019 595 c 0
 1023 646 1035 694 1051 743 c 1
1082 674 m 1
 1075 665 1068 656 1063 646 c 0
 1050 622 1042 596 1040 569 c 0
 1038 543 1043 518 1061 499 c 0
 1066 494 1072 489 1078 486 c 0
 1109 467 1153 469 1180 495 c 0
 1186 501 1191 507 1194 514 c 0
 1196 517 1198 520 1198 524 c 0
 1198 528 1196 531 1195 534 c 2
 1184 551 l 2
 1170 574 1154 596 1137 617 c 0
 1125 631 1114 644 1101 657 c 0
 1095 663 1089 670 1082 674 c 1
351 374 m 1
 359 367 368 364 376 357 c 0
 397 338 406 309 403 281 c 0
 400 257 387 234 367 220 c 0
 332 195 276 201 249 235 c 0
 221 269 223 323 254 355 c 0
 262 363 273 369 283 374 c 0
 295 380 308 385 321 389 c 0
 404 413 502 389 552 315 c 0
 560 302 567 289 572 274 c 0
 576 261 578 248 579 234 c 0
 585 178 562 124 524 84 c 0
 501 60 471 42 441 29 c 0
 343 -13 221 -10 135 58 c 0
 119 70 105 84 92 100 c 0
 78 118 66 138 57 159 c 0
 30 228 36 309 71 374 c 0
 95 417 130 454 171 480 c 0
 286 554 438 552 551 476 c 0
 573 461 593 444 610 425 c 0
 626 408 639 390 652 370 c 0
 657 361 664 350 667 340 c 0
 671 329 659 318 650 328 c 0
 645 333 642 342 638 349 c 0
 631 361 623 373 615 384 c 0
 584 426 543 459 496 482 c 0
 407 524 300 522 211 480 c 0
 151 451 100 403 76 340 c 0
 68 319 63 296 62 274 c 0
 61 256 63 238 68 221 c 0
 76 198 89 177 106 160 c 0
 168 98 260 86 344 93 c 0
 362 95 380 96 398 99 c 0
 447 106 505 120 537 161 c 0
 576 211 556 283 515 325 c 0
 500 340 481 352 462 361 c 0
 443 369 420 375 399 376 c 0
 383 377 367 375 351 374 c 1
313 357 m 0
 296 356 279 350 268 337 c 0
 242 307 247 253 284 234 c 0
 295 228 308 226 321 227 c 0
 339 228 357 236 368 251 c 0
 392 283 382 337 343 352 c 0
 334 356 323 357 313 357 c 0
EndSplineSet
EndChar
StartChar: uni0D94
Encoding: 3476 3476 19
Width: 718
GlyphClass: 2
Flags: W
Fore
158 456 m 1
 141 444 126 426 113 409 c 0
 74 356 54 285 65 220 c 0
 74 167 109 114 162 97 c 0
 177 93 193 91 209 92 c 0
 256 95 306 118 331 159 c 0
 338 171 343 184 346 197 c 0
 347 204 347 213 349 220 c 0
 350 226 355 230 361 228 c 0
 371 226 370 216 370 208 c 0
 373 189 379 171 390 155 c 0
 427 101 507 76 568 102 c 0
 606 118 632 155 647 192 c 0
 667 239 675 290 676 340 c 0
 677 373 676 406 668 439 c 0
 654 502 623 561 577 607 c 0
 518 667 437 702 353 704 c 0
 312 705 272 697 234 684 c 0
 200 671 168 652 140 629 c 0
 130 621 119 612 110 602 c 0
 104 595 97 585 89 579 c 0
 78 572 69 584 74 594 c 0
 79 602 86 609 93 616 c 0
 113 639 138 658 164 674 c 0
 255 731 371 741 471 703 c 0
 516 685 558 658 592 624 c 0
 647 570 684 495 695 419 c 0
 701 377 699 335 696 293 c 0
 692 239 684 184 665 133 c 0
 651 96 631 60 600 35 c 0
 551 -6 475 -12 424 28 c 0
 402 46 385 70 373 96 c 0
 367 108 364 121 359 133 c 1
 353 119 349 105 343 91 c 0
 333 69 318 49 300 33 c 0
 290 25 279 17 267 12 c 0
 228 -5 181 -2 144 19 c 0
 125 30 109 46 95 63 c 0
 72 94 57 131 49 169 c 0
 35 232 36 298 60 358 c 0
 76 398 100 433 131 463 c 0
 138 470 146 476 154 483 c 0
 158 486 163 489 168 489 c 0
 177 488 179 480 179 473 c 0
 180 449 184 425 193 403 c 0
 215 350 263 306 322 300 c 0
 365 296 412 311 432 352 c 0
 437 361 440 372 441 382 c 0
 444 395 443 407 441 419 c 0
 439 425 437 432 436 438 c 1
 435 438 l 1
 435 424 432 411 426 399 c 0
 406 357 346 346 310 375 c 0
 285 394 277 429 286 459 c 0
 288 467 292 474 296 481 c 0
 324 521 386 518 422 491 c 0
 465 458 475 395 454 347 c 0
 451 338 446 330 439 322 c 0
 401 274 329 268 275 289 c 0
 226 309 191 350 171 398 c 0
 164 416 158 436 158 456 c 1
350 489 m 0
 309 485 292 434 314 402 c 0
 326 386 346 379 365 381 c 0
 376 382 387 386 396 394 c 0
 416 413 418 450 400 471 c 0
 388 486 369 490 350 489 c 0
EndSplineSet
EndChar
StartChar: uni0D95
Encoding: 3477 3477 20
Width: 718
GlyphClass: 2
Flags: W
Fore
137 609 m 1
 132 622 123 633 116 645 c 0
 113 650 108 656 110 662 c 0
 112 668 118 671 123 674 c 0
 135 681 148 687 161 692 c 0
 217 715 276 724 337 723 c 0
 359 723 381 720 403 715 c 0
 470 702 534 671 584 625 c 0
 619 592 646 553 666 509 c 0
 680 475 692 438 697 401 c 0
 699 379 699 357 698 334 c 0
 697 303 695 272 691 241 c 0
 683 187 670 132 642 85 c 0
 626 58 605 35 578 19 c 0
 531 -7 468 -6 425 27 c 0
 402 45 385 70 373 96 c 0
 367 108 364 121 359 133 c 1
 353 119 349 105 343 91 c 0
 333 69 318 49 300 33 c 0
 290 25 279 17 267 12 c 0
 228 -5 181 -2 144 19 c 0
 125 30 109 46 95 63 c 0
 72 94 57 131 49 169 c 0
 35 232 36 298 60 358 c 0
 76 398 100 433 131 463 c 0
 138 470 146 476 154 483 c 0
 158 486 163 489 168 489 c 0
 177 488 179 480 179 473 c 0
 180 449 184 425 193 403 c 0
 215 350 263 306 322 300 c 0
 365 296 412 311 432 352 c 0
 437 361 440 372 441 382 c 0
 444 395 443 407 441 419 c 0
 439 425 437 432 436 438 c 1
 435 438 l 1
 435 424 432 411 426 399 c 0
 406 357 346 346 310 375 c 0
 285 394 277 429 286 459 c 0
 288 467 292 474 296 481 c 0
 324 521 386 518 422 491 c 0
 465 458 475 395 454 347 c 0
 451 338 446 330 439 322 c 0
 401 274 329 268 275 289 c 0
 226 309 191 350 171 398 c 0
 164 416 158 436 158 456 c 1
 141 444 126 426 113 409 c 0
 74 356 54 285 65 220 c 0
 74 167 109 114 162 97 c 0
 177 93 193 91 209 92 c 0
 256 95 306 118 331 159 c 0
 338 171 343 184 346 197 c 0
 347 204 347 213 349 220 c 0
 350 226 355 230 361 228 c 0
 371 226 370 216 370 208 c 0
 373 189 379 170 390 154 c 0
 431 96 525 71 586 111 c 0
 635 144 658 207 668 263 c 0
 672 288 675 314 676 340 c 0
 676 346 677 352 677 358 c 0
 676 375 674 392 671 409 c 0
 669 423 667 437 662 450 c 0
 651 484 632 514 608 540 c 0
 592 557 574 573 554 586 c 0
 469 642 358 656 260 633 c 0
 228 625 197 614 167 600 c 2
 142 587 l 2
 138 585 133 582 128 583 c 0
 121 586 118 594 123 600 c 0
 126 604 132 607 137 609 c 1
588 589 m 1
 580 599 571 608 561 616 c 0
 540 634 516 650 491 662 c 0
 407 704 306 712 215 687 c 0
 188 680 161 670 136 656 c 1
 157 620 l 1
 167 623 176 628 186 632 c 0
 204 639 222 646 240 650 c 0
 323 672 412 671 493 641 c 0
 515 633 537 622 557 610 c 0
 568 603 577 595 588 589 c 1
350 489 m 0
 309 485 292 434 314 402 c 0
 326 386 346 379 365 381 c 0
 376 382 387 386 396 394 c 0
 416 413 418 450 400 471 c 0
 388 486 369 490 350 489 c 0
EndSplineSet
EndChar
StartChar: uni0D96
Encoding: 3478 3478 21
Width: 1174
GlyphClass: 2
Flags: W
Fore
158 456 m 1
 141 444 126 426 113 409 c 0
 74 356 54 285 65 220 c 0
 74 167 109 114 162 97 c 0
 177 93 193 91 209 92 c 0
 256 95 306 118 331 159 c 0
 338 171 343 184 346 197 c 0
 347 204 347 213 349 220 c 0
 350 226 355 230 361 228 c 0
 371 226 370 216 370 208 c 0
 373 189 379 171 390 155 c 0
 427 101 507 76 568 102 c 0
 606 118 632 155 647 192 c 0
 667 239 675 290 676 340 c 0
 677 373 676 406 668 439 c 0
 654 502 623 561 577 607 c 0
 518 667 437 702 353 704 c 0
 312 705 272 697 234 684 c 0
 200 671 168 652 140 629 c 0
 130 621 119 612 110 602 c 0
 104 595 97 585 89 579 c 0
 78 572 69 584 74 594 c 0
 79 602 86 609 93 616 c 0
 113 639 138 658 164 674 c 0
 255 731 371 741 471 703 c 0
 516 685 558 658 592 624 c 0
 647 570 684 495 695 419 c 0
 701 377 699 335 696 293 c 0
 692 239 684 184 665 133 c 0
 651 96 631 60 600 35 c 0
 551 -6 475 -12 424 28 c 0
 402 46 385 70 373 96 c 0
 367 108 364 121 359 133 c 1
 353 119 349 105 343 91 c 0
 333 69 318 49 300 33 c 0
 290 25 279 17 267 12 c 0
 228 -5 181 -2 144 19 c 0
 125 30 109 46 95 63 c 0
 72 94 57 131 49 169 c 0
 35 232 36 298 60 358 c 0
 76 398 100 433 131 463 c 0
 138 470 146 476 154 483 c 0
 158 486 163 489 168 489 c 0
 177 488 179 480 179 473 c 0
 180 449 184 425 193 403 c 0
 215 350 263 306 322 300 c 0
 365 296 412 311 432 352 c 0
 437 361 440 372 441 382 c 0
 444 395 443 407 441 419 c 0
 439 425 437 432 436 438 c 1
 435 438 l 1
 435 424 432 411 426 399 c 0
 406 357 346 346 310 375 c 0
 285 394 277 429 286 459 c 0
 288 467 292 474 296 481 c 0
 324 521 386 518 422 491 c 0
 465 458 475 395 454 347 c 0
 451 338 446 330 439 322 c 0
 401 274 329 268 275 289 c 0
 226 309 191 350 171 398 c 0
 164 416 158 436 158 456 c 1
350 489 m 0
 309 485 292 434 314 402 c 0
 326 386 346 379 365 381 c 0
 376 382 387 386 396 394 c 0
 416 413 418 450 400 471 c 0
 388 486 369 490 350 489 c 0
883 325 m 1
 880 331 875 338 873 345 c 0
 872 356 876 368 879 378 c 0
 895 418 938 445 980 447 c 0
 996 448 1011 447 1026 443 c 0
 1073 430 1103 387 1120 344 c 0
 1133 312 1138 277 1140 243 c 0
 1142 200 1138 157 1124 116 c 0
 1113 83 1096 49 1068 27 c 0
 1054 16 1038 8 1020 3 c 0
 965 -9 898 17 878 73 c 0
 875 83 873 94 873 105 c 1
 895 105 l 1
 897 53 965 32 1005 55 c 0
 1044 77 1058 126 1064 167 c 0
 1070 211 1070 256 1061 299 c 0
 1056 324 1047 351 1030 371 c 0
 1020 383 1007 394 992 398 c 0
 955 410 904 393 896 352 c 1
 903 353 909 353 916 352 c 0
 973 340 989 252 944 218 c 0
 925 203 898 200 875 202 c 0
 856 203 837 208 820 216 c 0
 772 240 741 290 741 343 c 0
 741 367 747 392 758 414 c 2
 767 429 l 2
 769 431 770 434 773 434 c 0
 779 434 786 426 790 423 c 1
 772 395 759 362 765 328 c 0
 772 282 814 247 860 247 c 0
 869 247 878 248 887 251 c 0
 907 258 922 278 920 300 c 0
 918 311 911 325 899 327 c 0
 894 328 888 326 883 325 c 1
EndSplineSet
EndChar
StartChar: uni0D9A
Encoding: 3482 3482 22
Width: 892
GlyphClass: 2
Flags: W
Fore
284 422 m 1
 280 430 277 438 272 445 c 0
 251 474 207 501 174 474 c 0
 149 454 140 422 121 397 c 0
 106 378 77 363 56 382 c 0
 53 385 50 389 48 393 c 0
 40 408 39 426 41 442 c 0
 48 484 78 519 119 531 c 0
 171 546 232 524 269 486 c 0
 283 472 295 455 301 437 c 1
 327 454 351 471 379 485 c 0
 436 514 500 531 564 534 c 0
 592 535 620 535 648 528 c 0
 682 519 714 503 741 481 c 0
 763 464 781 444 797 421 c 0
 816 393 831 362 840 329 c 0
 851 289 854 247 851 206 c 0
 846 143 831 73 781 29 c 0
 759 10 723 -6 693 3 c 0
 683 5 674 11 666 18 c 1
 666 19 l 1
 680 35 l 1
 681 35 l 1
 687 29 694 25 703 23 c 0
 710 21 717 23 724 25 c 0
 738 28 751 35 763 44 c 0
 808 80 821 143 818 197 c 0
 812 310 731 410 625 446 c 0
 577 462 525 464 475 457 c 0
 425 449 377 432 333 407 c 0
 320 399 307 391 295 382 c 0
 288 377 281 371 273 366 c 1
 273 365 l 1
 288 370 303 375 319 379 c 0
 352 386 386 387 420 383 c 0
 511 370 604 310 620 214 c 0
 622 200 622 187 622 173 c 0
 622 162 621 151 620 140 c 0
 613 85 588 15 526 3 c 0
 508 -1 489 1 471 5 c 0
 453 9 435 15 419 24 c 0
 401 35 384 49 371 65 c 0
 364 73 359 82 352 90 c 1
 349 75 342 61 334 48 c 0
 325 34 314 22 300 14 c 0
 280 1 257 0 234 2 c 0
 208 4 182 11 159 23 c 0
 148 29 137 36 127 44 c 0
 122 48 117 53 111 56 c 0
 106 58 102 57 97 56 c 0
 90 53 82 50 75 49 c 0
 70 47 63 46 60 51 c 0
 55 58 61 71 63 78 c 0
 70 103 79 127 89 151 c 0
 120 226 162 297 216 358 c 0
 228 371 240 384 253 396 c 0
 262 405 272 415 284 422 c 1
272 365 m 1
 272 363 l 1
 272 363 273 364 273 365 c 1
 272 365 l 1
361 361 m 0
 319 357 279 345 243 324 c 0
 230 316 216 307 205 296 c 0
 197 289 190 279 184 270 c 0
 171 254 160 237 149 219 c 0
 138 201 129 181 119 162 c 0
 116 156 109 146 111 139 c 0
 112 133 120 129 124 126 c 0
 173 91 250 71 301 113 c 0
 309 119 316 126 321 134 c 0
 337 156 345 180 347 207 c 0
 348 214 349 226 359 226 c 0
 368 226 370 216 370 209 c 0
 370 200 369 190 369 181 c 0
 368 172 367 163 372 155 c 0
 399 111 450 87 501 90 c 0
 514 91 527 94 539 99 c 0
 549 103 559 108 567 115 c 0
 582 127 593 143 598 161 c 0
 600 169 600 178 600 186 c 0
 600 214 591 242 576 265 c 0
 531 335 442 367 361 361 c 0
EndSplineSet
EndChar
StartChar: uni0D9B
Encoding: 3483 3483 23
Width: 714
GlyphClass: 2
Flags: W
Fore
389 52 m 1
 395 56 401 62 408 65 c 0
 416 68 426 67 434 68 c 0
 450 70 466 74 481 80 c 0
 535 101 576 145 604 195 c 0
 625 233 638 275 645 317 c 0
 656 386 652 457 622 521 c 0
 599 567 564 608 523 638 c 0
 494 659 463 675 429 686 c 0
 343 715 247 708 166 667 c 0
 148 658 131 648 115 636 c 0
 107 630 99 622 90 616 c 0
 81 610 69 617 73 628 c 0
 75 633 80 637 84 640 c 0
 93 648 102 654 111 661 c 0
 151 689 199 709 247 719 c 0
 380 745 523 696 607 588 c 0
 622 568 635 545 646 522 c 0
 657 496 666 469 670 441 c 0
 675 408 673 375 672 342 c 0
 669 267 661 190 632 120 c 0
 613 74 582 33 536 13 c 0
 522 7 507 3 492 2 c 0
 486 1 481 0 475 1 c 0
 469 3 463 6 457 9 c 0
 449 13 441 16 432 19 c 0
 405 27 371 29 347 11 c 0
 339 6 333 -2 327 -10 c 1
 322 -8 312 -4 310 1 c 0
 309 4 311 7 312 9 c 0
 314 13 316 18 318 22 c 0
 328 43 337 63 354 80 c 0
 376 102 402 118 426 138 c 0
 443 152 458 169 465 190 c 0
 468 201 468 212 468 224 c 0
 467 234 465 245 462 254 c 0
 457 267 450 278 442 289 c 0
 420 317 388 335 355 346 c 0
 296 366 228 366 169 344 c 0
 130 329 92 304 74 265 c 0
 62 241 61 217 63 191 c 0
 65 157 72 123 87 92 c 0
 94 78 104 67 112 54 c 1
 113 54 l 1
 108 77 111 103 126 122 c 0
 150 153 200 158 231 134 c 0
 269 105 267 40 227 13 c 0
 200 -5 162 -1 134 12 c 0
 84 37 59 91 47 143 c 0
 28 231 47 331 116 393 c 0
 128 404 140 414 153 422 c 0
 170 432 187 440 206 445 c 0
 228 451 251 454 274 453 c 0
 379 449 464 367 485 266 c 0
 490 243 493 218 489 195 c 0
 483 153 459 117 430 88 c 0
 417 75 402 64 389 52 c 1
179 127 m 0
 166 126 154 121 145 111 c 0
 125 88 129 45 157 30 c 0
 167 24 179 22 190 23 c 0
 204 25 216 30 225 41 c 0
 244 64 239 103 214 119 c 0
 204 126 191 128 179 127 c 0
377 42 m 1
 389 52 l 1
 377 42 l 1
372 38 m 1
 376 42 l 1
 372 38 l 1
EndSplineSet
EndChar
StartChar: uni0D9C
Encoding: 3484 3484 24
Width: 714
GlyphClass: 2
Flags: W
Fore
257 252 m 1
 264 281 273 309 282 337 c 0
 295 376 309 414 331 449 c 0
 348 477 370 503 399 519 c 0
 444 542 498 539 543 517 c 0
 569 503 592 484 610 461 c 0
 667 388 686 283 666 193 c 0
 648 115 596 44 521 14 c 0
 503 7 484 4 465 2 c 0
 458 1 448 -1 442 3 c 0
 435 8 437 19 445 22 c 0
 450 24 455 23 460 23 c 0
 470 24 481 26 491 28 c 0
 530 38 564 61 591 91 c 0
 626 132 646 185 650 238 c 0
 652 262 651 287 644 310 c 0
 633 346 610 377 581 399 c 0
 564 412 545 423 525 430 c 0
 472 449 412 452 367 413 c 0
 352 400 338 385 328 368 c 0
 319 355 312 341 305 327 c 0
 304 323 299 315 300 310 c 0
 301 305 311 304 315 303 c 0
 329 298 342 290 353 281 c 0
 372 264 387 240 392 215 c 0
 395 202 395 188 395 175 c 0
 393 105 354 23 281 5 c 0
 258 -1 234 0 211 5 c 0
 193 9 175 16 159 26 c 0
 118 50 89 89 70 131 c 0
 29 220 28 333 77 419 c 0
 108 472 155 514 215 529 c 0
 227 532 239 533 251 534 c 0
 257 535 263 536 269 534 c 0
 278 530 277 517 268 514 c 0
 261 511 252 512 244 512 c 0
 230 510 216 506 202 501 c 0
 124 472 76 393 65 313 c 0
 63 297 61 281 62 265 c 0
 65 228 79 193 103 165 c 0
 113 153 124 142 137 133 c 0
 147 126 157 120 168 114 c 0
 225 86 308 77 353 132 c 0
 377 162 381 206 355 236 c 0
 350 242 344 247 338 251 c 0
 331 256 323 259 315 261 c 0
 302 265 288 264 275 260 c 0
 269 258 263 255 257 252 c 1
EndSplineSet
EndChar
StartChar: uni0D9D
Encoding: 3485 3485 25
Width: 718
GlyphClass: 2
Flags: W
Fore
289 376 m 1
 283 410 273 446 242 466 c 0
 230 473 212 479 198 473 c 0
 191 470 185 463 180 457 c 0
 166 437 158 396 126 399 c 0
 122 399 118 400 115 402 c 0
 111 404 107 407 104 411 c 0
 99 417 96 423 94 430 c 0
 82 468 104 516 142 530 c 0
 165 539 191 535 213 526 c 0
 281 500 312 422 312 354 c 1
 234 354 l 2
 216 354 198 355 180 351 c 0
 150 345 122 330 101 308 c 0
 89 295 79 280 72 263 c 0
 66 248 62 230 62 214 c 0
 63 169 94 127 133 107 c 0
 156 96 181 91 207 92 c 0
 222 92 237 95 251 100 c 0
 256 102 263 103 266 107 c 0
 269 111 268 117 268 121 c 0
 269 128 270 136 273 143 c 0
 284 177 316 201 352 202 c 0
 361 202 370 202 379 200 c 0
 407 195 432 177 443 150 c 0
 446 141 449 132 450 123 c 0
 450 118 449 111 452 107 c 0
 454 104 458 103 461 102 c 2
 481 96 l 2
 513 89 548 91 578 104 c 0
 594 112 609 121 621 134 c 0
 631 145 639 157 646 171 c 0
 672 229 643 296 593 329 c 0
 572 343 547 352 522 354 c 0
 508 355 493 354 479 354 c 2
 405 354 l 1
 405 384 407 414 418 443 c 0
 426 464 439 485 456 501 c 0
 489 531 549 552 586 518 c 0
 612 494 622 455 624 421 c 0
 625 407 626 394 618 382 c 0
 610 369 595 364 581 360 c 1
 593 353 605 346 616 337 c 0
 646 312 666 278 674 240 c 0
 677 227 677 214 677 200 c 0
 677 113 622 20 532 4 c 0
 520 1 507 0 494 1 c 0
 470 3 447 11 428 25 c 0
 422 29 412 36 410 43 c 0
 409 48 412 53 414 57 c 0
 419 67 425 77 427 88 c 0
 429 94 428 100 428 106 c 0
 428 119 427 131 421 143 c 0
 409 170 378 183 349 180 c 0
 327 177 305 163 296 142 c 0
 291 131 290 118 290 106 c 0
 290 100 289 93 291 87 c 0
 293 77 300 67 304 57 c 0
 306 53 309 48 308 44 c 0
 308 41 305 38 303 36 c 0
 298 31 293 27 287 23 c 0
 263 7 234 -1 205 1 c 0
 190 2 176 5 162 10 c 0
 150 14 139 19 129 26 c 0
 67 66 40 139 40 210 c 0
 40 256 59 301 93 332 c 0
 102 340 112 348 124 353 c 1
 124 354 l 1
 78 354 l 2
 70 354 61 353 53 354 c 0
 44 355 36 364 44 372 c 0
 48 377 56 376 62 376 c 2
 107 376 l 1
 289 376 l 1
427 376 m 1
 503 376 l 2
 518 376 533 376 548 377 c 0
 561 378 575 379 587 385 c 0
 595 388 602 394 603 403 c 0
 603 407 602 410 602 414 c 0
 601 418 599 422 597 426 c 0
 594 431 591 436 586 439 c 0
 573 450 557 455 541 457 c 0
 507 461 467 450 445 423 c 0
 437 414 432 403 429 392 c 0
 428 387 428 381 427 376 c 1
EndSplineSet
EndChar
StartChar: uni0D9E
Encoding: 3486 3486 26
Width: 740
GlyphClass: 2
Flags: W
Fore
350 354 m 1
 243 354 l 2
 227 354 211 355 196 354 c 0
 181 352 166 348 152 343 c 0
 87 316 40 236 73 168 c 0
 78 158 84 148 92 139 c 0
 108 121 129 107 152 99 c 0
 211 80 283 99 322 147 c 0
 336 164 344 184 347 205 c 0
 348 213 346 226 357 228 c 0
 363 230 369 225 370 219 c 0
 371 211 371 202 373 194 c 0
 376 177 384 161 395 148 c 0
 429 105 494 82 548 95 c 0
 593 106 626 143 644 184 c 0
 666 233 675 287 676 340 c 0
 677 363 677 385 674 407 c 0
 668 455 652 502 627 543 c 0
 569 639 464 702 352 704 c 0
 314 705 275 698 239 685 c 0
 199 672 162 650 131 622 c 2
 104 595 l 2
 99 590 95 584 90 580 c 0
 82 574 71 579 72 589 c 0
 74 598 84 607 90 613 c 0
 108 633 128 650 150 665 c 0
 248 734 380 745 489 695 c 0
 518 682 546 665 570 644 c 0
 591 626 609 607 625 585 c 0
 659 541 682 488 692 434 c 0
 699 401 699 368 698 334 c 0
 697 289 693 244 683 199 c 0
 672 144 652 86 612 45 c 0
 571 4 505 -12 451 12 c 0
 432 20 417 33 403 48 c 0
 388 64 377 85 369 105 c 0
 365 114 363 124 359 133 c 1
 355 123 352 113 348 103 c 0
 338 80 325 59 308 41 c 0
 297 30 285 21 272 14 c 0
 232 -6 183 -2 144 17 c 0
 125 27 109 40 95 55 c 0
 58 94 40 151 40 204 c 0
 40 219 41 234 44 249 c 0
 50 274 63 298 80 318 c 0
 92 333 109 347 127 355 c 1
 127 356 l 1
 108 354 90 354 73 364 c 0
 67 367 62 371 58 376 c 0
 29 407 37 456 65 485 c 0
 84 505 111 516 137 521 c 0
 200 533 273 510 315 460 c 0
 332 440 344 416 348 390 c 0
 350 378 350 366 350 354 c 1
328 376 m 1
 326 391 322 406 316 420 c 0
 291 469 238 495 186 501 c 0
 164 503 137 503 117 493 c 1
 125 493 133 491 140 487 c 0
 178 469 190 421 168 386 c 0
 164 378 157 372 150 367 c 1
 150 366 l 1
 192 376 l 1
 240 376 l 1
 328 376 l 1
105 472 m 0
 93 471 81 465 73 456 c 0
 59 439 58 410 72 393 c 0
 83 380 100 376 117 377 c 0
 151 380 167 421 151 449 c 0
 142 465 123 473 105 472 c 0
128 357 m 1
 128 357 l 1
 128 357 l 1
EndSplineSet
EndChar
StartChar: uni0D9F
Encoding: 3487 3487 27
Width: 833
GlyphClass: 2
Flags: W
Fore
418 307 m 1
 432 305 445 299 457 292 c 0
 507 260 525 198 508 142 c 0
 493 96 458 62 416 39 c 0
 397 28 376 21 355 15 c 0
 341 11 326 8 312 5 c 0
 222 -9 116 11 64 93 c 0
 50 114 42 139 40 164 c 0
 39 180 40 197 40 213 c 0
 40 270 41 328 50 384 c 0
 56 417 64 450 81 479 c 0
 92 497 107 514 126 524 c 0
 167 545 220 536 251 502 c 0
 287 463 299 406 299 354 c 1
 220 354 129 330 84 259 c 0
 64 227 51 180 75 147 c 0
 96 118 133 106 167 100 c 0
 218 90 271 90 322 93 c 0
 359 95 396 97 431 110 c 0
 448 116 464 125 475 139 c 0
 498 167 497 209 474 236 c 0
 465 247 453 255 439 260 c 0
 425 265 409 265 394 260 c 0
 388 258 382 255 376 252 c 1
 389 308 410 364 440 413 c 0
 468 459 506 501 556 521 c 0
 574 529 592 532 611 534 c 0
 626 536 640 535 655 532 c 0
 670 529 684 523 697 514 c 0
 711 505 723 493 734 480 c 0
 760 446 774 404 783 362 c 0
 799 280 797 194 756 119 c 0
 729 70 685 29 632 11 c 0
 614 5 594 1 574 1 c 0
 566 1 554 4 557 15 c 0
 560 26 579 23 588 24 c 0
 617 27 644 38 668 54 c 0
 745 105 783 210 767 300 c 0
 763 322 754 343 744 362 c 0
 735 378 723 392 710 404 c 0
 700 413 688 421 676 428 c 0
 623 455 561 446 511 416 c 0
 494 406 480 394 466 380 c 0
 452 366 440 349 430 332 c 0
 425 324 420 316 418 307 c 1
277 376 m 1
 276 403 273 435 256 458 c 0
 242 476 215 483 196 468 c 0
 188 462 183 453 179 444 c 0
 170 424 166 400 150 384 c 0
 147 381 144 379 140 377 c 0
 118 366 98 381 91 402 c 0
 89 408 88 414 87 420 c 0
 87 426 88 432 86 438 c 1
 82 424 78 410 75 396 c 0
 67 354 63 310 63 268 c 1
 64 268 l 1
 97 322 157 355 218 369 c 0
 237 373 257 376 277 376 c 1
87 441 m 1
 87 439 l 1
 87 439 88 440 88 441 c 1
 87 441 l 1
EndSplineSet
EndChar
StartChar: uni0DA0
Encoding: 3488 3488 28
Width: 718
GlyphClass: 2
Flags: W
Fore
312 354 m 1
 236 354 l 2
 223 354 209 355 196 354 c 0
 180 352 165 348 150 342 c 0
 90 316 42 241 70 176 c 0
 74 168 79 160 85 153 c 0
 120 114 178 102 228 97 c 0
 260 94 291 92 323 92 c 0
 345 92 366 92 388 95 c 0
 445 103 501 124 547 159 c 0
 573 178 596 201 614 228 c 0
 637 262 651 303 655 344 c 0
 657 367 655 390 652 413 c 0
 633 542 541 654 415 691 c 0
 339 713 254 706 183 671 c 0
 157 658 132 641 110 622 c 0
 104 617 99 611 93 606 c 0
 90 603 86 600 81 601 c 0
 75 602 70 609 73 615 c 0
 75 623 84 629 90 634 c 0
 117 659 147 678 180 694 c 0
 219 713 261 723 304 725 c 0
 347 728 390 723 431 709 c 0
 473 695 512 674 546 646 c 0
 572 625 594 599 614 572 c 0
 720 419 690 195 546 77 c 0
 506 44 460 21 410 9 c 0
 377 1 344 0 310 2 c 0
 237 6 159 26 102 75 c 0
 80 93 62 116 52 143 c 0
 32 191 36 252 64 296 c 0
 79 320 99 339 124 354 c 1
 78 354 l 2
 70 354 61 353 53 354 c 0
 44 355 36 364 44 372 c 0
 48 377 56 376 62 376 c 2
 107 376 l 1
 289 376 l 1
 283 410 273 446 242 466 c 0
 230 473 212 479 198 473 c 0
 191 470 185 463 180 457 c 0
 166 437 158 396 126 399 c 0
 122 399 118 400 115 402 c 0
 111 404 107 407 104 411 c 0
 99 417 96 423 94 430 c 0
 82 468 104 516 142 530 c 0
 165 539 191 535 213 526 c 0
 281 500 312 422 312 354 c 1
EndSplineSet
EndChar
StartChar: uni0DA1
Encoding: 3489 3489 29
Width: 676
GlyphClass: 2
Flags: W
Fore
367 376 m 1
 369 385 374 394 378 403 c 0
 385 421 393 438 402 455 c 0
 437 526 483 592 537 650 c 0
 553 667 570 684 587 700 c 0
 597 709 606 719 618 726 c 1
 641 686 l 1
 652 664 l 1
 599 636 549 601 507 558 c 0
 482 532 461 504 440 475 c 1
 463 486 487 496 513 490 c 0
 533 485 547 469 554 450 c 0
 566 420 561 384 549 354 c 1
 566 345 581 332 593 318 c 0
 633 271 647 202 624 144 c 0
 615 123 603 104 587 88 c 0
 530 30 444 6 364 2 c 0
 349 1 335 0 320 1 c 0
 235 5 141 29 82 94 c 0
 24 158 26 261 85 324 c 0
 101 341 122 354 143 363 c 0
 159 370 176 374 193 376 c 0
 205 377 218 376 230 376 c 2
 289 376 l 1
 283 410 273 446 242 466 c 0
 230 473 212 479 198 473 c 0
 191 470 185 463 180 457 c 0
 166 437 158 396 126 399 c 0
 122 399 118 400 115 402 c 0
 111 404 107 407 104 411 c 0
 99 417 96 423 94 430 c 0
 82 468 104 516 142 530 c 0
 165 539 191 535 213 526 c 0
 281 500 312 422 312 354 c 1
 237 354 l 2
 223 354 210 355 196 354 c 0
 177 352 159 347 142 338 c 0
 83 308 36 225 78 163 c 0
 84 154 91 146 99 140 c 0
 129 116 168 106 205 100 c 0
 247 93 290 92 332 92 c 0
 368 92 405 93 441 96 c 0
 490 101 546 111 583 146 c 0
 590 153 596 160 601 169 c 0
 634 228 597 306 540 335 c 1
 536 324 529 313 522 303 c 0
 502 274 474 250 439 242 c 0
 414 236 387 239 370 261 c 0
 353 284 352 314 356 341 c 0
 358 353 363 364 363 376 c 1
 367 376 l 1
529 364 m 1
 539 386 542 414 535 437 c 0
 532 450 524 463 511 467 c 0
 499 472 483 469 471 465 c 0
 432 452 405 412 390 376 c 1
 448 376 l 1
 489 375 l 1
 529 364 l 1
520 345 m 1
 500 351 482 354 461 354 c 2
 406 354 l 2
 400 354 389 356 384 353 c 0
 378 350 378 338 377 332 c 0
 374 311 376 282 394 268 c 0
 407 259 424 261 438 265 c 0
 466 272 488 293 505 316 c 0
 511 325 517 335 520 345 c 1
EndSplineSet
EndChar
StartChar: uni0DA2
Encoding: 3490 3490 30
Width: 676
GlyphClass: 2
Flags: W
Fore
363 354 m 1
 363 393 369 430 388 465 c 0
 393 473 398 482 404 489 c 0
 409 494 414 499 417 505 c 0
 421 514 422 524 425 533 c 0
 429 548 436 563 443 577 c 0
 470 632 515 679 570 707 c 0
 585 714 601 723 618 726 c 1
 641 685 l 1
 652 665 l 1
 631 664 609 661 589 655 c 0
 548 642 510 617 483 583 c 0
 468 565 458 545 448 524 c 1
 458 527 467 531 477 533 c 0
 507 538 540 533 563 511 c 0
 598 476 598 414 563 379 c 0
 556 372 547 365 537 362 c 1
 537 360 l 1
 558 353 579 335 593 318 c 0
 633 271 647 203 624 145 c 0
 617 128 607 111 595 97 c 0
 572 69 541 49 508 35 c 0
 450 9 383 -1 320 1 c 0
 235 5 141 29 82 94 c 0
 24 158 26 261 85 324 c 0
 101 341 122 354 143 363 c 0
 159 370 176 374 193 376 c 0
 205 377 218 376 230 376 c 2
 289 376 l 1
 283 410 273 446 242 466 c 0
 230 473 212 479 198 473 c 0
 191 470 185 463 180 457 c 0
 166 437 158 396 126 399 c 0
 122 399 118 400 115 402 c 0
 111 404 107 407 104 411 c 0
 99 417 96 423 94 430 c 0
 82 468 104 516 142 530 c 0
 165 539 191 535 213 526 c 0
 281 500 312 422 312 354 c 1
 237 354 l 2
 223 354 210 355 196 354 c 0
 178 352 159 347 143 339 c 0
 103 319 73 281 65 238 c 0
 60 214 62 189 75 167 c 0
 81 158 88 150 96 142 c 0
 121 120 155 110 187 103 c 0
 247 91 307 92 368 92 c 0
 413 92 459 96 503 107 c 0
 528 113 553 122 573 137 c 0
 583 145 591 154 598 164 c 0
 627 208 611 269 578 306 c 0
 564 321 546 333 527 342 c 0
 500 354 471 354 442 354 c 2
 363 354 l 1
492 513 m 0
 479 512 466 508 454 502 c 0
 449 499 443 496 440 492 c 0
 437 488 437 484 436 480 c 0
 435 472 434 465 434 457 c 0
 434 444 434 431 438 419 c 0
 449 390 478 375 508 377 c 0
 519 378 530 381 539 387 c 0
 573 411 576 465 549 494 c 0
 534 509 512 514 492 513 c 0
412 461 m 1
 406 454 403 446 399 438 c 0
 391 418 389 397 385 376 c 1
 442 376 l 1
 428 392 416 408 413 429 c 0
 411 440 412 450 412 461 c 1
EndSplineSet
EndChar
StartChar: uni0DA3
Encoding: 3491 3491 31
Width: 1317
GlyphClass: 2
Flags: W
Fore
305 439 m 1
 345 467 387 491 433 508 c 0
 519 539 615 544 704 520 c 0
 736 511 767 498 797 482 c 0
 804 478 811 474 817 470 c 0
 820 468 824 465 824 460 c 0
 826 445 804 448 795 447 c 0
 757 443 720 426 692 401 c 0
 647 360 619 297 623 235 c 0
 627 172 668 109 733 95 c 0
 757 90 782 92 805 98 c 0
 847 109 886 138 902 180 c 0
 905 189 907 198 908 207 c 0
 909 212 908 217 910 221 c 0
 912 226 917 230 923 228 c 0
 932 225 931 215 932 207 c 0
 934 189 939 172 949 157 c 0
 984 105 1058 79 1118 98 c 0
 1159 110 1188 147 1205 185 c 0
 1227 233 1236 287 1237 340 c 0
 1238 367 1237 393 1233 419 c 0
 1222 490 1188 556 1138 607 c 0
 1076 669 989 706 901 704 c 0
 867 703 833 697 801 686 c 0
 768 674 737 657 709 636 c 0
 697 626 685 616 674 605 c 0
 667 597 660 586 651 580 c 0
 640 572 629 583 635 594 c 0
 640 602 647 609 654 616 c 0
 674 639 699 658 725 674 c 0
 816 731 932 741 1032 703 c 0
 1077 685 1119 658 1153 624 c 0
 1208 570 1245 495 1256 419 c 0
 1262 377 1260 335 1257 293 c 0
 1253 239 1245 186 1226 135 c 0
 1212 97 1192 61 1161 35 c 0
 1112 -6 1036 -12 985 28 c 0
 963 46 946 70 934 96 c 0
 928 108 925 121 920 133 c 1
 914 118 910 103 903 89 c 0
 888 59 865 31 835 15 c 0
 796 -6 744 -3 706 18 c 0
 675 36 651 64 635 95 c 0
 629 107 623 119 620 132 c 1
 619 132 l 1
 617 113 611 93 604 75 c 0
 598 60 590 46 579 34 c 0
 539 -14 467 -3 418 26 c 0
 410 30 402 36 395 42 c 0
 385 50 377 58 369 68 c 0
 364 75 359 83 353 90 c 1
 350 76 343 62 336 50 c 0
 327 36 316 22 301 14 c 0
 281 1 258 0 235 2 c 0
 209 4 183 12 159 24 c 0
 148 29 138 36 128 44 c 0
 123 47 119 52 114 55 c 0
 108 59 103 57 97 55 c 0
 90 53 82 50 75 48 c 0
 69 47 61 46 59 54 c 0
 58 62 62 72 64 80 c 0
 70 98 76 116 83 134 c 0
 112 209 152 281 204 343 c 0
 223 366 244 388 266 407 c 0
 273 413 289 422 285 432 c 0
 280 444 271 455 261 464 c 0
 253 470 244 476 235 479 c 0
 228 482 220 484 212 485 c 0
 207 485 203 485 198 484 c 0
 181 482 168 470 158 456 c 0
 143 435 134 409 116 390 c 0
 101 374 74 365 56 382 c 0
 53 386 50 390 48 394 c 0
 41 409 40 426 42 442 c 0
 48 478 71 510 105 525 c 0
 126 534 147 536 169 534 c 0
 204 531 240 518 267 495 c 0
 283 481 300 461 305 439 c 1
777 467 m 1
 766 475 752 479 740 484 c 0
 709 497 676 505 643 509 c 0
 525 524 408 489 314 418 c 0
 298 406 282 392 267 378 c 0
 257 369 247 360 239 349 c 1
 279 369 320 382 364 385 c 0
 456 391 554 350 601 269 c 1
 605 277 605 287 607 296 c 0
 610 311 615 326 621 340 c 0
 644 389 682 429 731 452 c 0
 746 459 761 462 777 467 c 1
361 363 m 0
 311 359 263 342 222 314 c 0
 210 305 198 296 188 286 c 0
 181 278 176 269 171 261 c 0
 163 248 155 235 148 222 c 0
 137 203 128 184 119 164 c 0
 116 158 109 148 111 141 c 0
 113 134 123 129 129 125 c 0
 177 92 252 74 302 115 c 0
 310 121 317 128 322 136 c 0
 338 158 346 182 348 209 c 0
 349 216 350 228 360 228 c 0
 369 228 371 218 371 211 c 0
 371 202 370 192 370 183 c 0
 369 174 368 165 373 157 c 0
 400 113 451 89 502 92 c 0
 515 93 528 96 540 101 c 0
 550 105 560 110 568 117 c 0
 582 128 594 144 599 162 c 0
 601 171 601 179 601 188 c 0
 601 216 592 244 577 268 c 0
 531 338 442 369 361 363 c 0
EndSplineSet
EndChar
StartChar: uni0DA4
Encoding: 3492 3492 32
Width: 1023
GlyphClass: 2
Flags: W
Fore
353 90 m 1
 350 76 343 61 335 49 c 0
 326 35 315 22 301 14 c 0
 281 1 258 0 235 2 c 0
 209 4 183 11 160 23 c 0
 149 29 138 36 128 44 c 0
 123 47 118 52 113 56 c 0
 108 58 103 57 98 56 c 0
 90 53 83 50 75 48 c 0
 69 47 61 46 60 53 c 0
 58 60 59 69 58 77 c 0
 56 97 54 116 53 136 c 0
 46 210 43 283 42 357 c 0
 42 375 41 393 41 411 c 0
 41 434 42 456 54 477 c 0
 61 490 70 502 82 511 c 0
 91 518 102 524 113 528 c 0
 122 531 131 533 140 534 c 0
 207 542 260 490 288 435 c 0
 295 422 302 408 305 394 c 1
 322 403 337 414 354 423 c 0
 382 439 411 453 441 465 c 0
 515 496 594 515 673 526 c 0
 721 532 769 536 817 535 c 0
 889 534 939 472 955 407 c 0
 959 392 962 376 962 361 c 2
 962 346 l 1
 960 340 957 334 955 328 c 1
 946 331 937 336 928 339 c 0
 915 344 902 347 889 349 c 0
 823 358 748 332 712 274 c 0
 703 260 696 244 693 227 c 0
 691 210 692 192 695 175 c 0
 703 123 734 67 788 51 c 0
 799 48 810 46 821 46 c 0
 858 46 897 55 930 70 c 0
 946 77 960 87 976 95 c 1
 978 90 983 81 982 75 c 0
 981 71 977 68 974 66 c 2
 961 53 l 2
 949 40 938 26 929 11 c 0
 905 -29 893 -74 890 -120 c 0
 888 -147 891 -174 909 -196 c 0
 922 -212 940 -217 958 -225 c 0
 965 -228 972 -231 978 -237 c 0
 984 -245 985 -258 977 -265 c 0
 966 -274 947 -273 934 -271 c 0
 893 -266 856 -236 844 -196 c 0
 838 -174 839 -151 842 -129 c 0
 849 -73 873 -22 906 23 c 1
 843 -2 773 -9 711 21 c 0
 700 26 689 32 679 40 c 0
 667 49 656 59 646 70 c 0
 634 84 623 100 617 117 c 1
 616 117 l 1
 614 99 607 81 599 65 c 0
 590 47 579 30 562 18 c 0
 517 -14 450 3 408 32 c 0
 394 41 381 53 371 66 c 0
 365 74 360 83 353 90 c 1
740 510 m 1
 708 510 676 504 645 499 c 0
 573 487 502 467 435 438 c 0
 409 427 384 415 359 401 c 0
 347 394 335 387 324 379 c 1
 348 383 372 386 397 385 c 0
 483 380 577 334 610 250 c 1
 611 250 l 1
 619 270 629 289 643 306 c 0
 688 361 762 392 833 389 c 0
 860 388 887 382 913 373 c 2
 940 361 l 1
 939 369 939 376 937 384 c 0
 931 424 906 474 860 475 c 0
 853 475 846 475 839 472 c 0
 810 461 793 424 760 422 c 0
 732 421 716 452 721 476 c 0
 724 490 732 499 740 510 c 1
78 117 m 1
 98 174 132 226 170 272 c 0
 180 285 190 298 201 310 c 0
 211 320 221 328 232 337 c 0
 242 344 251 353 261 361 c 0
 267 365 272 369 278 374 c 0
 281 376 285 378 286 381 c 0
 287 385 286 389 285 392 c 2
 276 416 l 2
 265 445 247 480 213 484 c 0
 208 485 203 485 198 485 c 0
 182 483 169 472 160 459 c 0
 146 440 137 419 124 400 c 0
 113 386 98 373 79 373 c 0
 73 373 68 375 63 377 c 1
 70 209 l 1
 74 151 l 1
 77 117 l 1
 78 117 l 1
363 363 m 0
 325 360 285 348 253 326 c 0
 237 314 223 299 210 285 c 0
 190 264 172 242 155 218 c 0
 143 200 131 181 121 161 c 0
 119 156 111 145 113 139 c 0
 114 136 118 133 121 131 c 0
 129 125 138 119 147 114 c 0
 194 90 258 79 302 115 c 0
 310 121 317 128 322 136 c 0
 338 158 346 182 348 209 c 0
 349 216 350 228 360 228 c 0
 369 228 371 218 371 211 c 0
 371 202 370 192 370 183 c 0
 369 174 368 165 373 157 c 0
 400 113 451 89 502 92 c 0
 515 93 528 96 540 101 c 0
 550 105 560 110 568 117 c 0
 583 129 594 145 599 163 c 0
 601 171 601 180 601 188 c 0
 601 216 592 244 577 267 c 0
 533 337 443 369 363 363 c 0
906 24 m 1
 906 22 l 1
 906 22 907 23 907 24 c 1
 906 24 l 1
EndSplineSet
EndChar
StartChar: uni0DA5
Encoding: 3493 3493 33
Width: 937
GlyphClass: 2
Flags: W
Fore
515 178 m 1
 512 110 461 58 401 31 c 0
 363 14 321 4 279 2 c 0
 238 0 197 4 158 19 c 0
 104 41 58 83 45 141 c 0
 40 160 41 178 41 197 c 0
 41 218 41 238 42 259 c 2
 42 284 l 2
 44 331 47 380 60 426 c 0
 67 451 77 477 94 497 c 0
 104 508 116 518 129 525 c 0
 172 546 225 534 256 497 c 0
 289 458 300 404 300 354 c 1
 221 354 130 330 85 259 c 0
 65 227 52 180 76 147 c 0
 97 118 134 106 168 100 c 0
 219 90 272 90 323 93 c 0
 360 95 397 97 432 110 c 0
 449 116 465 125 476 139 c 0
 499 167 498 209 475 236 c 0
 466 247 454 255 440 260 c 0
 426 265 410 265 395 260 c 0
 389 258 383 255 377 252 c 1
 387 297 405 340 431 379 c 0
 486 461 576 517 674 531 c 0
 707 536 743 539 775 526 c 0
 826 505 857 456 870 404 c 0
 874 387 878 366 876 348 c 0
 875 341 871 334 869 328 c 1
 860 331 851 336 842 339 c 0
 829 344 816 347 803 349 c 0
 737 358 662 332 626 274 c 0
 617 260 610 244 607 227 c 0
 605 210 606 192 609 175 c 0
 617 123 648 67 702 51 c 0
 713 48 724 46 735 46 c 0
 772 46 811 55 844 70 c 0
 860 77 874 87 890 95 c 1
 892 90 897 81 896 75 c 0
 895 71 891 68 888 66 c 2
 875 53 l 2
 863 40 852 26 843 11 c 0
 819 -29 807 -74 804 -120 c 0
 802 -147 805 -174 823 -196 c 0
 836 -212 854 -217 872 -225 c 0
 879 -228 886 -231 892 -237 c 0
 898 -245 899 -258 891 -265 c 0
 880 -274 861 -273 848 -271 c 0
 807 -266 770 -236 758 -196 c 0
 752 -174 753 -151 756 -129 c 0
 763 -73 787 -22 820 23 c 1
 757 -2 687 -9 625 21 c 0
 614 26 603 32 593 40 c 0
 581 49 569 59 559 71 c 0
 548 85 538 100 531 117 c 0
 522 136 516 157 516 178 c 1
 515 178 l 1
647 503 m 1
 628 500 609 492 592 485 c 0
 537 461 488 422 453 373 c 0
 439 353 426 331 418 308 c 1
 430 304 443 300 454 293 c 0
 486 275 512 239 514 201 c 1
 515 201 l 1
 519 227 524 251 536 275 c 0
 575 350 665 392 747 389 c 0
 774 388 801 382 827 373 c 2
 854 361 l 1
 853 369 853 376 851 384 c 0
 845 424 821 473 775 475 c 0
 768 475 761 475 754 473 c 0
 724 462 709 427 677 423 c 0
 651 419 632 445 634 469 c 0
 635 482 641 492 647 503 c 1
278 376 m 1
 277 403 274 435 257 458 c 0
 243 476 216 483 197 468 c 0
 189 462 184 453 180 444 c 0
 171 424 167 400 151 384 c 0
 148 381 145 379 141 377 c 0
 119 366 99 381 92 402 c 0
 90 408 89 414 88 420 c 0
 88 426 89 432 87 438 c 1
 83 424 79 410 76 396 c 0
 68 354 64 310 64 268 c 1
 65 268 l 1
 98 322 158 355 219 369 c 0
 238 373 258 376 278 376 c 1
88 441 m 1
 88 439 l 1
 88 439 89 440 89 441 c 1
 88 441 l 1
820 22 m 1
 820 20 l 1
 820 20 821 21 821 22 c 1
 820 22 l 1
EndSplineSet
EndChar
StartChar: uni0DA6
Encoding: 3494 3494 34
Width: 676
GlyphClass: 2
Flags: W
Fore
363 354 m 1
 363 393 369 430 388 465 c 0
 393 473 398 482 404 489 c 0
 409 494 414 499 417 505 c 0
 421 514 422 524 425 533 c 0
 429 548 436 563 443 577 c 0
 470 632 515 679 570 707 c 0
 585 714 601 723 618 726 c 1
 641 685 l 1
 652 665 l 1
 631 664 609 661 589 655 c 0
 548 642 510 617 483 583 c 0
 468 565 458 545 448 524 c 1
 458 527 467 531 477 533 c 0
 507 538 540 533 563 511 c 0
 598 476 598 414 563 379 c 0
 556 372 547 365 537 362 c 1
 537 360 l 1
 558 353 578 336 592 319 c 0
 633 271 647 202 623 143 c 0
 614 119 598 99 580 81 c 0
 546 49 501 29 457 17 c 0
 373 -6 281 -5 198 23 c 0
 149 39 101 66 70 109 c 0
 55 131 45 156 41 182 c 0
 39 201 40 221 40 240 c 0
 40 265 40 290 42 315 c 0
 46 362 47 410 65 455 c 0
 72 474 82 493 96 507 c 0
 143 553 219 538 261 494 c 0
 296 457 312 404 312 354 c 1
 237 354 l 2
 223 354 210 355 196 354 c 0
 178 352 159 347 143 339 c 0
 103 319 73 281 65 238 c 0
 60 214 62 189 75 167 c 0
 81 158 88 150 96 142 c 0
 121 120 155 110 187 103 c 0
 247 91 307 92 368 92 c 0
 413 92 459 96 503 107 c 0
 528 113 553 122 573 137 c 0
 583 145 591 154 598 164 c 0
 627 208 611 269 578 306 c 0
 564 321 546 333 527 342 c 0
 500 354 471 354 442 354 c 2
 363 354 l 1
492 513 m 0
 479 512 466 508 454 502 c 0
 449 499 443 496 440 492 c 0
 437 488 437 484 436 480 c 0
 435 472 434 465 434 457 c 0
 434 444 434 431 438 419 c 0
 449 390 478 375 508 377 c 0
 519 378 530 381 539 387 c 0
 573 411 576 465 549 494 c 0
 534 509 512 514 492 513 c 0
289 376 m 1
 284 410 273 450 240 468 c 0
 227 474 208 479 195 472 c 0
 189 468 184 463 180 457 c 0
 177 453 175 448 172 444 c 0
 163 425 151 396 125 399 c 0
 122 399 119 400 116 402 c 0
 112 404 108 407 105 410 c 0
 101 415 97 421 95 427 c 0
 91 438 93 448 90 459 c 1
 75 423 69 384 66 345 c 0
 65 328 63 312 63 295 c 1
 64 295 l 1
 91 340 139 369 191 375 c 0
 203 377 215 376 227 376 c 2
 289 376 l 1
92 461 m 1
 92 461 l 1
 92 461 l 1
412 461 m 1
 406 454 403 446 399 438 c 0
 391 418 389 397 385 376 c 1
 442 376 l 1
 428 392 416 408 413 429 c 0
 411 440 412 450 412 461 c 1
EndSplineSet
EndChar
StartChar: uni0DA7
Encoding: 3495 3495 35
Width: 718
GlyphClass: 2
Flags: W
Fore
309 726 m 0
 321 727 334 726 346 725 c 0
 377 723 407 717 436 708 c 0
 473 695 508 676 539 652 c 0
 568 629 594 601 615 570 c 0
 708 433 695 239 586 115 c 0
 562 89 535 66 505 48 c 0
 469 26 429 12 388 5 c 0
 292 -11 191 20 122 89 c 0
 98 113 80 141 65 171 c 0
 22 262 34 379 106 452 c 0
 120 466 135 477 152 487 c 0
 170 497 190 505 210 509 c 0
 276 522 347 504 399 462 c 0
 418 447 434 430 447 410 c 0
 452 403 460 391 448 385 c 0
 437 381 430 396 425 403 c 0
 408 426 387 445 363 460 c 0
 305 496 229 503 168 470 c 0
 147 459 129 444 113 426 c 0
 66 371 45 284 78 217 c 0
 95 183 124 156 156 137 c 0
 244 86 358 79 454 111 c 0
 492 123 529 143 560 169 c 0
 585 190 606 214 623 242 c 0
 653 294 660 354 652 413 c 0
 636 523 566 624 465 672 c 0
 379 713 278 715 191 675 c 0
 162 661 136 644 112 624 c 0
 106 618 99 612 93 606 c 0
 90 603 86 600 81 601 c 0
 75 602 71 608 72 614 c 0
 73 618 76 620 78 623 c 0
 93 639 110 653 128 665 c 0
 162 688 201 706 242 716 c 0
 264 721 286 723 309 726 c 0
EndSplineSet
EndChar
StartChar: uni0DA8
Encoding: 3496 3496 36
Width: 676
GlyphClass: 2
Flags: W
Fore
392 743 m 1
 394 743 l 1
 429 699 472 662 506 617 c 0
 565 540 612 449 629 352 c 0
 635 318 636 283 635 249 c 0
 634 204 630 159 619 116 c 0
 613 90 603 63 586 41 c 0
 577 29 565 18 551 11 c 0
 508 -10 452 2 417 34 c 0
 398 52 383 73 373 96 c 0
 367 108 364 121 359 133 c 1
 355 123 352 114 348 104 c 0
 341 85 331 68 318 52 c 0
 308 40 296 29 282 20 c 0
 242 -5 187 -5 146 18 c 0
 118 33 97 56 81 83 c 0
 65 109 55 139 48 169 c 0
 40 206 37 245 43 282 c 0
 51 336 80 388 122 423 c 0
 152 447 187 463 225 468 c 0
 228 469 230 469 233 469 c 0
 242 470 260 474 262 461 c 0
 265 447 249 448 240 447 c 0
 206 444 174 433 146 413 c 0
 70 358 35 242 86 159 c 0
 100 135 121 115 146 103 c 0
 203 77 279 97 320 144 c 0
 332 158 341 175 345 193 c 0
 347 201 347 210 348 218 c 0
 349 224 354 229 360 229 c 0
 365 228 369 224 370 219 c 0
 371 212 371 205 372 198 c 0
 374 187 378 176 383 166 c 0
 402 131 437 108 475 98 c 0
 492 93 512 90 530 93 c 0
 574 99 594 141 603 179 c 0
 609 202 611 225 612 249 c 0
 615 298 609 347 596 394 c 0
 592 409 587 424 581 438 c 0
 577 449 571 460 568 472 c 1
 553 457 537 446 517 440 c 0
 455 421 384 455 364 518 c 0
 356 543 358 569 360 595 c 0
 364 646 376 694 392 743 c 1
423 674 m 1
 416 665 409 656 404 646 c 0
 391 622 383 596 381 569 c 0
 379 543 384 518 402 499 c 0
 407 494 413 489 419 486 c 0
 450 467 494 469 521 495 c 0
 527 501 532 507 535 514 c 0
 537 517 539 520 539 524 c 0
 539 528 537 531 536 534 c 2
 525 551 l 2
 511 574 495 596 478 617 c 0
 466 631 455 644 442 657 c 0
 436 663 430 670 423 674 c 1
EndSplineSet
EndChar
StartChar: uni0DA9
Encoding: 3497 3497 37
Width: 740
GlyphClass: 2
Flags: W
Fore
312 354 m 1
 236 354 l 2
 223 354 209 355 196 354 c 0
 182 353 168 349 155 344 c 0
 91 319 45 245 69 177 c 0
 74 166 80 155 87 145 c 0
 144 72 264 77 321 146 c 0
 335 163 344 183 347 205 c 0
 348 213 346 226 357 228 c 0
 363 230 369 225 370 219 c 0
 371 211 371 202 373 194 c 0
 376 177 385 161 396 147 c 0
 432 102 499 81 555 97 c 0
 597 109 627 146 644 184 c 0
 666 233 675 287 676 340 c 0
 677 365 676 390 673 415 c 0
 662 487 628 555 577 607 c 0
 498 686 380 722 271 695 c 0
 238 687 206 674 177 656 c 0
 155 642 134 626 116 608 c 0
 107 599 100 587 90 580 c 0
 81 573 70 580 73 591 c 0
 76 601 86 609 93 616 c 0
 112 638 136 657 161 672 c 0
 271 742 416 744 527 675 c 0
 552 659 577 641 597 619 c 0
 638 574 669 521 686 462 c 0
 694 433 698 403 699 373 c 0
 699 360 698 347 698 334 c 0
 697 284 692 234 680 185 c 0
 669 135 648 81 611 44 c 0
 570 4 505 -12 451 12 c 0
 433 20 418 32 405 46 c 0
 389 63 378 84 369 105 c 0
 365 114 363 124 359 133 c 1
 355 123 352 113 348 103 c 0
 338 80 325 59 308 41 c 0
 294 27 277 15 258 8 c 0
 243 3 227 1 211 1 c 0
 197 1 184 3 171 7 c 0
 159 10 147 15 136 22 c 0
 70 60 40 137 40 210 c 0
 40 256 59 301 93 332 c 0
 102 340 112 348 124 353 c 1
 124 354 l 1
 78 354 l 2
 70 354 61 353 53 354 c 0
 44 355 36 364 44 372 c 0
 48 377 56 376 62 376 c 2
 107 376 l 1
 289 376 l 1
 283 410 273 446 242 466 c 0
 230 473 212 479 198 473 c 0
 191 470 185 463 180 457 c 0
 166 437 158 396 126 399 c 0
 122 399 118 400 115 402 c 0
 111 404 107 407 104 411 c 0
 99 417 96 423 94 430 c 0
 82 468 104 516 142 530 c 0
 165 539 191 535 213 526 c 0
 281 500 312 422 312 354 c 1
EndSplineSet
EndChar
StartChar: uni0DAA
Encoding: 3498 3498 38
Width: 676
GlyphClass: 2
Flags: W
Fore
392 743 m 1
 394 743 l 1
 429 699 472 662 506 617 c 0
 565 540 612 449 629 352 c 0
 635 318 636 283 635 249 c 0
 634 204 630 159 619 116 c 0
 613 90 603 63 586 41 c 0
 577 29 565 18 551 11 c 0
 508 -10 452 2 417 34 c 0
 398 52 383 73 373 96 c 0
 367 108 364 121 359 133 c 1
 355 123 352 113 348 103 c 0
 338 80 325 59 308 41 c 0
 294 27 277 15 258 8 c 0
 243 3 227 1 211 1 c 0
 197 1 184 3 171 7 c 0
 159 10 147 15 136 22 c 0
 70 60 40 137 40 210 c 0
 40 256 59 301 93 332 c 0
 102 340 112 348 124 353 c 1
 124 354 l 1
 78 354 l 2
 70 354 61 353 53 354 c 0
 44 355 36 364 44 372 c 0
 48 377 56 376 62 376 c 2
 107 376 l 1
 289 376 l 1
 283 410 273 446 242 466 c 0
 230 473 212 479 198 473 c 0
 191 470 185 463 180 457 c 0
 166 437 158 396 126 399 c 0
 122 399 118 400 115 402 c 0
 111 404 107 407 104 411 c 0
 99 417 96 423 94 430 c 0
 82 468 104 516 142 530 c 0
 165 539 191 535 213 526 c 0
 281 500 312 422 312 354 c 1
 236 354 l 2
 223 354 209 355 196 354 c 0
 177 352 157 346 140 337 c 0
 85 308 47 241 69 179 c 0
 72 168 78 157 85 148 c 0
 94 135 106 124 119 116 c 0
 182 73 278 90 325 150 c 0
 338 167 345 188 348 209 c 0
 348 217 348 228 358 229 c 0
 363 229 368 225 369 220 c 0
 371 214 370 207 371 201 c 0
 373 189 377 178 382 168 c 0
 402 129 441 105 482 96 c 0
 498 92 517 90 534 93 c 0
 574 101 593 140 602 176 c 0
 608 200 611 224 612 249 c 0
 615 298 609 347 596 395 c 0
 591 410 587 425 581 439 c 0
 577 450 571 461 568 472 c 1
 553 457 537 446 517 440 c 0
 455 421 384 455 364 518 c 0
 356 543 358 569 360 595 c 0
 364 646 376 694 392 743 c 1
423 674 m 1
 416 665 409 656 404 646 c 0
 391 622 383 596 381 569 c 0
 379 543 384 518 402 499 c 0
 407 494 413 489 419 486 c 0
 450 467 494 469 521 495 c 0
 527 501 532 507 535 514 c 0
 537 517 539 520 539 524 c 0
 539 528 537 531 536 534 c 2
 525 551 l 2
 511 574 495 596 478 617 c 0
 466 631 455 644 442 657 c 0
 436 663 430 670 423 674 c 1
EndSplineSet
EndChar
StartChar: uni0DAB
Encoding: 3499 3499 39
Width: 1137
GlyphClass: 2
Flags: W
Fore
217 325 m 1
 212 343 211 363 213 382 c 0
 214 400 218 418 225 435 c 0
 234 458 247 479 264 497 c 0
 311 544 383 560 447 554 c 0
 476 551 504 543 531 532 c 0
 539 528 547 524 555 519 c 0
 559 517 564 514 569 515 c 0
 576 516 583 521 589 524 c 2
 621 538 l 1
 724 582 l 2
 816 620 910 651 1004 682 c 1
 1031 608 l 1
 1021 607 1012 604 1002 602 c 0
 979 598 956 592 933 587 c 0
 853 568 774 544 696 518 c 2
 635 497 l 2
 624 493 614 488 603 485 c 1
 615 470 629 456 640 440 c 0
 669 397 684 347 684 296 c 1
 685 296 l 1
 710 343 778 358 820 325 c 0
 831 317 840 306 847 294 c 0
 851 286 854 277 860 270 c 1
 861 280 866 290 870 299 c 0
 881 324 899 346 923 360 c 0
 958 379 1005 373 1035 347 c 0
 1053 332 1066 311 1075 289 c 0
 1092 248 1098 202 1096 158 c 0
 1094 106 1075 46 1029 17 c 0
 1020 11 1010 6 999 4 c 0
 990 2 981 1 972 1 c 0
 917 2 881 48 865 96 c 0
 861 108 857 120 856 132 c 1
 855 132 l 1
 852 123 846 115 840 108 c 0
 812 75 763 63 724 84 c 0
 696 100 678 131 670 161 c 0
 668 169 665 177 665 186 c 1
 664 186 l 1
 662 176 657 166 652 157 c 0
 646 144 639 131 630 119 c 0
 589 60 527 17 456 5 c 0
 436 1 415 -1 395 3 c 0
 382 5 370 10 358 17 c 0
 331 33 308 57 288 81 c 0
 265 108 244 137 218 162 c 0
 205 174 190 184 175 194 c 0
 150 208 121 218 92 210 c 0
 79 207 68 201 57 194 c 0
 52 191 46 188 40 192 c 0
 34 196 35 203 39 209 c 0
 49 218 62 225 73 233 c 0
 103 254 135 274 166 294 c 0
 183 304 199 317 217 325 c 1
541 502 m 1
 526 510 510 517 494 522 c 0
 408 548 295 529 252 442 c 0
 244 427 240 412 237 396 c 0
 234 377 234 357 237 338 c 1
 281 363 l 1
 357 407 l 1
 472 467 l 1
 541 501 l 1
 541 502 l 1
118 235 m 1
 141 234 161 226 181 216 c 0
 205 204 228 189 251 173 c 0
 297 142 346 104 402 94 c 0
 424 90 446 91 468 95 c 0
 546 107 622 154 651 231 c 0
 656 247 660 263 662 280 c 0
 664 303 661 328 656 351 c 0
 647 387 631 420 607 448 c 0
 601 455 595 461 589 467 c 0
 586 469 583 473 579 474 c 0
 574 475 569 471 565 470 c 0
 555 466 545 462 535 457 c 0
 508 446 481 434 454 422 c 0
 441 416 427 411 415 403 c 1
 437 399 453 385 464 367 c 0
 484 334 485 291 465 258 c 0
 435 209 363 197 311 214 c 0
 300 218 289 223 279 230 c 0
 260 243 245 261 233 281 c 0
 230 287 227 294 224 301 c 1
 188 280 l 1
 118 236 l 1
 118 235 l 1
404 382 m 0
 398 381 392 380 387 377 c 0
 377 373 368 365 363 355 c 0
 351 327 373 292 404 292 c 0
 411 292 417 294 423 296 c 0
 432 301 441 308 445 317 c 0
 459 346 436 382 404 382 c 0
345 368 m 1
 314 352 l 1
 243 313 l 1
 253 285 271 259 297 244 c 0
 321 231 346 227 373 230 c 0
 399 232 425 242 442 263 c 0
 449 272 453 282 456 293 c 1
 438 279 421 268 397 270 c 0
 367 273 341 302 338 331 c 0
 337 344 340 356 345 368 c 1
953 349 m 0
 921 346 900 319 888 292 c 0
 878 268 873 241 872 215 c 0
 870 183 872 149 883 119 c 0
 895 86 921 52 961 55 c 0
 966 56 972 57 977 59 c 0
 998 68 1008 92 1012 113 c 0
 1019 141 1018 169 1018 197 c 0
 1018 230 1018 263 1011 295 c 0
 1007 316 997 341 975 347 c 0
 968 350 960 349 953 349 c 0
761 321 m 0
 728 318 703 293 692 263 c 0
 679 228 683 184 697 150 c 0
 707 126 725 104 751 97 c 0
 759 95 767 95 775 96 c 0
 803 98 825 119 837 143 c 0
 856 181 852 234 834 272 c 0
 820 301 795 324 761 321 c 0
EndSplineSet
EndChar
StartChar: uni0DAC
Encoding: 3500 3500 40
Width: 740
GlyphClass: 2
Flags: W
Fore
312 354 m 1
 236 354 l 2
 223 354 209 355 196 354 c 0
 182 353 168 349 155 344 c 0
 91 319 45 245 69 177 c 0
 74 166 80 155 87 145 c 0
 144 72 264 77 321 146 c 0
 335 163 344 183 347 205 c 0
 348 213 346 226 357 228 c 0
 363 230 369 225 370 219 c 0
 371 211 371 202 373 194 c 0
 376 177 385 161 396 147 c 0
 432 102 499 81 555 97 c 0
 597 109 627 146 644 184 c 0
 666 233 675 287 676 340 c 0
 677 365 676 390 673 415 c 0
 662 487 628 555 577 607 c 0
 498 686 380 722 271 695 c 0
 238 687 206 674 177 656 c 0
 155 642 134 626 116 608 c 0
 107 599 100 587 90 580 c 0
 81 573 70 580 73 591 c 0
 76 601 86 609 93 616 c 0
 112 638 136 657 161 672 c 0
 271 742 416 744 527 675 c 0
 552 659 577 641 597 619 c 0
 638 574 669 521 686 462 c 0
 694 433 698 403 699 373 c 0
 699 360 698 347 698 334 c 0
 697 284 692 234 680 185 c 0
 669 135 648 81 611 44 c 0
 570 4 505 -12 451 12 c 0
 433 20 418 32 405 46 c 0
 389 63 378 84 369 105 c 0
 365 114 363 124 359 133 c 1
 353 119 349 104 342 90 c 0
 331 66 313 43 292 27 c 0
 244 -9 178 -5 129 26 c 0
 103 43 82 68 67 95 c 0
 35 153 38 222 41 286 c 0
 41 300 41 313 42 327 c 0
 43 335 44 342 44 350 c 0
 44 356 40 361 41 366 c 0
 41 372 46 376 47 381 c 0
 51 398 53 416 57 433 c 0
 65 460 77 489 98 509 c 0
 142 549 210 539 252 503 c 0
 294 466 312 408 312 354 c 1
289 376 m 1
 284 410 273 450 240 468 c 0
 227 474 208 479 195 472 c 0
 189 468 184 463 180 457 c 0
 177 453 175 448 172 444 c 0
 163 425 151 396 125 399 c 0
 122 399 119 400 116 402 c 0
 112 404 108 407 105 410 c 0
 101 415 97 421 95 427 c 0
 91 438 93 448 90 459 c 1
 79 432 73 404 69 376 c 1
 289 376 l 1
92 461 m 1
 92 461 l 1
 92 461 l 1
124 354 m 1
 85 354 l 1
 69 353 l 1
 65 339 l 1
 64 313 l 1
 64 295 l 1
 78 319 99 340 124 353 c 1
 124 354 l 1
EndSplineSet
EndChar
StartChar: uni0DAD
Encoding: 3501 3501 41
Width: 778
GlyphClass: 2
Flags: W
Fore
233 364 m 1
 249 369 264 376 280 379 c 0
 322 389 366 387 406 372 c 0
 433 362 457 346 477 325 c 0
 537 263 545 165 498 93 c 0
 487 77 473 62 458 49 c 0
 446 39 432 30 418 23 c 0
 341 -14 247 -1 172 33 c 0
 153 42 135 53 117 65 c 0
 109 70 103 67 95 62 c 0
 88 58 81 52 73 49 c 0
 67 46 58 44 57 53 c 0
 57 62 61 72 63 80 c 0
 69 98 74 116 81 134 c 0
 104 199 131 262 167 321 c 0
 181 344 196 366 213 387 c 0
 216 391 220 396 224 400 c 0
 227 404 230 407 229 412 c 0
 226 424 220 436 215 446 c 0
 211 453 207 461 201 467 c 0
 198 471 194 474 190 477 c 0
 175 486 159 478 148 466 c 0
 129 444 127 413 110 390 c 0
 95 371 67 366 51 387 c 0
 40 402 39 423 41 441 c 0
 46 482 70 525 113 533 c 0
 120 534 127 535 134 535 c 0
 180 532 212 495 231 456 c 0
 236 446 242 435 245 424 c 1
 251 429 257 435 263 441 c 2
 290 464 l 2
 324 490 362 510 403 522 c 0
 435 531 470 537 503 535 c 0
 525 534 547 530 568 522 c 0
 585 516 601 507 616 497 c 0
 689 447 728 358 736 272 c 0
 738 245 737 219 735 192 c 0
 733 165 729 139 721 113 c 0
 713 85 700 56 679 35 c 0
 653 8 612 -7 575 3 c 0
 563 6 553 11 543 18 c 1
 556 35 l 1
 569 30 580 22 594 22 c 0
 632 21 663 45 681 77 c 0
 705 119 709 171 703 218 c 0
 688 322 619 415 518 448 c 0
 501 454 484 458 466 460 c 0
 438 463 409 461 381 455 c 0
 352 448 325 436 300 421 c 0
 284 411 269 399 255 386 c 0
 247 379 239 372 233 364 c 1
232 364 m 1
 232 362 l 1
 232 362 233 363 233 364 c 1
 232 364 l 1
316 361 m 0
 282 358 249 348 220 330 c 0
 210 324 199 317 191 309 c 0
 183 301 178 290 172 281 c 0
 159 260 148 238 138 216 c 0
 129 198 122 180 115 162 c 0
 113 157 107 147 110 142 c 0
 112 137 120 135 124 133 c 0
 137 126 150 120 164 115 c 0
 223 93 286 86 348 91 c 0
 380 94 412 99 442 110 c 0
 461 118 480 130 492 147 c 0
 511 173 509 208 501 237 c 0
 497 251 492 264 485 276 c 0
 451 335 383 366 316 361 c 0
EndSplineSet
EndChar
StartChar: uni0DAE
Encoding: 3502 3502 42
Width: 676
GlyphClass: 2
Flags: W
Fore
392 743 m 1
 394 743 l 1
 429 700 470 663 504 620 c 0
 581 521 639 396 635 268 c 0
 634 239 628 211 618 184 c 0
 608 159 595 136 578 115 c 0
 510 27 392 -13 283 6 c 0
 239 13 198 31 162 56 c 0
 71 118 19 239 47 348 c 0
 54 372 64 394 77 415 c 0
 89 434 103 450 120 465 c 0
 149 490 186 506 224 511 c 0
 233 513 245 514 254 513 c 0
 260 511 263 507 263 501 c 0
 261 489 246 491 237 491 c 0
 210 488 183 480 160 466 c 0
 101 430 63 362 62 293 c 0
 62 279 63 264 66 250 c 0
 82 187 135 143 193 119 c 0
 278 84 380 83 467 112 c 0
 510 126 552 150 581 186 c 0
 600 210 611 239 613 270 c 0
 614 285 613 299 611 314 c 0
 608 349 600 383 589 416 c 0
 583 435 573 453 568 472 c 1
 553 457 537 446 517 440 c 0
 455 421 384 455 364 518 c 0
 356 543 358 569 360 595 c 0
 364 646 376 694 392 743 c 1
423 674 m 1
 416 665 409 656 404 646 c 0
 391 622 383 596 381 569 c 0
 379 543 384 518 402 499 c 0
 407 494 413 489 419 486 c 0
 450 467 494 469 521 495 c 0
 527 501 532 507 535 514 c 0
 537 517 539 520 539 524 c 0
 539 528 537 531 536 534 c 2
 525 551 l 2
 511 574 495 596 478 617 c 0
 466 631 455 644 442 657 c 0
 436 663 430 670 423 674 c 1
EndSplineSet
EndChar
StartChar: uni0DAF
Encoding: 3503 3503 43
Width: 463
GlyphClass: 2
Flags: W
Fore
379 361 m 1
 376 395 368 429 343 454 c 0
 328 469 306 479 284 474 c 0
 277 472 270 468 264 464 c 0
 241 447 215 410 182 425 c 0
 178 427 174 430 171 433 c 0
 167 437 164 443 162 448 c 0
 160 454 159 461 159 468 c 0
 161 517 217 537 258 535 c 0
 328 532 376 473 393 409 c 0
 398 390 403 367 401 348 c 0
 400 341 396 334 394 328 c 1
 384 331 376 336 366 340 c 0
 352 345 337 348 322 350 c 0
 258 357 185 329 150 273 c 0
 141 259 135 243 132 226 c 0
 130 209 131 192 134 175 c 0
 142 123 173 67 227 51 c 0
 238 48 249 46 260 46 c 0
 297 46 336 55 369 70 c 0
 385 77 399 87 415 95 c 1
 417 90 422 81 421 75 c 0
 420 71 416 68 413 66 c 2
 400 53 l 2
 388 40 377 26 368 11 c 0
 344 -29 332 -74 329 -120 c 0
 327 -147 330 -174 348 -196 c 0
 361 -212 379 -217 397 -225 c 0
 404 -228 411 -231 417 -237 c 0
 424 -245 424 -258 416 -265 c 0
 405 -274 386 -273 373 -271 c 0
 331 -266 295 -236 283 -195 c 0
 276 -172 278 -146 282 -123 c 0
 290 -69 314 -21 345 23 c 1
 309 9 272 1 233 1 c 0
 182 1 131 23 95 59 c 0
 57 97 35 153 41 207 c 0
 42 222 45 237 50 251 c 0
 96 378 265 424 379 361 c 1
345 24 m 1
 345 22 l 1
 345 22 346 23 346 24 c 1
 345 24 l 1
EndSplineSet
EndChar
StartChar: uni0DB0
Encoding: 3504 3504 44
Width: 740
GlyphClass: 2
Flags: W
Fore
359 133 m 1
 355 123 352 114 348 104 c 0
 341 85 331 68 318 52 c 0
 308 40 296 29 282 20 c 0
 242 -5 187 -5 146 18 c 0
 118 33 97 56 81 83 c 0
 65 109 55 139 48 169 c 0
 40 206 37 245 43 282 c 0
 51 337 80 390 124 424 c 0
 153 448 188 463 225 468 c 0
 228 469 230 469 233 469 c 0
 242 470 261 474 263 460 c 0
 264 447 248 448 239 447 c 0
 207 444 177 434 150 416 c 0
 71 361 34 242 86 158 c 0
 101 135 122 114 147 103 c 0
 205 77 280 98 320 145 c 0
 337 165 347 189 348 215 c 0
 348 222 351 229 359 229 c 0
 364 229 368 225 369 220 c 0
 371 216 370 211 371 206 c 0
 372 196 374 186 378 177 c 0
 392 142 423 116 458 103 c 0
 474 97 492 93 509 92 c 0
 522 91 535 92 548 95 c 0
 588 105 617 134 636 169 c 0
 667 224 674 290 677 352 c 0
 678 373 676 394 673 414 c 0
 662 487 629 555 577 607 c 0
 507 678 404 715 305 701 c 0
 245 693 188 669 141 630 c 0
 131 622 122 614 113 605 c 2
 92 581 l 2
 85 575 72 576 72 588 c 0
 73 595 78 600 83 605 c 0
 93 617 104 627 115 638 c 0
 166 683 230 713 297 722 c 0
 405 738 516 700 593 623 c 0
 643 572 677 507 692 437 c 0
 699 402 699 368 698 333 c 0
 697 277 691 219 675 165 c 0
 666 133 653 101 634 73 c 0
 619 50 599 30 574 17 c 0
 527 -7 465 -5 423 29 c 0
 401 47 384 71 373 96 c 0
 367 108 364 121 359 133 c 1
EndSplineSet
EndChar
StartChar: uni0DB1
Encoding: 3505 3505 45
Width: 933
GlyphClass: 2
Flags: W
Fore
331 422 m 1
 327 430 324 438 319 445 c 0
 298 474 254 501 221 474 c 0
 196 454 187 422 168 397 c 0
 153 378 124 363 103 382 c 0
 100 385 97 389 95 393 c 0
 87 408 86 426 88 442 c 0
 95 484 125 519 166 531 c 0
 218 546 279 524 316 486 c 0
 330 472 342 455 348 437 c 1
 374 454 398 471 426 485 c 0
 483 514 547 531 611 534 c 0
 639 535 667 535 695 528 c 0
 729 519 761 503 788 481 c 0
 810 464 828 444 844 421 c 0
 863 393 878 362 887 329 c 0
 898 289 901 247 898 206 c 0
 893 143 878 73 828 29 c 0
 806 10 770 -6 740 3 c 0
 730 5 721 11 713 18 c 1
 713 19 l 1
 727 35 l 1
 728 35 l 1
 734 29 741 25 750 23 c 0
 757 21 764 23 771 25 c 0
 785 28 798 35 810 44 c 0
 855 80 867 142 865 196 c 0
 863 233 853 270 836 303 c 0
 822 331 803 358 780 380 c 0
 763 396 745 410 725 422 c 0
 643 470 542 471 453 440 c 0
 428 431 404 420 381 407 c 0
 367 399 355 390 341 382 c 1
 341 381 l 1
 351 382 361 384 371 385 c 0
 397 386 423 383 447 374 c 0
 479 361 508 339 528 311 c 0
 564 260 572 190 545 133 c 0
 523 85 479 51 431 30 c 0
 331 -14 212 -8 119 50 c 0
 96 64 76 82 58 101 c 0
 54 105 50 110 46 115 c 0
 44 118 42 121 42 124 c 0
 42 127 44 129 45 131 c 0
 47 134 48 138 51 139 c 0
 56 142 64 138 69 137 c 0
 84 134 99 134 114 135 c 0
 119 136 127 136 131 141 c 0
 133 143 134 148 136 151 c 0
 138 157 141 164 144 170 c 0
 151 188 160 206 169 223 c 0
 198 278 234 329 277 373 c 0
 288 384 299 396 311 406 c 0
 317 412 324 418 331 422 c 1
340 381 m 1
 340 381 l 1
 340 381 l 1
156 141 m 1
 195 113 237 92 285 85 c 0
 321 79 359 80 395 85 c 0
 434 91 475 104 505 130 c 0
 512 136 517 143 522 150 c 0
 537 171 540 196 538 221 c 0
 534 262 514 301 482 328 c 0
 433 368 366 372 309 347 c 0
 300 343 291 339 284 333 c 0
 278 328 273 322 268 317 c 0
 253 302 240 285 228 268 c 0
 199 229 174 186 156 141 c 1
EndSplineSet
EndChar
StartChar: uni0DB3
Encoding: 3507 3507 46
Width: 463
GlyphClass: 2
Flags: W
Fore
345 23 m 1
 314 11 281 2 247 1 c 0
 222 1 198 3 174 11 c 0
 155 17 137 26 121 37 c 0
 88 61 62 94 50 132 c 0
 39 163 40 194 41 226 c 0
 43 266 48 307 59 346 c 0
 74 404 101 465 151 502 c 0
 191 531 246 545 294 528 c 0
 349 509 383 456 395 401 c 0
 399 384 403 365 401 348 c 0
 400 341 396 334 394 328 c 1
 384 331 376 336 366 340 c 0
 352 345 337 348 322 350 c 0
 258 357 185 329 150 273 c 0
 141 259 135 243 132 226 c 0
 130 210 131 194 133 178 c 0
 141 125 172 67 227 51 c 0
 238 48 249 46 260 46 c 0
 297 46 336 55 370 70 c 0
 386 77 400 87 415 95 c 1
 417 90 422 81 421 75 c 0
 420 71 416 68 413 66 c 2
 400 53 l 2
 388 40 377 26 368 11 c 0
 344 -29 332 -74 329 -120 c 0
 327 -148 330 -176 349 -198 c 0
 362 -213 380 -218 397 -225 c 0
 404 -228 411 -231 417 -237 c 0
 424 -245 425 -258 416 -265 c 0
 405 -274 386 -273 373 -271 c 0
 331 -266 295 -236 283 -195 c 0
 276 -172 278 -146 282 -123 c 0
 290 -69 314 -21 345 23 c 1
161 481 m 1
 145 470 132 453 121 437 c 0
 102 408 90 376 81 343 c 0
 76 326 72 308 70 291 c 1
 71 291 l 1
 113 356 197 393 274 389 c 0
 301 387 327 382 352 373 c 0
 361 370 370 365 379 361 c 1
 379 368 378 376 376 383 c 0
 370 423 347 473 300 475 c 0
 293 475 287 475 280 473 c 0
 252 464 237 432 208 424 c 0
 186 418 166 433 161 454 c 0
 158 463 159 472 161 481 c 1
345 24 m 1
 345 22 l 1
 345 22 346 23 346 24 c 1
 345 24 l 1
EndSplineSet
EndChar
StartChar: uni0DB4
Encoding: 3508 3508 47
Width: 676
GlyphClass: 2
Flags: W
Fore
289 376 m 1
 283 410 273 446 242 466 c 0
 230 473 212 479 198 473 c 0
 191 470 185 463 180 457 c 0
 166 437 158 396 126 399 c 0
 122 399 118 400 115 402 c 0
 111 404 107 407 104 411 c 0
 99 417 96 423 94 430 c 0
 82 468 104 516 142 530 c 0
 165 539 191 535 213 526 c 0
 281 500 312 422 312 354 c 1
 237 354 l 2
 223 354 210 355 196 354 c 0
 178 352 159 347 143 339 c 0
 103 319 73 281 65 238 c 0
 60 214 62 189 75 167 c 0
 81 158 88 150 96 142 c 0
 121 120 155 110 187 103 c 0
 247 91 307 92 368 92 c 0
 413 92 459 96 503 107 c 0
 528 113 553 122 573 137 c 0
 583 145 591 154 598 164 c 0
 627 208 611 269 578 306 c 0
 564 321 546 333 527 342 c 0
 500 354 471 354 442 354 c 2
 363 354 l 1
 363 385 364 414 375 443 c 0
 384 465 396 484 413 500 c 0
 446 532 510 552 547 515 c 0
 570 492 578 457 581 425 c 0
 583 411 584 395 576 383 c 0
 568 370 553 364 539 360 c 1
 565 345 587 328 604 304 c 0
 637 258 645 194 623 142 c 0
 610 111 588 86 562 66 c 0
 530 42 493 26 455 16 c 0
 383 -3 305 -4 232 13 c 0
 176 26 118 52 80 97 c 0
 34 151 26 233 63 294 c 0
 74 313 89 329 106 342 c 0
 131 361 160 372 191 376 c 0
 202 377 214 376 226 376 c 2
 289 376 l 1
385 376 m 1
 460 376 l 2
 476 376 492 376 507 377 c 0
 522 378 540 379 552 389 c 0
 571 404 554 432 539 443 c 0
 527 451 513 455 499 457 c 0
 456 463 402 443 388 398 c 0
 386 391 385 383 385 376 c 1
EndSplineSet
EndChar
StartChar: uni0DB5
Encoding: 3509 3509 48
Width: 676
GlyphClass: 2
Flags: W
Fore
392 743 m 1
 394 743 l 1
 428 701 468 665 502 622 c 0
 569 537 620 433 633 325 c 0
 637 289 636 252 628 217 c 0
 622 191 611 165 597 142 c 0
 585 123 571 105 555 89 c 0
 539 73 521 59 502 47 c 0
 406 -13 280 -10 177 30 c 0
 132 48 89 78 63 120 c 0
 20 191 38 289 103 340 c 0
 128 360 159 372 191 376 c 0
 202 377 214 376 226 376 c 2
 289 376 l 1
 283 410 273 446 242 466 c 0
 230 473 212 479 198 473 c 0
 191 470 185 463 180 457 c 0
 166 437 158 396 126 399 c 0
 122 399 118 400 115 402 c 0
 111 404 107 407 104 411 c 0
 99 417 96 423 94 430 c 0
 82 468 104 516 142 530 c 0
 165 539 191 535 213 526 c 0
 281 500 312 422 312 354 c 1
 235 354 l 2
 218 354 202 355 185 352 c 0
 127 343 78 298 65 241 c 0
 60 216 62 189 75 167 c 0
 81 157 88 149 97 142 c 0
 133 111 184 102 229 97 c 0
 261 93 292 92 324 92 c 0
 390 92 458 100 517 134 c 0
 569 163 611 211 613 273 c 0
 614 321 604 370 589 416 c 0
 583 435 573 453 568 472 c 1
 553 457 537 446 517 440 c 0
 455 421 384 455 364 518 c 0
 356 543 358 569 360 595 c 0
 364 646 376 694 392 743 c 1
423 674 m 1
 416 665 409 656 404 646 c 0
 391 622 383 596 381 569 c 0
 379 543 384 518 402 499 c 0
 407 494 413 489 419 486 c 0
 450 467 494 469 521 495 c 0
 527 501 532 507 535 514 c 0
 537 517 539 520 539 524 c 0
 539 528 537 531 536 534 c 2
 525 551 l 2
 511 574 495 596 478 617 c 0
 466 631 455 644 442 657 c 0
 436 663 430 670 423 674 c 1
EndSplineSet
EndChar
StartChar: uni0DB6
Encoding: 3510 3510 49
Width: 714
GlyphClass: 2
Flags: W
Fore
113 54 m 1
 110 69 110 86 115 101 c 0
 119 114 127 126 138 134 c 0
 163 154 203 154 229 135 c 0
 258 115 265 75 252 43 c 0
 247 32 240 22 230 15 c 0
 219 7 206 3 193 1 c 0
 183 0 172 1 162 3 c 0
 93 17 57 87 46 151 c 0
 44 162 42 174 41 185 c 0
 39 226 42 266 57 305 c 0
 82 371 136 424 204 444 c 0
 226 451 249 453 272 453 c 0
 373 451 457 373 482 278 c 0
 487 260 490 242 490 223 c 0
 490 209 490 196 484 182 c 0
 472 152 446 131 418 118 c 0
 405 111 387 108 376 98 c 1
 375 96 373 95 372 93 c 0
 364 79 383 66 395 63 c 0
 402 61 409 61 416 61 c 0
 435 61 455 65 473 71 c 0
 562 101 614 190 637 276 c 0
 653 337 657 405 642 466 c 0
 611 587 505 675 384 698 c 0
 306 713 225 699 155 662 c 0
 132 649 113 634 93 618 c 0
 90 616 87 614 83 613 c 0
 76 613 71 619 73 626 c 0
 74 630 77 634 80 637 c 0
 86 642 92 647 98 651 c 0
 124 671 153 688 184 700 c 0
 316 753 475 723 577 622 c 0
 626 574 659 509 670 441 c 0
 676 401 674 359 670 319 c 0
 665 263 655 208 635 155 c 0
 612 95 572 37 510 13 c 0
 497 8 484 5 470 3 c 0
 457 1 443 0 430 2 c 0
 394 7 361 29 351 65 c 0
 348 76 346 90 351 101 c 0
 360 121 383 127 402 135 c 0
 431 148 463 171 468 205 c 0
 469 215 468 226 466 236 c 0
 454 302 391 338 331 353 c 0
 268 369 195 362 138 330 c 0
 109 313 83 289 70 257 c 0
 57 223 61 185 68 150 c 0
 73 127 80 103 92 83 c 0
 98 73 105 63 113 54 c 1
179 127 m 0
 166 126 154 121 145 111 c 0
 125 88 129 45 157 30 c 0
 167 24 179 22 190 23 c 0
 204 25 216 30 225 41 c 0
 244 64 239 103 214 119 c 0
 204 126 191 128 179 127 c 0
EndSplineSet
EndChar
StartChar: uni0DB7
Encoding: 3511 3511 50
Width: 786
GlyphClass: 2
Flags: W
Fore
231 376 m 1
 229 403 227 433 210 456 c 0
 198 473 175 482 156 472 c 0
 131 458 124 426 103 408 c 0
 81 390 47 402 42 431 c 0
 34 473 64 518 103 531 c 0
 127 538 154 535 176 524 c 0
 197 513 212 496 224 476 c 0
 245 439 253 396 253 354 c 1
 210 354 167 340 135 312 c 0
 112 291 94 262 86 232 c 0
 79 203 76 174 96 148 c 0
 113 125 139 113 165 105 c 0
 197 95 232 92 265 92 c 0
 298 92 330 94 362 103 c 0
 394 111 428 128 441 160 c 0
 458 202 430 252 386 262 c 0
 365 266 349 260 330 252 c 1
 336 280 345 307 354 334 c 0
 363 361 373 389 386 415 c 0
 404 453 427 490 463 513 c 0
 514 546 581 539 631 508 c 0
 654 494 674 474 690 452 c 0
 717 414 733 369 741 323 c 0
 753 252 744 178 708 115 c 0
 678 63 630 22 572 7 c 0
 560 4 548 3 536 2 c 0
 530 1 523 0 517 2 c 0
 509 6 508 17 516 21 c 0
 520 23 525 23 530 23 c 0
 536 23 543 24 549 25 c 0
 643 41 705 126 720 215 c 0
 727 255 725 294 709 331 c 0
 682 391 620 430 557 441 c 0
 523 447 490 445 460 428 c 0
 427 409 403 376 386 343 c 0
 383 336 379 329 376 322 c 0
 375 319 373 315 373 311 c 0
 373 307 379 306 383 305 c 0
 393 301 403 297 412 291 c 0
 437 275 456 250 464 221 c 0
 468 204 469 186 467 169 c 0
 466 156 463 144 459 132 c 0
 424 36 310 -13 213 4 c 0
 155 15 102 49 75 102 c 0
 62 127 58 153 58 181 c 0
 58 196 59 210 61 224 c 0
 69 261 87 296 114 323 c 0
 126 335 139 346 154 353 c 1
 154 354 l 1
 61 354 l 2
 56 354 51 354 47 356 c 0
 42 359 40 366 43 372 c 1
 47 376 53 376 58 376 c 2
 91 376 l 1
 231 376 l 1
EndSplineSet
EndChar
StartChar: uni0DB8
Encoding: 3512 3512 51
Width: 718
GlyphClass: 2
Flags: W
Fore
157 467 m 1
 147 465 137 462 128 457 c 0
 95 438 79 400 70 364 c 0
 62 332 59 297 65 265 c 0
 77 201 127 152 184 125 c 0
 248 95 322 85 392 96 c 0
 449 105 505 126 551 162 c 0
 582 186 609 215 627 250 c 0
 654 300 660 356 652 411 c 0
 642 479 614 543 568 594 c 0
 522 645 461 681 394 696 c 0
 376 700 359 702 341 703 c 0
 274 709 204 687 148 651 c 0
 135 642 122 632 110 622 c 0
 103 616 97 608 89 603 c 0
 81 598 69 605 73 615 c 0
 76 623 85 630 91 635 c 0
 106 649 123 662 140 673 c 0
 218 722 315 738 405 717 c 0
 438 709 470 696 499 679 c 0
 591 626 654 531 672 427 c 0
 680 382 679 335 671 290 c 0
 651 183 581 84 483 35 c 0
 437 13 387 1 336 1 c 0
 308 1 280 5 253 13 c 0
 223 22 194 35 168 53 c 0
 137 74 112 101 90 131 c 0
 52 186 36 254 41 320 c 0
 43 350 48 379 60 406 c 0
 75 443 103 478 144 487 c 0
 152 489 160 490 168 489 c 0
 182 487 178 471 179 461 c 0
 183 431 191 402 207 376 c 0
 238 326 292 296 350 300 c 0
 367 301 384 306 398 315 c 0
 439 341 453 394 435 438 c 1
 435 424 432 411 426 399 c 0
 406 357 346 346 310 375 c 0
 285 394 277 429 286 459 c 0
 288 467 292 474 296 481 c 0
 324 521 386 518 422 491 c 0
 466 458 475 395 454 346 c 0
 423 276 332 262 268 292 c 0
 203 323 157 394 157 467 c 1
350 489 m 0
 309 485 292 434 314 402 c 0
 326 386 346 379 365 381 c 0
 376 382 387 386 396 394 c 0
 416 413 418 450 400 471 c 0
 388 486 369 490 350 489 c 0
EndSplineSet
EndChar
StartChar: uni0DB9
Encoding: 3513 3513 52
Width: 718
GlyphClass: 2
Flags: W
Fore
158 456 m 1
 141 444 126 426 113 409 c 0
 73 354 52 279 66 212 c 0
 79 153 125 97 189 92 c 0
 208 91 228 93 246 98 c 0
 252 100 261 102 265 106 c 0
 269 110 268 118 268 123 c 0
 269 133 272 143 276 152 c 0
 292 189 334 206 373 202 c 0
 406 197 435 175 445 143 c 0
 448 136 449 128 450 121 c 0
 450 117 449 111 452 107 c 0
 456 102 466 100 472 98 c 0
 491 93 513 90 533 93 c 0
 543 94 553 96 562 99 c 0
 626 123 655 196 667 259 c 2
 673 294 l 2
 675 309 676 325 676 340 c 0
 677 360 677 380 675 400 c 0
 669 450 653 500 627 543 c 0
 578 624 494 684 400 699 c 0
 369 704 339 705 308 702 c 0
 268 697 230 685 195 666 c 0
 167 652 141 632 118 610 c 0
 111 604 106 597 100 590 c 0
 96 586 93 582 89 579 c 0
 79 572 69 583 74 593 c 0
 78 602 86 609 93 616 c 0
 113 638 137 658 163 674 c 0
 284 749 444 741 557 654 c 0
 630 598 681 513 695 421 c 0
 699 392 699 363 698 334 c 0
 697 302 695 270 690 238 c 0
 688 225 686 211 683 198 c 0
 667 120 630 30 545 6 c 0
 509 -4 469 0 437 19 c 0
 430 24 423 29 417 34 c 0
 414 37 411 39 410 43 c 0
 409 48 412 53 414 57 c 0
 419 67 426 78 428 89 c 2
 428 105 l 2
 428 119 427 133 420 146 c 0
 405 174 370 186 340 178 c 0
 320 172 302 159 295 139 c 0
 291 128 290 117 290 106 c 0
 290 99 289 92 291 86 c 0
 294 76 300 66 304 56 c 0
 306 51 310 46 307 41 c 0
 304 36 299 33 295 29 c 0
 284 21 272 14 259 9 c 0
 216 -7 166 2 129 29 c 0
 109 44 94 63 81 84 c 0
 64 115 53 148 46 183 c 0
 39 223 37 265 44 305 c 0
 51 342 66 378 86 410 c 0
 101 433 121 455 142 473 c 0
 149 479 158 489 168 489 c 0
 181 488 179 472 179 463 c 0
 182 433 190 405 205 379 c 0
 227 343 261 314 302 304 c 0
 317 300 333 299 349 300 c 0
 366 301 384 306 398 315 c 0
 439 341 453 394 435 438 c 1
 435 424 432 411 426 399 c 0
 406 357 346 346 310 375 c 0
 285 394 277 429 286 459 c 0
 288 467 292 474 296 481 c 0
 324 521 386 518 422 491 c 0
 465 458 475 395 454 347 c 0
 451 338 446 330 439 322 c 0
 401 274 329 268 275 289 c 0
 226 309 191 350 171 398 c 0
 164 416 158 436 158 456 c 1
350 489 m 0
 309 485 292 434 314 402 c 0
 326 386 346 379 365 381 c 0
 376 382 387 386 396 394 c 0
 416 413 418 450 400 471 c 0
 388 486 369 490 350 489 c 0
EndSplineSet
EndChar
StartChar: uni0DBA
Encoding: 3514 3514 53
Width: 718
GlyphClass: 2
Flags: W
Fore
405 354 m 1
 405 384 407 414 418 443 c 0
 426 464 439 485 456 501 c 0
 489 531 549 552 586 518 c 0
 612 494 622 455 624 421 c 0
 625 407 626 394 618 382 c 0
 610 369 595 364 581 360 c 1
 606 346 627 330 644 307 c 0
 693 241 685 146 642 80 c 0
 627 57 607 37 583 23 c 0
 543 -1 491 -7 448 13 c 0
 432 21 419 32 407 44 c 0
 390 61 378 83 369 105 c 0
 365 114 363 124 359 133 c 1
 355 123 352 113 348 103 c 0
 339 82 327 61 311 44 c 0
 299 32 286 21 271 14 c 0
 215 -14 146 5 105 50 c 0
 62 98 42 167 40 231 c 0
 39 260 42 288 51 316 c 0
 67 369 104 416 152 444 c 0
 178 458 206 467 235 469 c 0
 244 470 261 473 263 460 c 0
 263 458 263 457 262 455 c 0
 259 447 250 448 243 448 c 0
 225 446 207 443 190 437 c 0
 146 420 109 386 87 345 c 0
 53 281 51 198 99 140 c 0
 107 130 117 121 128 114 c 0
 140 106 153 100 167 96 c 0
 183 92 199 91 215 93 c 0
 234 95 252 99 269 107 c 0
 302 122 330 148 342 182 c 0
 345 190 347 199 348 208 c 0
 348 212 347 217 349 221 c 0
 350 225 354 229 359 229 c 0
 370 229 370 218 370 210 c 0
 372 186 382 163 397 145 c 0
 457 76 578 72 633 149 c 0
 640 159 646 170 650 182 c 0
 672 250 627 320 563 344 c 0
 550 349 536 353 522 354 c 0
 509 355 496 354 483 354 c 2
 405 354 l 1
427 376 m 1
 503 376 l 2
 518 376 533 376 548 377 c 0
 561 378 575 379 587 385 c 0
 595 388 602 394 603 403 c 0
 603 407 602 410 602 414 c 0
 601 418 599 422 597 426 c 0
 594 431 591 436 586 439 c 0
 573 450 557 455 541 457 c 0
 507 461 467 450 445 423 c 0
 437 414 432 403 429 392 c 0
 428 387 428 381 427 376 c 1
EndSplineSet
EndChar
StartChar: uni0DBB
Encoding: 3515 3515 54
Width: 603
GlyphClass: 2
Flags: W
Fore
551 740 m 1
 591 699 l 1
 591 698 l 1
 570 677 549 658 525 642 c 0
 466 600 399 573 333 543 c 0
 311 533 289 523 267 512 c 0
 255 506 244 499 232 494 c 1
 232 493 l 1
 256 498 280 502 304 503 c 0
 376 505 452 481 504 430 c 0
 516 418 526 404 535 390 c 0
 559 350 566 304 561 258 c 0
 553 172 504 91 431 45 c 0
 356 -2 258 -14 175 21 c 0
 148 33 124 50 103 70 c 0
 30 142 10 258 50 351 c 0
 61 376 77 399 96 419 c 0
 104 427 113 434 122 442 c 0
 147 465 172 486 200 505 c 0
 283 563 376 604 459 662 c 0
 492 685 522 711 551 740 c 1
230 493 m 1
 230 491 l 1
 230 491 231 492 231 493 c 1
 230 493 l 1
289 477 m 0
 236 472 182 457 139 425 c 0
 132 420 126 413 120 407 c 0
 116 403 111 400 107 396 c 0
 95 383 86 368 78 353 c 0
 33 264 62 143 153 96 c 0
 186 78 223 76 260 78 c 0
 355 85 452 136 493 225 c 0
 501 243 506 263 508 283 c 0
 510 305 509 327 504 348 c 0
 478 438 377 484 289 477 c 0
EndSplineSet
EndChar
StartChar: uni0DBD
Encoding: 3517 3517 55
Width: 782
GlyphClass: 2
Flags: W
Fore
478 285 m 1
 483 265 487 247 500 230 c 0
 507 221 515 213 525 207 c 0
 567 181 618 198 643 238 c 0
 669 280 663 334 630 370 c 0
 592 411 531 426 477 429 c 0
 358 436 228 389 160 287 c 0
 141 258 128 225 123 191 c 0
 119 169 120 147 121 125 c 0
 123 89 129 54 139 20 c 0
 162 -57 208 -132 277 -176 c 0
 308 -196 343 -208 379 -213 c 0
 426 -220 477 -213 523 -200 c 0
 568 -187 611 -166 646 -136 c 0
 677 -109 701 -74 712 -34 c 0
 715 -22 717 -10 719 3 c 0
 719 9 718 17 721 23 c 0
 725 30 735 31 739 24 c 0
 742 19 741 12 741 7 c 0
 741 -10 738 -27 733 -43 c 0
 703 -151 597 -212 495 -237 c 0
 478 -241 460 -244 443 -246 c 0
 418 -250 392 -252 367 -251 c 0
 316 -248 266 -236 221 -211 c 0
 89 -139 19 22 45 169 c 0
 51 199 60 229 74 257 c 0
 92 292 114 325 142 353 c 0
 226 438 347 474 465 463 c 0
 513 459 561 446 603 422 c 0
 631 406 657 382 671 351 c 0
 679 332 683 309 682 288 c 0
 680 266 674 244 662 225 c 0
 654 213 644 202 632 193 c 0
 622 186 610 180 598 176 c 0
 587 173 576 172 565 172 c 0
 505 175 460 227 456 285 c 1
 403 285 l 1
 362 285 l 2
 355 285 347 284 340 285 c 0
 332 286 325 294 330 302 c 0
 334 308 342 307 348 307 c 2
 391 307 l 1
 542 307 l 1
 582 307 l 2
 588 307 595 308 600 305 c 0
 606 301 606 292 600 287 c 0
 596 285 591 285 587 285 c 2
 478 285 l 1
EndSplineSet
EndChar
StartChar: uni0DC0
Encoding: 3520 3520 56
Width: 718
GlyphClass: 2
Flags: W
Fore
312 354 m 1
 237 354 l 2
 223 354 210 355 196 354 c 0
 179 352 162 347 146 340 c 0
 87 313 41 236 72 173 c 0
 76 165 81 157 87 151 c 0
 109 128 140 115 170 107 c 0
 217 96 267 92 315 92 c 0
 329 92 342 91 356 92 c 0
 402 95 446 105 488 124 c 0
 522 140 554 161 581 188 c 0
 599 206 615 227 627 250 c 0
 678 346 656 469 597 556 c 0
 582 579 563 600 543 619 c 0
 459 697 334 724 225 688 c 0
 180 673 139 648 104 617 c 0
 98 611 92 602 84 601 c 0
 73 599 69 612 75 619 c 0
 81 628 91 636 100 643 c 0
 121 661 144 676 169 689 c 0
 192 700 216 710 241 716 c 0
 351 742 468 714 553 640 c 0
 577 620 598 595 616 569 c 0
 644 526 664 477 673 426 c 0
 691 317 660 200 586 116 c 0
 562 88 533 64 501 45 c 0
 444 12 377 -3 311 2 c 0
 237 7 160 25 102 75 c 0
 80 93 62 117 51 144 c 0
 28 201 39 270 79 317 c 0
 92 332 107 344 124 354 c 0
 145 366 168 373 191 376 c 0
 202 377 214 376 226 376 c 2
 289 376 l 1
 283 410 273 446 242 466 c 0
 230 473 212 479 198 473 c 0
 191 470 185 463 180 457 c 0
 166 437 158 396 126 399 c 0
 122 399 118 400 115 402 c 0
 111 404 107 407 104 411 c 0
 99 417 96 423 94 430 c 0
 82 468 104 516 142 530 c 0
 165 539 191 535 213 526 c 0
 281 500 312 422 312 354 c 1
EndSplineSet
EndChar
StartChar: uni0DC1
Encoding: 3521 3521 57
Width: 714
GlyphClass: 2
Flags: W
Fore
647 177 m 1
 647 195 650 214 651 232 c 0
 653 270 650 308 631 341 c 0
 601 396 545 431 484 441 c 0
 458 445 432 446 407 437 c 0
 378 426 353 404 335 379 c 0
 324 363 314 347 306 329 c 0
 304 324 298 315 300 310 c 0
 302 305 310 305 314 303 c 0
 325 299 335 294 345 287 c 0
 373 267 391 235 395 201 c 0
 396 184 395 167 392 150 c 0
 383 88 347 23 283 5 c 0
 252 -3 218 1 188 12 c 0
 166 20 146 32 129 48 c 0
 95 77 72 119 58 161 c 0
 29 249 34 348 83 428 c 0
 113 477 161 515 217 529 c 0
 229 532 241 534 254 535 c 0
 260 535 267 536 272 532 c 0
 278 527 276 516 268 514 c 0
 264 512 259 513 255 513 c 0
 245 512 236 511 226 509 c 0
 197 502 169 487 146 468 c 0
 131 455 119 441 107 425 c 0
 55 350 40 233 106 161 c 0
 117 149 129 138 142 129 c 0
 152 123 162 117 173 112 c 0
 226 88 296 79 343 121 c 0
 350 128 356 135 361 143 c 0
 383 181 374 230 335 253 c 0
 328 257 321 260 313 262 c 0
 292 266 276 260 257 252 c 1
 262 274 269 295 276 316 c 0
 287 353 300 390 318 425 c 0
 335 459 358 493 391 514 c 0
 442 546 508 539 558 508 c 0
 580 494 600 475 615 454 c 0
 663 389 675 308 673 229 c 0
 672 183 666 134 649 90 c 0
 642 71 633 52 619 37 c 0
 588 4 536 -12 495 13 c 0
 486 18 478 25 472 33 c 0
 464 42 459 53 455 64 c 0
 451 75 450 87 450 99 c 0
 450 111 452 122 456 133 c 0
 460 144 466 154 473 163 c 0
 515 215 597 222 647 177 c 1
555 185 m 0
 516 181 481 152 474 113 c 0
 466 77 484 35 521 25 c 0
 529 23 537 23 545 23 c 0
 554 24 563 26 572 30 c 0
 605 43 623 78 633 111 c 0
 636 120 638 129 640 138 c 0
 641 142 642 147 641 151 c 0
 638 158 629 164 623 168 c 0
 603 182 579 187 555 185 c 0
EndSplineSet
EndChar
StartChar: uni0DC2
Encoding: 3522 3522 58
Width: 676
GlyphClass: 2
Flags: W
Fore
289 376 m 1
 283 410 273 446 242 466 c 0
 230 473 212 479 198 473 c 0
 191 470 185 463 180 457 c 0
 166 437 158 396 126 399 c 0
 122 399 118 400 115 402 c 0
 111 404 107 407 104 411 c 0
 99 417 96 423 94 430 c 0
 82 468 104 516 142 530 c 0
 165 539 191 535 213 526 c 0
 281 500 312 422 312 354 c 1
 237 354 l 2
 223 354 210 355 196 354 c 0
 178 352 159 347 143 339 c 0
 82 309 36 223 79 161 c 0
 85 152 93 145 101 138 c 0
 122 122 147 113 173 107 c 0
 214 96 258 93 300 92 c 0
 363 91 427 91 489 104 c 0
 522 110 556 121 581 144 c 0
 589 152 596 160 602 170 c 0
 625 214 610 270 578 306 c 0
 565 320 549 331 532 339 c 0
 517 347 499 352 482 353 c 1
 489 325 479 297 457 279 c 1
 457 278 l 1
 487 259 498 219 479 189 c 0
 472 179 463 171 452 165 c 0
 422 149 386 148 353 147 c 0
 315 146 275 146 239 158 c 0
 225 163 212 170 202 180 c 0
 186 198 181 227 191 249 c 0
 202 273 226 285 250 291 c 0
 294 302 341 301 386 298 c 0
 396 297 406 295 416 293 c 0
 421 292 427 290 433 291 c 0
 439 292 443 296 447 300 c 0
 456 310 462 322 462 336 c 0
 462 342 460 348 459 354 c 1
 363 354 l 1
 363 385 364 414 375 443 c 0
 384 465 396 484 413 500 c 0
 446 532 510 552 547 515 c 0
 570 492 578 457 581 425 c 0
 583 411 584 395 576 383 c 0
 568 370 553 364 539 360 c 1
 565 345 587 328 604 304 c 0
 637 258 645 194 623 142 c 0
 610 111 588 86 562 66 c 0
 530 42 493 26 455 16 c 0
 383 -3 305 -4 232 13 c 0
 176 26 118 52 80 97 c 0
 34 151 26 233 63 294 c 0
 74 313 89 329 106 342 c 0
 131 361 160 372 191 376 c 0
 202 377 214 376 226 376 c 2
 289 376 l 1
385 376 m 1
 460 376 l 2
 476 376 492 376 507 377 c 0
 522 378 540 379 552 389 c 0
 571 404 554 432 539 443 c 0
 527 451 513 455 499 457 c 0
 456 463 402 443 388 398 c 0
 386 391 385 383 385 376 c 1
319 278 m 0
 288 275 253 276 226 258 c 0
 203 241 202 206 225 189 c 0
 239 179 258 175 275 172 c 0
 310 167 347 167 382 170 c 0
 405 172 431 176 450 190 c 0
 471 206 471 240 450 256 c 0
 439 265 425 269 411 272 c 0
 394 275 378 276 361 277 c 0
 347 278 333 279 319 278 c 0
EndSplineSet
EndChar
StartChar: uni0DC3
Encoding: 3523 3523 59
Width: 718
GlyphClass: 2
Flags: W
Fore
289 376 m 1
 283 410 273 446 242 466 c 0
 230 473 212 479 198 473 c 0
 191 470 185 463 180 457 c 0
 166 437 158 396 126 399 c 0
 122 399 118 400 115 402 c 0
 111 404 107 407 104 411 c 0
 99 417 96 423 94 430 c 0
 82 468 104 516 142 530 c 0
 165 539 191 535 213 526 c 0
 281 500 312 422 312 354 c 1
 239 354 l 2
 224 354 209 355 195 354 c 0
 171 351 147 343 127 329 c 0
 78 297 47 230 71 173 c 0
 78 157 88 143 100 131 c 0
 111 121 123 112 137 105 c 0
 199 78 280 94 323 148 c 0
 339 168 346 191 348 216 c 0
 348 222 352 229 359 229 c 0
 365 229 369 224 370 218 c 0
 371 210 371 203 373 195 c 0
 375 181 381 168 389 156 c 0
 415 117 463 94 510 92 c 0
 570 90 630 122 650 181 c 0
 654 195 655 209 655 224 c 0
 655 238 652 251 647 264 c 0
 641 278 633 292 623 303 c 0
 602 327 574 343 543 350 c 0
 523 355 504 354 484 354 c 2
 405 354 l 1
 405 384 407 414 418 443 c 0
 426 464 439 485 456 501 c 0
 489 531 549 552 586 518 c 0
 612 494 622 455 624 421 c 0
 625 407 626 394 618 382 c 0
 610 369 595 364 581 360 c 1
 606 346 627 330 644 307 c 0
 693 241 685 146 642 80 c 0
 627 57 607 37 583 23 c 0
 543 -1 491 -7 448 13 c 0
 432 21 419 32 407 44 c 0
 390 61 378 83 369 105 c 0
 365 114 363 124 359 133 c 1
 355 123 352 113 348 103 c 0
 338 80 325 59 308 41 c 0
 294 27 277 15 258 8 c 0
 243 3 227 1 211 1 c 0
 197 1 184 3 171 7 c 0
 159 10 147 15 136 22 c 0
 70 60 40 137 40 210 c 0
 40 256 59 301 93 332 c 0
 102 340 112 348 124 353 c 1
 124 354 l 1
 78 354 l 2
 70 354 61 353 53 354 c 0
 44 355 36 364 44 372 c 0
 48 377 56 376 62 376 c 2
 107 376 l 1
 289 376 l 1
427 376 m 1
 503 376 l 2
 518 376 533 376 548 377 c 0
 561 378 575 379 587 385 c 0
 595 388 602 394 603 403 c 0
 603 407 602 410 602 414 c 0
 601 418 599 422 597 426 c 0
 594 431 591 436 586 439 c 0
 573 450 557 455 541 457 c 0
 507 461 467 450 445 423 c 0
 437 414 432 403 429 392 c 0
 428 387 428 381 427 376 c 1
EndSplineSet
EndChar
StartChar: uni0DC4
Encoding: 3524 3524 60
Width: 786
GlyphClass: 2
Flags: W
Fore
231 376 m 1
 230 392 228 408 225 423 c 0
 222 433 219 443 213 452 c 0
 209 458 204 464 198 468 c 0
 193 472 188 474 182 475 c 0
 163 479 148 469 138 453 c 0
 126 431 123 403 105 384 c 0
 92 371 70 369 56 382 c 0
 49 390 45 400 42 410 c 0
 40 421 41 433 42 444 c 0
 47 480 66 516 101 529 c 0
 125 539 154 535 177 523 c 0
 197 512 213 495 224 475 c 0
 246 439 253 396 253 354 c 1
 210 354 167 340 135 312 c 0
 112 291 94 262 86 232 c 0
 79 203 76 174 96 148 c 0
 113 125 139 113 165 105 c 0
 197 95 232 92 265 92 c 0
 298 92 330 94 362 103 c 0
 394 111 428 128 441 160 c 0
 458 202 430 252 386 262 c 0
 365 266 349 260 330 252 c 1
 336 279 345 306 354 333 c 0
 363 361 373 389 386 416 c 0
 405 453 427 490 463 513 c 0
 514 546 581 539 631 508 c 0
 654 494 673 475 689 453 c 0
 712 421 728 384 737 345 c 0
 755 269 748 188 710 119 c 0
 681 66 632 23 572 7 c 0
 559 4 547 3 534 1 c 0
 529 1 521 0 516 3 c 0
 508 7 509 19 518 22 c 0
 523 24 528 23 533 23 c 0
 543 24 552 25 562 28 c 0
 596 36 626 54 651 78 c 0
 693 120 718 178 723 237 c 0
 725 261 724 285 718 308 c 0
 697 379 631 428 560 441 c 0
 531 446 500 446 473 434 c 0
 435 417 406 382 388 346 c 2
 376 322 l 2
 375 319 373 315 373 311 c 0
 373 306 381 305 385 304 c 0
 398 300 409 293 420 285 c 0
 447 265 465 233 468 199 c 0
 469 182 468 164 464 148 c 0
 461 135 456 124 450 112 c 0
 433 77 404 50 370 31 c 0
 300 -8 209 -11 140 32 c 0
 112 49 88 75 73 105 c 0
 62 129 58 154 58 181 c 0
 58 202 60 222 66 242 c 0
 82 296 122 342 174 363 c 0
 192 370 212 376 231 376 c 1
EndSplineSet
EndChar
StartChar: uni0DC5
Encoding: 3525 3525 61
Width: 782
GlyphClass: 2
Flags: W
Fore
170 232 m 1
 164 221 156 212 150 201 c 0
 136 173 126 142 122 111 c 0
 118 77 119 43 127 10 c 0
 133 -18 143 -45 158 -70 c 0
 171 -92 187 -113 205 -131 c 0
 248 -174 305 -202 365 -212 c 0
 429 -222 499 -212 559 -188 c 0
 622 -162 682 -116 707 -51 c 0
 712 -37 716 -21 718 -6 c 0
 719 2 718 11 719 19 c 0
 721 28 734 33 739 24 c 0
 742 19 741 11 741 5 c 0
 740 -11 737 -28 733 -44 c 0
 712 -116 654 -171 588 -204 c 0
 529 -233 464 -247 398 -250 c 0
 330 -253 261 -241 200 -211 c 0
 155 -188 113 -157 84 -115 c 0
 69 -93 57 -69 49 -43 c 0
 41 -13 39 17 41 48 c 0
 44 102 61 157 91 202 c 0
 104 220 118 237 135 252 c 0
 141 257 147 262 153 266 c 0
 157 268 161 271 163 275 c 0
 166 279 165 287 165 292 c 0
 165 303 166 314 167 325 c 0
 172 358 185 391 206 417 c 0
 216 429 228 440 241 448 c 0
 291 478 357 467 399 428 c 0
 411 417 419 404 427 390 c 1
 459 460 562 493 622 438 c 0
 656 406 673 359 677 314 c 0
 678 303 677 292 677 281 c 1
 384 281 l 1
 300 281 l 2
 278 281 256 282 234 276 c 0
 223 272 213 267 203 261 c 0
 199 258 194 255 192 251 c 0
 190 246 192 241 193 236 c 0
 196 225 199 214 203 203 c 0
 220 152 257 106 304 78 c 0
 352 50 406 45 460 53 c 0
 492 57 524 67 551 86 c 0
 561 93 571 101 579 111 c 0
 583 116 587 122 591 128 c 0
 597 135 611 134 611 123 c 0
 612 117 607 112 605 107 c 0
 597 96 589 85 581 75 c 0
 542 32 486 1 427 1 c 0
 406 1 385 3 364 8 c 0
 287 28 225 87 193 159 c 0
 183 182 173 207 171 232 c 1
 170 232 l 1
655 303 m 1
 655 313 653 323 652 333 c 0
 644 376 621 426 576 439 c 0
 567 442 558 443 549 443 c 0
 540 443 530 442 521 440 c 0
 509 436 497 431 486 424 c 0
 467 412 452 394 443 374 c 0
 440 366 438 349 427 349 c 0
 415 349 413 368 409 376 c 0
 399 398 382 416 361 429 c 0
 349 435 336 440 323 442 c 0
 312 444 300 444 289 442 c 0
 281 441 273 439 265 436 c 0
 207 411 187 342 187 285 c 1
 204 292 222 298 240 301 c 0
 259 303 277 303 296 303 c 2
 365 303 l 1
 655 303 l 1
EndSplineSet
EndChar
StartChar: uni0DC6
Encoding: 3526 3526 62
Width: 676
GlyphClass: 2
Flags: W
Fore
338 407 m 1
 340 420 345 434 350 446 c 0
 365 482 390 515 427 529 c 0
 455 539 488 536 516 525 c 0
 530 520 544 512 555 502 c 0
 592 469 612 423 624 376 c 0
 630 353 633 330 634 306 c 0
 640 212 615 106 539 43 c 0
 513 21 480 6 446 2 c 2
 440 2 l 2
 431 1 412 -2 412 12 c 0
 412 26 432 23 441 24 c 0
 475 28 506 44 531 66 c 0
 581 112 605 179 611 245 c 0
 615 287 612 328 594 366 c 0
 579 397 552 426 519 437 c 0
 446 464 365 411 351 337 c 0
 348 324 349 312 349 299 c 2
 349 245 l 2
 349 236 352 217 338 216 c 0
 323 216 327 239 327 249 c 0
 327 285 331 325 318 359 c 0
 291 429 201 469 135 427 c 0
 93 401 70 354 64 306 c 0
 60 279 62 251 67 224 c 0
 76 166 99 109 142 68 c 0
 168 44 200 28 236 24 c 0
 245 23 265 25 263 11 c 0
 263 6 258 2 253 1 c 0
 244 0 234 2 225 3 c 0
 187 9 152 27 125 53 c 0
 48 128 29 247 46 349 c 0
 53 390 66 431 89 466 c 0
 104 489 124 509 149 521 c 0
 192 542 245 540 282 508 c 0
 313 482 325 444 338 407 c 1
EndSplineSet
EndChar
StartChar: uni0DCA
Encoding: 3530 3530 63
Width: 0
GlyphClass: 4
Flags: W
Fore
-219 494 m 1
 -219 825 l 1
 -212 822 -206 817 -199 813 c 2
 -169 793 l 2
 -137 771 -104 748 -79 718 c 0
 -65 702 -53 683 -46 663 c 0
 -43 653 -41 642 -40 631 c 0
 -40 622 -40 613 -44 605 c 0
 -52 585 -73 575 -93 572 c 0
 -128 567 -168 577 -197 596 c 1
 -197 486 l 1
 -219 494 l 1
-196 784 m 1
 -199 772 -197 757 -197 745 c 2
 -197 666 l 1
 -197 636 l 2
 -197 632 -198 626 -196 623 c 0
 -193 616 -181 613 -175 610 c 0
 -153 603 -125 601 -106 617 c 0
 -89 631 -93 656 -98 675 c 0
 -111 723 -156 758 -196 784 c 1
EndSplineSet
EndChar
StartChar: uni0DCF
Encoding: 3535 3535 64
Width: 348
GlyphClass: 4
Flags: W
Fore
40 387 m 1
 40 397 42 407 45 417 c 0
 68 488 162 511 222 474 c 0
 246 459 264 435 277 410 c 0
 299 367 308 316 308 268 c 0
 308 256 307 243 306 231 c 0
 300 168 277 96 220 61 c 0
 160 24 66 50 44 120 c 0
 41 129 40 139 40 149 c 1
 62 149 l 1
 62 143 63 138 65 132 c 0
 82 85 151 78 185 108 c 0
 204 125 215 147 222 170 c 0
 233 205 235 242 235 279 c 0
 235 291 234 303 232 315 c 0
 227 356 216 404 181 431 c 0
 146 458 82 448 65 404 c 0
 63 398 62 393 62 387 c 1
 40 387 l 1
EndSplineSet
EndChar
StartChar: uni0DD0
Encoding: 3536 3536 65
Width: 378
GlyphClass: 4
Flags: W
Fore
40 376 m 1
 188 376 l 1
 211 376 l 2
 221 376 232 376 238 365 c 0
 243 354 234 342 230 332 c 0
 218 307 208 282 200 256 c 0
 180 195 168 132 165 68 c 0
 164 38 163 8 174 -21 c 0
 192 -71 241 -115 297 -105 c 0
 308 -104 317 -99 327 -94 c 1
 330 -100 336 -107 336 -113 c 0
 336 -118 331 -123 328 -126 c 0
 318 -136 307 -145 295 -152 c 0
 255 -174 204 -174 165 -149 c 0
 151 -141 140 -130 130 -117 c 0
 122 -107 115 -96 110 -85 c 0
 74 -9 97 77 124 152 c 2
 145 205 l 2
 155 228 165 251 176 273 c 0
 189 300 203 327 215 354 c 1
 40 354 l 1
 40 376 l 1
EndSplineSet
EndChar
StartChar: uni0DD1
Encoding: 3537 3537 66
Width: 378
GlyphClass: 4
Flags: W
Fore
40 376 m 1
 173 376 l 2
 184 376 195 376 205 373 c 0
 210 372 215 370 217 365 c 0
 220 356 212 344 208 337 c 2
 176 268 l 1
 249 268 l 2
 259 268 270 264 272 253 c 0
 275 241 265 232 258 223 c 0
 242 204 227 184 214 163 c 0
 190 126 171 85 166 41 c 0
 164 25 163 9 166 -7 c 0
 176 -66 235 -116 297 -105 c 0
 308 -104 317 -99 327 -94 c 1
 330 -100 336 -107 336 -113 c 0
 336 -118 332 -122 329 -125 c 0
 321 -134 311 -142 301 -148 c 0
 266 -170 221 -174 182 -159 c 0
 162 -151 143 -138 129 -122 c 0
 120 -111 112 -100 106 -87 c 0
 101 -78 98 -68 95 -58 c 0
 85 -15 96 26 115 64 c 0
 132 98 154 129 177 159 c 0
 186 172 196 185 207 197 c 0
 220 213 234 229 247 246 c 1
 153 246 l 1
 130 246 l 1
 122 249 l 1
 122 258 l 1
 130 277 l 1
 166 354 l 1
 40 354 l 1
 40 376 l 1
EndSplineSet
EndChar
StartChar: uni0DD2
Encoding: 3538 3538 67
Width: 0
GlyphClass: 4
Flags: W
Fore
-544 540 m 1
 -590 586 -609 700 -558 749 c 0
 -543 764 -525 776 -506 786 c 0
 -451 813 -388 821 -327 821 c 0
 -278 821 -229 816 -183 801 c 0
 -130 783 -77 750 -62 692 c 0
 -59 679 -59 665 -59 651 c 0
 -60 637 -63 623 -68 610 c 0
 -75 590 -92 540 -110 536 c 0
 -124 534 -138 546 -134 552 c 0
 -126 567 -113 572 -106 591 c 0
 -101 608 -102 626 -108 642 c 0
 -125 680 -164 702 -202 714 c 0
 -246 727 -292 731 -338 730 c 0
 -376 729 -414 725 -451 713 c 0
 -495 699 -537 675 -547 626 c 0
 -548 619 -515 550 -521 546 c 0
 -536 537 -535 542 -544 540 c 1
EndSplineSet
EndChar
StartChar: uni0DD3
Encoding: 3539 3539 68
Width: 0
GlyphClass: 4
Flags: W
Fore
-181 531 m 1
 -181 531 l 1
 -201 540 -217 554 -227 574 c 0
 -250 623 -223 689 -171 706 c 1
 -177 712 -188 714 -196 716 c 0
 -218 722 -240 725 -263 727 c 0
 -309 731 -355 730 -400 721 c 0
 -426 716 -452 708 -475 695 c 0
 -506 678 -530 650 -534 614 c 0
 -535 608 -535 602 -534 596 c 0
 -532 574 -515 559 -498 547 c 1
 -510 530 l 1
 -528 546 -543 559 -555 580 c 0
 -578 621 -585 675 -563 718 c 0
 -557 730 -549 741 -539 751 c 0
 -523 767 -504 779 -484 788 c 0
 -431 813 -370 821 -312 821 c 0
 -282 821 -253 819 -223 814 c 0
 -186 808 -149 798 -117 779 c 0
 -91 764 -68 744 -54 717 c 0
 -45 699 -42 679 -42 659 c 0
 -42 620 -54 579 -82 551 c 0
 -93 541 -105 534 -118 528 c 1
 -118 525 -160 523 -181 531 c 1
-142 690 m 0
 -164 689 -186 678 -198 660 c 0
 -213 639 -218 605 -207 582 c 0
 -199 567 -186 555 -170 550 c 0
 -161 547 -151 546 -142 546 c 0
 -135 546 -127 548 -120 551 c 0
 -113 554 -106 558 -100 563 c 0
 -75 587 -81 628 -98 655 c 0
 -105 665 -113 674 -123 682 c 0
 -129 686 -134 690 -142 690 c 0
EndSplineSet
EndChar
StartChar: uni0DD4
Encoding: 3540 3540 69
Width: 0
GlyphClass: 4
Flags: W
Fore
-66 3 m 1
 -45 2 l 1
 -44 -200 l 1
 -44 -256 l 2
 -44 -263 -42 -273 -47 -279 c 0
 -50 -283 -55 -283 -60 -283 c 2
 -87 -283 l 1
 -201 -283 l 1
 -571 -283 l 2
 -614 -283 -664 -290 -697 -254 c 0
 -702 -247 -707 -240 -711 -232 c 0
 -733 -188 -721 -130 -679 -103 c 0
 -631 -72 -552 -89 -533 -147 c 0
 -531 -156 -536 -167 -547 -163 c 0
 -554 -160 -556 -150 -560 -144 c 0
 -566 -134 -575 -125 -585 -119 c 0
 -609 -106 -644 -106 -667 -122 c 0
 -683 -132 -693 -149 -697 -167 c 0
 -699 -174 -700 -181 -700 -188 c 0
 -699 -197 -697 -206 -694 -215 c 0
 -692 -221 -689 -226 -686 -231 c 0
 -674 -248 -656 -258 -636 -261 c 0
 -626 -262 -615 -261 -604 -261 c 2
 -550 -261 l 1
 -66 -261 l 1
 -66 3 l 1
EndSplineSet
EndChar
StartChar: uni0DD6
Encoding: 3542 3542 70
Width: 0
GlyphClass: 4
Flags: W
Fore
-57 2 m 1
 -35 2 l 1
 -35 -200 l 1
 -35 -257 l 2
 -35 -264 -33 -274 -39 -280 c 0
 -43 -284 -49 -284 -53 -280 c 1
 -57 -278 -58 -274 -60 -270 c 0
 -63 -265 -66 -261 -69 -256 c 0
 -97 -217 -137 -187 -184 -175 c 0
 -196 -171 -208 -169 -221 -168 c 0
 -257 -165 -292 -173 -326 -184 c 0
 -387 -205 -443 -238 -503 -261 c 0
 -536 -273 -572 -283 -608 -283 c 2
 -630 -283 l 2
 -650 -280 -670 -271 -685 -257 c 0
 -732 -210 -718 -123 -657 -96 c 0
 -623 -81 -577 -86 -549 -111 c 0
 -539 -120 -531 -131 -525 -144 c 0
 -523 -150 -522 -157 -527 -161 c 0
 -531 -165 -538 -164 -541 -161 c 0
 -546 -156 -547 -149 -551 -144 c 0
 -557 -134 -565 -126 -575 -120 c 0
 -607 -101 -653 -109 -676 -139 c 0
 -688 -155 -692 -176 -690 -196 c 0
 -689 -205 -686 -213 -683 -221 c 0
 -680 -227 -676 -232 -672 -237 c 0
 -641 -273 -584 -262 -544 -251 c 2
 -517 -242 l 2
 -418 -205 -322 -135 -211 -147 c 0
 -197 -149 -183 -151 -169 -156 c 0
 -150 -162 -133 -170 -116 -180 c 0
 -95 -194 -71 -212 -58 -234 c 1
 -57 -234 l 1
 -57 2 l 1
EndSplineSet
EndChar
StartChar: uni0DD8
Encoding: 3544 3544 71
Width: 348
GlyphClass: 2
Flags: W
Fore
40 387 m 1
 40 396 41 406 44 415 c 0
 61 472 128 500 184 489 c 0
 218 482 245 460 264 432 c 0
 291 393 303 344 307 297 c 0
 309 273 308 248 308 224 c 2
 308 44 l 1
 186 44 l 2
 145 44 101 46 68 74 c 0
 59 81 52 90 47 100 c 0
 30 135 44 179 67 207 c 0
 96 241 138 258 180 269 c 0
 198 273 217 277 235 277 c 1
 235 287 234 298 233 308 c 0
 229 351 218 403 181 431 c 0
 146 458 82 448 65 404 c 0
 63 398 62 393 62 387 c 1
 40 387 l 1
235 256 m 1
 192 250 144 247 110 216 c 0
 101 208 95 199 90 188 c 0
 71 144 96 89 140 72 c 0
 155 66 171 66 187 66 c 2
 235 66 l 1
 235 256 l 1
EndSplineSet
EndChar
StartChar: uni0DD9
Encoding: 3545 3545 72
Width: 710
GlyphClass: 2
Flags: W
Fore
351 374 m 1
 359 367 368 364 376 357 c 0
 397 338 406 309 403 281 c 0
 400 257 387 234 367 220 c 0
 332 195 276 201 249 235 c 0
 221 269 223 323 254 355 c 0
 262 363 273 369 283 374 c 0
 295 380 308 385 321 389 c 0
 404 413 502 389 552 315 c 0
 560 302 567 289 572 274 c 0
 576 261 578 248 579 234 c 0
 585 178 562 124 524 84 c 0
 501 60 471 42 441 29 c 0
 343 -13 221 -10 135 58 c 0
 119 70 105 84 92 100 c 0
 78 118 66 138 57 159 c 0
 30 228 36 309 71 374 c 0
 95 417 130 454 171 480 c 0
 286 554 438 552 551 476 c 0
 573 461 593 444 610 425 c 0
 626 408 639 390 652 370 c 0
 657 361 664 350 667 340 c 0
 671 329 659 318 650 328 c 0
 645 333 642 342 638 349 c 0
 631 361 623 373 615 384 c 0
 584 426 543 459 496 482 c 0
 407 524 300 522 211 480 c 0
 151 451 100 403 76 340 c 0
 68 319 63 296 62 274 c 0
 61 256 63 238 68 221 c 0
 76 198 89 177 106 160 c 0
 168 98 260 86 344 93 c 0
 362 95 380 96 398 99 c 0
 447 106 505 120 537 161 c 0
 576 211 556 283 515 325 c 0
 500 340 481 352 462 361 c 0
 443 369 420 375 399 376 c 0
 383 377 367 375 351 374 c 1
313 357 m 0
 296 356 279 350 268 337 c 0
 242 307 247 253 284 234 c 0
 295 228 308 226 321 227 c 0
 339 228 357 236 368 251 c 0
 392 283 382 337 343 352 c 0
 334 356 323 357 313 357 c 0
EndSplineSet
EndChar
StartChar: uni0DDA
Encoding: 3546 3546 73
Width: 1096
GlyphClass: 3
Flags: W
Fore
883 494 m 1
 883 825 l 1
 890 822 896 817 903 813 c 2
 933 793 l 2
 965 771 998 748 1023 718 c 0
 1037 702 1049 683 1056 663 c 0
 1059 653 1061 642 1062 631 c 0
 1062 622 1062 613 1058 605 c 0
 1050 585 1029 575 1009 572 c 0
 974 567 934 577 905 596 c 1
 905 486 l 1
 883 494 l 1
906 784 m 1
 903 772 905 757 905 745 c 2
 905 666 l 1
 905 636 l 2
 905 632 904 626 906 623 c 0
 909 616 921 613 927 610 c 0
 949 603 977 601 996 617 c 0
 1013 631 1009 656 1004 675 c 0
 991 723 946 758 906 784 c 1
351 374 m 1
 359 367 368 364 376 357 c 0
 397 338 406 309 403 281 c 0
 400 257 387 234 367 220 c 0
 332 195 276 201 249 235 c 0
 221 269 223 323 254 355 c 0
 262 363 273 369 283 374 c 0
 295 380 308 385 321 389 c 0
 404 413 502 389 552 315 c 0
 560 302 567 289 572 274 c 0
 576 261 578 248 579 234 c 0
 585 178 562 124 524 84 c 0
 501 60 471 42 441 29 c 0
 343 -13 221 -10 135 58 c 0
 119 70 105 84 92 100 c 0
 78 118 66 138 57 159 c 0
 30 228 36 309 71 374 c 0
 95 417 130 454 171 480 c 0
 286 554 438 552 551 476 c 0
 573 461 593 444 610 425 c 0
 626 408 639 390 652 370 c 0
 657 361 664 350 667 340 c 0
 671 329 659 318 650 328 c 0
 645 333 642 342 638 349 c 0
 631 361 623 373 615 384 c 0
 584 426 543 459 496 482 c 0
 407 524 300 522 211 480 c 0
 151 451 100 403 76 340 c 0
 68 319 63 296 62 274 c 0
 61 256 63 238 68 221 c 0
 76 198 89 177 106 160 c 0
 168 98 260 86 344 93 c 0
 362 95 380 96 398 99 c 0
 447 106 505 120 537 161 c 0
 576 211 556 283 515 325 c 0
 500 340 481 352 462 361 c 0
 443 369 420 375 399 376 c 0
 383 377 367 375 351 374 c 1
313 357 m 0
 296 356 279 350 268 337 c 0
 242 307 247 253 284 234 c 0
 295 228 308 226 321 227 c 0
 339 228 357 236 368 251 c 0
 392 283 382 337 343 352 c 0
 334 356 323 357 313 357 c 0
EndSplineSet
Ligature: 0 0 'liga' uni0DD9 uni0DCA
EndChar
StartChar: uni0DDB
Encoding: 3547 3547 74
Width: 1402
GlyphClass: 2
Flags: W
Fore
351 374 m 1
 359 367 368 364 376 357 c 0
 397 338 406 309 403 281 c 0
 400 257 387 234 367 220 c 0
 332 195 276 201 249 235 c 0
 221 269 223 323 254 355 c 0
 262 363 273 369 283 374 c 0
 295 380 308 385 321 389 c 0
 404 413 502 389 552 315 c 0
 560 302 567 289 572 274 c 0
 576 261 578 248 579 234 c 0
 585 178 562 124 524 84 c 0
 501 60 471 42 441 29 c 0
 343 -13 221 -10 135 58 c 0
 119 70 105 84 92 100 c 0
 78 118 66 138 57 159 c 0
 30 228 36 309 71 374 c 0
 95 417 130 454 171 480 c 0
 286 554 438 552 551 476 c 0
 573 461 593 444 610 425 c 0
 626 408 639 390 652 370 c 0
 657 361 664 350 667 340 c 0
 671 329 659 318 650 328 c 0
 645 333 642 342 638 349 c 0
 631 361 623 373 615 384 c 0
 584 426 543 459 496 482 c 0
 407 524 300 522 211 480 c 0
 151 451 100 403 76 340 c 0
 68 319 63 296 62 274 c 0
 61 256 63 238 68 221 c 0
 76 198 89 177 106 160 c 0
 168 98 260 86 344 93 c 0
 362 95 380 96 398 99 c 0
 447 106 505 120 537 161 c 0
 576 211 556 283 515 325 c 0
 500 340 481 352 462 361 c 0
 443 369 420 375 399 376 c 0
 383 377 367 375 351 374 c 1
1044 374 m 1
 1052 367 1061 364 1069 357 c 0
 1090 338 1099 309 1096 281 c 0
 1093 257 1080 234 1060 220 c 0
 1025 195 969 201 942 235 c 0
 914 269 916 323 947 355 c 0
 955 363 966 369 976 374 c 0
 988 380 1001 385 1014 389 c 0
 1097 413 1195 389 1245 315 c 0
 1253 302 1260 289 1265 274 c 0
 1269 261 1271 248 1272 234 c 0
 1278 178 1255 124 1217 84 c 0
 1194 60 1164 42 1134 29 c 0
 1036 -13 914 -10 828 58 c 0
 812 70 798 84 785 100 c 0
 771 118 759 138 750 159 c 0
 723 228 729 309 764 374 c 0
 788 417 823 454 864 480 c 0
 979 554 1132 552 1245 475 c 0
 1266 461 1286 444 1303 425 c 0
 1319 408 1332 390 1345 370 c 0
 1350 361 1357 350 1360 340 c 0
 1364 329 1352 318 1343 328 c 0
 1338 333 1335 342 1331 349 c 0
 1324 361 1316 373 1308 384 c 0
 1277 426 1236 459 1189 482 c 0
 1149 501 1105 511 1060 513 c 0
 1043 514 1025 512 1008 510 c 0
 907 498 806 438 769 340 c 0
 761 319 756 296 755 274 c 0
 754 256 756 238 761 221 c 0
 769 198 782 177 799 160 c 0
 861 98 953 86 1037 93 c 0
 1055 95 1073 96 1091 99 c 0
 1140 106 1198 120 1230 161 c 0
 1269 211 1249 283 1208 325 c 0
 1193 340 1174 352 1155 361 c 0
 1136 369 1113 375 1092 376 c 0
 1076 377 1060 375 1044 374 c 1
313 357 m 0
 296 356 279 350 268 337 c 0
 242 307 247 253 284 234 c 0
 295 228 308 226 321 227 c 0
 339 228 357 236 368 251 c 0
 392 283 382 337 343 352 c 0
 334 356 323 357 313 357 c 0
1006 357 m 0
 989 356 972 350 961 337 c 0
 935 307 940 253 977 234 c 0
 988 228 1001 226 1014 227 c 0
 1032 228 1050 236 1061 251 c 0
 1085 283 1075 337 1036 352 c 0
 1027 356 1016 357 1006 357 c 0
EndSplineSet
EndChar
StartChar: uni0DDC
Encoding: 3548 3548 75
Width: 1298
GlyphClass: 3
Flags: W
Fore
990 352 m 1
 990 362 992 372 995 382 c 0
 1018 453 1112 476 1172 439 c 0
 1196 424 1214 400 1227 375 c 0
 1249 332 1258 281 1258 233 c 0
 1258 221 1257 208 1256 196 c 0
 1250 133 1227 61 1170 26 c 0
 1110 -11 1016 15 994 85 c 0
 991 94 990 104 990 114 c 1
 1012 114 l 1
 1012 108 1013 103 1015 97 c 0
 1032 50 1101 43 1135 73 c 0
 1154 90 1165 112 1172 135 c 0
 1183 170 1185 207 1185 244 c 0
 1185 256 1184 268 1182 280 c 0
 1177 321 1166 369 1131 396 c 0
 1096 423 1032 413 1015 369 c 0
 1013 363 1012 358 1012 352 c 1
 990 352 l 1
351 374 m 1
 359 367 368 364 376 357 c 0
 397 338 406 309 403 281 c 0
 400 257 387 234 367 220 c 0
 332 195 276 201 249 235 c 0
 221 269 223 323 254 355 c 0
 262 363 273 369 283 374 c 0
 295 380 308 385 321 389 c 0
 404 413 502 389 552 315 c 0
 560 302 567 289 572 274 c 0
 576 261 578 248 579 234 c 0
 585 178 562 124 524 84 c 0
 501 60 471 42 441 29 c 0
 343 -13 221 -10 135 58 c 0
 119 70 105 84 92 100 c 0
 78 118 66 138 57 159 c 0
 30 228 36 309 71 374 c 0
 95 417 130 454 171 480 c 0
 286 554 438 552 551 476 c 0
 573 461 593 444 610 425 c 0
 626 408 639 390 652 370 c 0
 657 361 664 350 667 340 c 0
 671 329 659 318 650 328 c 0
 645 333 642 342 638 349 c 0
 631 361 623 373 615 384 c 0
 584 426 543 459 496 482 c 0
 407 524 300 522 211 480 c 0
 151 451 100 403 76 340 c 0
 68 319 63 296 62 274 c 0
 61 256 63 238 68 221 c 0
 76 198 89 177 106 160 c 0
 168 98 260 86 344 93 c 0
 362 95 380 96 398 99 c 0
 447 106 505 120 537 161 c 0
 576 211 556 283 515 325 c 0
 500 340 481 352 462 361 c 0
 443 369 420 375 399 376 c 0
 383 377 367 375 351 374 c 1
313 357 m 0
 296 356 279 350 268 337 c 0
 242 307 247 253 284 234 c 0
 295 228 308 226 321 227 c 0
 339 228 357 236 368 251 c 0
 392 283 382 337 343 352 c 0
 334 356 323 357 313 357 c 0
EndSplineSet
Ligature: 0 0 'liga' uni0DD9 uni0DCF
EndChar
StartChar: uni0DDD
Encoding: 3549 3549 76
Width: 1298
GlyphClass: 3
Flags: W
Fore
1075 789 m 1
 1082 786 1089 781 1096 776 c 2
 1126 756 l 2
 1175 723 1230 683 1249 625 c 0
 1252 615 1254 604 1254 594 c 0
 1254 587 1254 579 1252 572 c 0
 1244 550 1222 538 1200 535 c 0
 1166 531 1126 541 1097 560 c 1
 1097 457 l 1
 1097 425 l 2
 1097 420 1096 413 1098 408 c 0
 1100 399 1108 391 1112 383 c 0
 1121 368 1127 353 1132 337 c 0
 1156 263 1154 176 1124 104 c 0
 1107 63 1076 26 1032 13 c 0
 975 -4 902 25 884 85 c 0
 881 94 880 104 880 113 c 1
 902 113 l 1
 902 107 903 102 905 96 c 0
 922 49 991 42 1025 72 c 0
 1044 89 1055 111 1062 134 c 0
 1073 169 1075 206 1075 243 c 0
 1075 255 1074 267 1072 279 c 0
 1067 320 1056 368 1021 395 c 0
 986 422 922 412 905 368 c 0
 903 362 902 357 902 351 c 1
 880 351 l 1
 880 360 881 370 884 379 c 0
 901 433 960 460 1014 455 c 0
 1037 452 1056 442 1075 429 c 1
 1075 789 l 1
1098 748 m 1
 1095 736 1097 721 1097 709 c 2
 1097 630 l 1
 1097 600 l 2
 1097 596 1096 590 1098 587 c 0
 1101 580 1113 577 1119 574 c 0
 1140 567 1168 565 1187 580 c 0
 1205 594 1202 621 1196 640 c 0
 1185 676 1158 703 1129 726 c 0
 1119 734 1109 741 1098 748 c 1
351 374 m 1
 359 367 368 364 376 357 c 0
 397 338 406 309 403 281 c 0
 400 257 387 234 367 220 c 0
 332 195 276 201 249 235 c 0
 221 269 223 323 254 355 c 0
 262 363 273 369 283 374 c 0
 295 380 308 385 321 389 c 0
 404 413 502 389 552 315 c 0
 560 302 567 289 572 274 c 0
 576 261 578 248 579 234 c 0
 585 178 562 124 524 84 c 0
 501 60 471 42 441 29 c 0
 343 -13 221 -10 135 58 c 0
 119 70 105 84 92 100 c 0
 78 118 66 138 57 159 c 0
 30 228 36 309 71 374 c 0
 95 417 130 454 171 480 c 0
 286 554 438 552 551 476 c 0
 573 461 593 444 610 425 c 0
 626 408 639 390 652 370 c 0
 657 361 664 350 667 340 c 0
 671 329 659 318 650 328 c 0
 645 333 642 342 638 349 c 0
 631 361 623 373 615 384 c 0
 584 426 543 459 496 482 c 0
 407 524 300 522 211 480 c 0
 151 451 100 403 76 340 c 0
 68 319 63 296 62 274 c 0
 61 256 63 238 68 221 c 0
 76 198 89 177 106 160 c 0
 168 98 260 86 344 93 c 0
 362 95 380 96 398 99 c 0
 447 106 505 120 537 161 c 0
 576 211 556 283 515 325 c 0
 500 340 481 352 462 361 c 0
 443 369 420 375 399 376 c 0
 383 377 367 375 351 374 c 1
313 357 m 0
 296 356 279 350 268 337 c 0
 242 307 247 253 284 234 c 0
 295 228 308 226 321 227 c 0
 339 228 357 236 368 251 c 0
 392 283 382 337 343 352 c 0
 334 356 323 357 313 357 c 0
EndSplineSet
Ligature: 0 0 'liga' uni0DDC uni0DCA
EndChar
StartChar: uni0DDE
Encoding: 3550 3550 77
Width: 1310
GlyphClass: 3
Flags: W
Fore
1014 332 m 1
 1011 338 1006 345 1004 352 c 0
 1003 363 1007 375 1010 385 c 0
 1026 425 1069 452 1111 454 c 0
 1127 455 1142 454 1157 450 c 0
 1204 437 1234 394 1251 351 c 0
 1264 319 1269 284 1271 250 c 0
 1273 207 1269 164 1255 123 c 0
 1244 90 1227 56 1199 34 c 0
 1185 23 1169 15 1151 10 c 0
 1096 -2 1029 24 1009 80 c 0
 1006 90 1004 101 1004 112 c 1
 1026 112 l 1
 1028 60 1096 39 1136 62 c 0
 1175 84 1189 133 1195 174 c 0
 1201 218 1201 263 1192 306 c 0
 1187 331 1178 358 1161 378 c 0
 1151 390 1138 401 1123 405 c 0
 1086 417 1035 400 1027 359 c 1
 1034 360 1040 360 1047 359 c 0
 1104 347 1120 259 1075 225 c 0
 1056 210 1029 207 1006 209 c 0
 987 210 968 215 951 223 c 0
 903 247 872 297 872 350 c 0
 872 374 878 399 889 421 c 2
 898 436 l 2
 900 438 901 441 904 441 c 0
 910 441 917 433 921 430 c 1
 903 402 890 369 896 335 c 0
 903 289 945 254 991 254 c 0
 1000 254 1009 255 1018 258 c 0
 1038 265 1053 285 1051 307 c 0
 1049 318 1042 332 1030 334 c 0
 1025 335 1019 333 1014 332 c 1
351 374 m 1
 359 367 368 364 376 357 c 0
 397 338 406 309 403 281 c 0
 400 257 387 234 367 220 c 0
 332 195 276 201 249 235 c 0
 221 269 223 323 254 355 c 0
 262 363 273 369 283 374 c 0
 295 380 308 385 321 389 c 0
 404 413 502 389 552 315 c 0
 560 302 567 289 572 274 c 0
 576 261 578 248 579 234 c 0
 585 178 562 124 524 84 c 0
 501 60 471 42 441 29 c 0
 343 -13 221 -10 135 58 c 0
 119 70 105 84 92 100 c 0
 78 118 66 138 57 159 c 0
 30 228 36 309 71 374 c 0
 95 417 130 454 171 480 c 0
 286 554 438 552 551 476 c 0
 573 461 593 444 610 425 c 0
 626 408 639 390 652 370 c 0
 657 361 664 350 667 340 c 0
 671 329 659 318 650 328 c 0
 645 333 642 342 638 349 c 0
 631 361 623 373 615 384 c 0
 584 426 543 459 496 482 c 0
 407 524 300 522 211 480 c 0
 151 451 100 403 76 340 c 0
 68 319 63 296 62 274 c 0
 61 256 63 238 68 221 c 0
 76 198 89 177 106 160 c 0
 168 98 260 86 344 93 c 0
 362 95 380 96 398 99 c 0
 447 106 505 120 537 161 c 0
 576 211 556 283 515 325 c 0
 500 340 481 352 462 361 c 0
 443 369 420 375 399 376 c 0
 383 377 367 375 351 374 c 1
313 357 m 0
 296 356 279 350 268 337 c 0
 242 307 247 253 284 234 c 0
 295 228 308 226 321 227 c 0
 339 228 357 236 368 251 c 0
 392 283 382 337 343 352 c 0
 334 356 323 357 313 357 c 0
EndSplineSet
Ligature: 0 0 'liga' uni0DD9 uni0DDF
EndChar
StartChar: uni0DDF
Encoding: 3551 3551 78
Width: 480
GlyphClass: 2
Flags: W
Fore
182 369 m 1
 179 375 174 382 172 389 c 0
 171 400 175 412 178 422 c 0
 194 462 237 489 279 491 c 0
 295 492 310 491 325 487 c 0
 372 474 402 431 419 388 c 0
 432 356 437 321 439 287 c 0
 441 244 437 201 423 160 c 0
 412 127 395 93 367 71 c 0
 353 60 337 52 319 47 c 0
 264 35 197 61 177 117 c 0
 174 127 172 138 172 149 c 1
 194 149 l 1
 196 97 264 76 304 99 c 0
 343 121 357 170 363 211 c 0
 369 255 369 300 360 343 c 0
 355 368 346 395 329 415 c 0
 319 427 306 438 291 442 c 0
 254 454 203 437 195 396 c 1
 202 397 208 397 215 396 c 0
 272 384 288 296 243 262 c 0
 224 247 197 244 174 246 c 0
 155 247 136 252 119 260 c 0
 71 284 40 334 40 387 c 0
 40 411 46 436 57 458 c 2
 66 473 l 2
 68 475 69 478 72 478 c 0
 78 478 85 470 89 467 c 1
 71 439 58 406 64 372 c 0
 71 326 113 291 159 291 c 0
 168 291 177 292 186 295 c 0
 206 302 221 322 219 344 c 0
 217 355 210 369 198 371 c 0
 193 372 187 370 182 369 c 1
EndSplineSet
EndChar
StartChar: uni0DF2
Encoding: 3570 3570 79
Width: 680
GlyphClass: 2
Flags: W
Fore
40 387 m 1
 40 396 41 406 44 415 c 0
 61 472 128 500 184 489 c 0
 218 482 245 460 264 432 c 0
 291 393 303 344 307 297 c 0
 309 273 308 248 308 224 c 2
 308 44 l 1
 186 44 l 2
 145 44 101 46 68 74 c 0
 59 81 52 90 47 100 c 0
 30 135 44 179 67 207 c 0
 96 241 138 258 180 269 c 0
 198 273 217 277 235 277 c 1
 235 287 234 298 233 308 c 0
 229 351 218 403 181 431 c 0
 146 458 82 448 65 404 c 0
 63 398 62 393 62 387 c 1
 40 387 l 1
371 387 m 1
 371 396 372 406 375 415 c 0
 393 473 460 501 516 489 c 0
 549 482 576 460 595 432 c 0
 622 393 634 344 638 297 c 0
 640 273 639 248 639 224 c 2
 639 44 l 1
 517 44 l 2
 476 44 432 46 399 74 c 0
 390 81 383 90 378 100 c 0
 361 135 375 179 398 207 c 0
 427 241 469 258 511 269 c 0
 529 273 548 277 566 277 c 1
 566 287 565 298 564 308 c 0
 560 351 549 403 512 431 c 0
 477 458 413 448 396 404 c 0
 394 398 393 393 393 387 c 1
 371 387 l 1
235 256 m 1
 192 250 144 247 110 216 c 0
 101 208 95 199 90 188 c 0
 71 144 96 89 140 72 c 0
 155 66 171 66 187 66 c 2
 235 66 l 1
 235 256 l 1
566 256 m 1
 523 250 475 247 441 216 c 0
 432 208 426 199 421 188 c 0
 402 144 427 89 471 72 c 0
 486 66 502 66 518 66 c 2
 566 66 l 1
 566 256 l 1
EndSplineSet
EndChar
StartChar: uni0DF3
Encoding: 3571 3571 80
Width: 480
GlyphClass: 2
Flags: W
Fore
182 369 m 1
 179 375 174 382 172 389 c 0
 171 397 174 406 176 414 c 0
 184 440 202 461 226 475 c 0
 269 500 328 496 367 465 c 0
 397 440 416 403 426 366 c 0
 447 295 445 214 418 145 c 0
 408 121 395 97 376 79 c 0
 343 47 296 37 253 50 c 0
 224 58 199 76 184 102 c 0
 167 132 167 174 188 201 c 0
 195 210 204 216 213 221 c 0
 244 238 282 239 316 244 c 0
 327 246 339 248 350 251 c 0
 354 252 360 253 364 256 c 0
 368 259 367 266 367 271 c 0
 367 285 366 298 365 312 c 0
 360 354 348 405 312 432 c 0
 275 459 205 446 195 396 c 1
 202 397 208 397 215 396 c 0
 272 384 288 296 243 262 c 0
 224 247 197 244 174 246 c 0
 155 247 136 252 119 260 c 0
 71 284 40 334 40 387 c 0
 40 411 46 436 57 458 c 2
 66 473 l 2
 68 475 69 478 72 478 c 0
 78 478 85 470 89 467 c 1
 71 439 58 406 64 372 c 0
 71 326 113 291 159 291 c 0
 168 291 177 292 186 295 c 0
 206 302 221 322 219 344 c 0
 217 355 210 369 198 371 c 0
 193 372 187 370 182 369 c 1
365 232 m 1
 338 224 311 221 284 217 c 0
 264 215 242 211 224 202 c 0
 197 189 186 154 199 127 c 0
 204 115 214 106 225 100 c 0
 234 95 244 92 254 91 c 0
 262 89 270 90 278 90 c 0
 331 96 352 153 361 198 c 0
 363 209 365 221 365 232 c 1
EndSplineSet
EndChar
StartChar: uniE006
Encoding: 57350 57350 82
Width: 892
GlyphClass: 2
Flags: W
Fore
444 739 m 0
 426 738 408 732 396 718 c 0
 371 689 378 636 412 617 c 0
 423 611 436 609 449 609 c 0
 468 610 486 617 498 633 c 0
 521 663 512 714 478 731 c 0
 468 737 455 739 444 739 c 0
361 363 m 0
 319 359 279 347 243 326 c 0
 230 318 216 309 205 298 c 0
 197 291 190 281 184 272 c 0
 171 256 160 239 149 221 c 0
 138 203 129 183 119 164 c 0
 116 158 109 148 111 141 c 0
 112 135 120 131 124 128 c 0
 173 93 250 73 301 115 c 0
 309 121 316 128 321 136 c 0
 337 158 345 182 347 209 c 0
 348 216 349 228 359 228 c 0
 368 228 370 218 370 211 c 0
 370 202 369 192 369 183 c 0
 368 174 367 165 372 157 c 0
 399 113 450 89 501 92 c 0
 514 93 527 96 539 101 c 0
 549 105 559 110 567 117 c 0
 582 129 593 145 598 163 c 0
 600 171 600 180 600 188 c 0
 600 216 591 244 576 267 c 0
 531 337 442 369 361 363 c 0
273 365 m 1
 288 370 303 375 319 379 c 0
 352 386 386 387 420 383 c 0
 511 370 604 310 620 214 c 0
 622 200 622 187 622 173 c 0
 622 162 621 151 620 140 c 0
 613 85 588 15 526 3 c 0
 508 -1 489 1 471 5 c 0
 453 9 435 15 419 24 c 0
 401 35 384 49 371 65 c 0
 364 73 359 82 352 90 c 1
 349 75 342 61 334 48 c 0
 325 34 314 22 300 14 c 0
 280 1 257 0 234 2 c 0
 208 4 182 11 159 23 c 0
 148 29 137 36 127 44 c 0
 122 48 117 53 111 56 c 0
 106 58 102 57 97 56 c 0
 90 53 82 50 75 49 c 0
 70 47 63 46 60 51 c 0
 55 58 61 71 63 78 c 0
 70 103 79 127 89 151 c 0
 120 226 162 297 216 358 c 0
 228 371 240 384 253 396 c 0
 262 405 272 415 284 422 c 1
 280 430 277 438 272 445 c 0
 251 474 207 501 174 474 c 0
 149 454 140 422 121 397 c 0
 106 378 77 363 56 382 c 0
 53 385 50 389 48 393 c 0
 40 408 39 426 41 442 c 0
 48 484 78 519 119 531 c 0
 171 546 232 524 269 486 c 0
 283 472 295 455 301 437 c 1
 311 443 319 450 329 456 c 0
 352 471 376 484 401 495 c 0
 427 507 454 515 480 526 c 0
 520 544 559 570 584 607 c 0
 593 621 600 636 604 652 c 0
 608 665 610 679 608 692 c 0
 607 702 605 712 602 721 c 0
 590 751 564 773 535 786 c 0
 489 807 435 809 387 796 c 0
 340 783 291 749 284 697 c 0
 283 690 283 683 284 676 c 0
 285 668 286 660 290 652 c 0
 294 643 300 634 307 627 c 0
 316 618 326 611 337 606 c 0
 360 595 383 594 408 594 c 1
 408 595 l 1
 397 599 387 607 379 616 c 0
 344 658 356 728 406 752 c 0
 438 768 482 762 508 737 c 0
 531 714 538 678 529 648 c 0
 519 612 489 593 455 582 c 0
 405 565 343 568 301 602 c 0
 292 609 283 619 277 629 c 0
 271 638 267 647 264 657 c 0
 248 715 285 771 335 799 c 0
 399 834 484 836 550 804 c 0
 568 795 584 784 598 769 c 0
 605 761 611 753 616 744 c 0
 642 694 632 634 599 589 c 0
 582 566 560 548 537 532 c 1
 574 537 612 537 648 528 c 0
 670 522 691 514 710 502 c 0
 781 461 828 387 845 308 c 0
 851 278 852 248 851 218 c 0
 850 184 845 149 834 116 c 0
 823 81 805 47 775 25 c 0
 752 8 719 -6 691 3 c 0
 681 6 674 12 666 18 c 1
 666 19 l 1
 680 35 l 1
 681 35 l 1
 687 29 694 25 703 23 c 0
 710 21 717 23 724 25 c 0
 738 28 751 35 763 44 c 0
 808 80 821 143 818 197 c 0
 812 310 731 410 625 446 c 0
 577 462 525 464 475 457 c 0
 425 449 377 432 333 407 c 0
 320 399 307 391 295 382 c 0
 288 377 281 371 273 366 c 1
 273 365 l 1
272 365 m 1
 273 365 l 1
 273 364 272 363 272 365 c 1
EndSplineSet
EndChar
StartChar: uniE016
Encoding: 57366 57366 83
Width: 714
GlyphClass: 2
Flags: W
Fore
475 685 m 1
 480 701 484 716 483 733 c 0
 481 774 451 807 416 825 c 0
 359 853 288 852 231 826 c 0
 187 806 153 765 158 715 c 0
 160 705 163 695 167 686 c 1
 183 692 197 701 213 707 c 0
 218 709 229 710 232 715 c 0
 235 718 234 723 234 726 c 0
 235 731 236 737 238 742 c 0
 244 763 259 781 278 791 c 0
 318 813 372 800 395 760 c 0
 401 751 404 740 406 730 c 0
 407 725 406 718 409 714 c 0
 411 712 414 711 417 711 c 1
 422 709 426 707 431 706 c 0
 446 700 460 692 475 685 c 1
385 719 m 1
 384 729 382 740 377 749 c 0
 359 781 312 789 282 769 c 0
 266 757 257 739 256 719 c 1
 297 729 344 729 385 719 c 1
383 697 m 1
 357 704 329 705 302 703 c 0
 287 702 272 701 258 697 c 1
 261 684 268 672 278 664 c 0
 302 644 344 645 367 667 c 0
 375 675 380 686 383 697 c 1
237 691 m 1
 203 679 l 1
 181 667 l 1
 187 662 194 656 201 652 c 0
 227 637 254 635 283 635 c 1
 283 636 l 1
 260 646 243 667 237 691 c 1
179 127 m 0
 166 126 154 121 145 111 c 0
 125 88 129 45 157 30 c 0
 167 24 179 22 190 23 c 0
 204 25 216 30 225 41 c 0
 244 64 239 103 214 119 c 0
 204 126 191 128 179 127 c 0
389 52 m 1
 395 56 401 62 408 65 c 0
 411 66 415 66 419 66 c 0
 426 67 433 67 440 68 c 0
 458 71 476 75 494 82 c 0
 566 108 624 170 643 244 c 0
 652 278 652 312 649 347 c 0
 642 428 615 509 566 574 c 0
 550 594 533 613 514 630 c 0
 506 637 497 645 488 650 c 0
 481 655 477 649 472 644 c 0
 465 637 457 630 449 624 c 0
 443 621 436 617 431 623 c 0
 427 627 427 633 430 637 c 0
 434 642 439 645 444 649 c 0
 451 654 457 660 462 667 c 1
 444 676 424 687 404 691 c 1
 398 662 375 642 349 630 c 0
 308 612 259 606 216 621 c 0
 202 626 189 633 177 642 c 0
 171 646 166 651 162 657 c 1
 142 641 122 626 104 608 c 0
 98 602 91 589 81 591 c 0
 79 591 78 592 76 593 c 0
 66 601 77 613 83 619 c 0
 96 633 110 646 125 658 c 0
 133 664 140 670 149 674 c 1
 128 711 133 757 156 792 c 0
 167 809 183 823 200 834 c 0
 260 872 340 877 406 853 c 0
 455 836 501 794 505 739 c 0
 506 724 505 708 501 693 c 0
 499 688 493 678 497 673 c 0
 500 668 507 665 511 662 c 0
 520 655 529 648 537 640 c 0
 563 616 585 589 603 559 c 0
 666 458 687 332 665 215 c 0
 656 160 636 105 600 62 c 0
 577 34 546 14 511 5 c 0
 500 3 488 0 477 1 c 0
 470 2 464 6 458 9 c 2
 434 18 l 2
 406 27 372 29 347 11 c 0
 339 6 333 -2 327 -10 c 1
 322 -8 312 -4 310 1 c 0
 309 4 311 7 312 9 c 0
 314 13 316 18 318 22 c 0
 328 43 337 63 354 80 c 0
 376 102 402 118 426 138 c 0
 443 152 458 169 465 190 c 0
 468 201 468 212 468 224 c 0
 467 234 465 245 462 254 c 0
 457 267 450 278 442 289 c 0
 420 317 388 335 355 346 c 0
 296 366 228 366 169 344 c 0
 130 329 92 304 74 265 c 0
 62 241 61 217 63 191 c 0
 65 157 72 123 87 92 c 0
 94 78 104 67 112 54 c 1
 113 54 l 1
 108 77 111 103 126 122 c 0
 150 153 200 158 231 134 c 0
 269 105 267 40 227 13 c 0
 200 -5 162 -1 134 12 c 0
 84 37 59 91 47 143 c 0
 28 231 47 331 116 393 c 0
 128 404 140 414 153 422 c 0
 170 432 187 440 206 445 c 0
 228 451 251 454 274 453 c 0
 379 449 464 367 485 266 c 0
 490 243 493 218 489 195 c 0
 483 153 459 117 430 88 c 0
 417 75 402 64 389 52 c 1
EndSplineSet
EndChar
StartChar: uniE026
Encoding: 57382 57382 84
Width: 714
GlyphClass: 2
Flags: W
Fore
237 534 m 1
 226 538 216 547 208 555 c 0
 201 562 195 571 190 580 c 0
 172 614 175 655 194 688 c 0
 204 705 217 719 233 730 c 0
 271 759 319 770 366 770 c 0
 397 770 428 765 457 753 c 0
 504 732 541 694 547 642 c 0
 550 623 548 603 544 585 c 0
 539 564 531 544 519 526 c 1
 568 513 607 471 632 428 c 0
 687 331 689 201 629 106 c 0
 599 57 552 20 496 7 c 0
 484 4 472 2 460 1 c 0
 455 1 448 0 443 3 c 0
 435 7 436 19 445 22 c 0
 450 24 455 23 460 23 c 0
 470 24 481 26 491 28 c 0
 531 39 567 62 593 94 c 0
 626 134 646 185 650 237 c 0
 652 255 652 274 648 292 c 0
 642 327 624 360 598 385 c 0
 581 400 563 414 542 423 c 0
 493 446 431 455 383 425 c 0
 360 411 342 390 328 368 c 0
 319 355 312 342 306 328 c 0
 304 323 300 317 300 311 c 0
 300 307 305 306 308 305 c 0
 316 303 324 299 332 295 c 0
 356 282 374 262 385 237 c 0
 395 214 396 190 394 165 c 0
 389 106 361 44 307 15 c 0
 279 0 246 -2 215 4 c 0
 136 19 83 87 58 160 c 0
 22 270 38 404 129 483 c 0
 143 495 158 505 175 514 c 0
 195 524 215 530 237 533 c 1
 237 534 l 1
257 252 m 1
 273 308 289 366 315 418 c 0
 329 447 346 473 369 496 c 0
 390 517 418 531 448 534 c 0
 459 535 469 535 480 534 c 0
 485 534 492 531 497 534 c 0
 502 538 506 546 509 552 c 0
 517 569 522 587 524 606 c 0
 527 625 526 644 520 663 c 0
 508 699 474 723 440 736 c 0
 389 754 331 753 281 732 c 0
 254 721 229 704 214 679 c 0
 195 647 195 604 219 575 c 0
 236 555 261 544 287 540 c 0
 299 538 314 536 325 539 c 1
 312 545 301 554 293 565 c 0
 286 575 280 587 278 600 c 0
 272 632 283 668 310 688 c 0
 350 718 415 706 439 661 c 0
 455 629 454 589 430 561 c 0
 417 546 400 537 382 530 c 0
 363 522 342 516 321 516 c 2
 295 516 l 2
 290 517 283 519 278 518 c 0
 273 518 270 514 265 513 c 0
 252 511 238 511 225 509 c 0
 194 502 165 486 141 465 c 0
 94 423 67 358 63 296 c 0
 61 274 62 253 67 232 c 0
 76 198 95 170 120 146 c 0
 131 136 143 128 155 121 c 0
 165 115 175 110 186 106 c 0
 238 87 308 81 349 126 c 0
 354 132 359 139 363 146 c 0
 379 177 376 218 350 243 c 0
 342 250 332 256 322 259 c 0
 314 262 305 264 297 264 c 0
 283 263 269 259 257 252 c 1
351 682 m 0
 304 677 285 619 308 582 c 0
 321 560 346 551 371 553 c 0
 382 554 394 558 403 565 c 0
 433 587 436 635 411 663 c 0
 396 680 373 684 351 682 c 0
EndSplineSet
EndChar
StartChar: uniE036
Encoding: 57398 57398 85
Width: 718
GlyphClass: 2
Flags: W
Fore
321 556 m 1
 311 559 303 566 296 573 c 0
 257 613 267 687 318 713 c 0
 350 729 394 724 420 699 c 0
 444 676 452 638 442 607 c 0
 429 567 391 547 353 538 c 0
 308 527 256 532 218 560 c 0
 209 566 200 575 194 584 c 0
 158 633 174 698 216 737 c 0
 235 754 258 766 282 775 c 0
 307 783 334 787 361 787 c 0
 413 787 468 773 506 735 c 0
 543 698 556 641 532 593 c 0
 526 582 519 573 511 564 c 0
 503 556 493 546 482 541 c 0
 472 537 461 547 468 557 c 0
 471 560 475 563 478 565 c 0
 483 569 488 573 493 578 c 0
 511 596 521 619 522 644 c 0
 523 692 487 730 445 749 c 0
 395 771 333 771 282 751 c 0
 260 742 239 730 223 712 c 0
 215 703 207 692 203 680 c 0
 194 657 194 631 205 609 c 0
 220 578 254 561 287 556 c 0
 298 555 310 554 321 556 c 1
347 699 m 0
 300 694 281 636 304 599 c 0
 317 577 342 568 367 570 c 0
 384 572 400 580 410 593 c 0
 430 618 428 658 407 681 c 0
 391 697 368 701 347 699 c 0
289 376 m 1
 283 410 273 446 242 466 c 0
 230 473 212 479 198 473 c 0
 191 470 185 463 180 457 c 0
 166 437 158 396 126 399 c 0
 122 399 118 400 115 402 c 0
 111 404 107 407 104 411 c 0
 99 417 96 423 94 430 c 0
 82 468 104 516 142 530 c 0
 165 539 191 535 213 526 c 0
 281 500 312 422 312 354 c 1
 234 354 l 2
 216 354 198 355 180 351 c 0
 150 345 122 330 101 308 c 0
 89 295 79 280 72 263 c 0
 66 248 62 230 62 214 c 0
 63 169 94 127 133 107 c 0
 156 96 181 91 207 92 c 0
 222 92 237 95 251 100 c 0
 256 102 263 103 266 107 c 0
 269 111 268 117 268 121 c 0
 269 128 270 136 273 143 c 0
 284 177 316 201 352 202 c 0
 361 202 370 202 379 200 c 0
 407 195 432 177 443 150 c 0
 446 141 449 132 450 123 c 0
 450 118 449 111 452 107 c 0
 454 104 458 103 461 102 c 2
 481 96 l 2
 513 89 548 91 578 104 c 0
 594 112 609 121 621 134 c 0
 631 145 639 157 646 171 c 0
 672 229 643 296 593 329 c 0
 572 343 547 352 522 354 c 0
 508 355 493 354 479 354 c 2
 405 354 l 1
 405 384 407 414 418 443 c 0
 426 464 439 485 456 501 c 0
 489 531 549 552 586 518 c 0
 612 494 622 455 624 421 c 0
 625 407 626 394 618 382 c 0
 610 369 595 364 581 360 c 1
 593 353 605 346 616 337 c 0
 646 312 666 278 674 240 c 0
 677 227 677 214 677 200 c 0
 677 113 622 20 532 4 c 0
 520 1 507 0 494 1 c 0
 470 3 447 11 428 25 c 0
 422 29 412 36 410 43 c 0
 409 48 412 53 414 57 c 0
 419 67 425 77 427 88 c 0
 429 94 428 100 428 106 c 0
 428 119 427 131 421 143 c 0
 409 170 378 183 349 180 c 0
 327 177 305 163 296 142 c 0
 291 131 290 118 290 106 c 0
 290 100 289 93 291 87 c 0
 293 77 300 67 304 57 c 0
 306 53 309 48 308 44 c 0
 308 41 305 38 303 36 c 0
 298 31 293 27 287 23 c 0
 263 7 234 -1 205 1 c 0
 190 2 176 5 162 10 c 0
 150 14 139 19 129 26 c 0
 67 66 40 139 40 210 c 0
 40 256 59 301 93 332 c 0
 102 340 112 348 124 353 c 1
 124 354 l 1
 78 354 l 2
 70 354 61 353 53 354 c 0
 44 355 36 364 44 372 c 0
 48 377 56 376 62 376 c 2
 107 376 l 1
 289 376 l 1
427 376 m 1
 503 376 l 2
 518 376 533 376 548 377 c 0
 561 378 575 379 587 385 c 0
 595 388 602 394 603 403 c 0
 603 407 602 410 602 414 c 0
 601 418 599 422 597 426 c 0
 594 431 591 436 586 439 c 0
 573 450 557 455 541 457 c 0
 507 461 467 450 445 423 c 0
 437 414 432 403 429 392 c 0
 428 387 428 381 427 376 c 1
EndSplineSet
EndChar
StartChar: uniE046
Encoding: 57414 57414 86
Width: 740
GlyphClass: 2
Flags: W
Fore
430 693 m 1
 426 665 404 645 380 633 c 0
 338 612 285 605 240 622 c 0
 226 627 213 634 201 643 c 0
 196 647 189 657 182 657 c 0
 179 657 176 655 173 653 c 2
 157 643 l 2
 134 626 114 607 96 586 c 0
 93 583 90 579 86 577 c 0
 79 575 72 581 72 588 c 0
 73 598 85 607 91 614 c 0
 106 630 122 645 140 658 c 0
 146 662 152 667 158 671 c 0
 161 673 166 675 169 678 c 0
 171 681 169 683 169 686 c 1
 167 691 165 696 164 701 c 0
 160 718 160 735 164 752 c 0
 179 819 249 856 312 865 c 0
 324 867 336 868 348 868 c 0
 420 869 504 835 526 760 c 0
 530 748 531 736 531 723 c 0
 531 707 527 693 521 678 c 1
 531 673 541 666 550 660 c 0
 568 646 586 631 601 614 c 0
 647 563 680 501 692 434 c 0
 699 401 699 368 698 334 c 0
 697 303 695 273 691 242 c 0
 682 181 667 116 629 66 c 0
 614 46 595 28 572 16 c 0
 524 -7 464 -4 422 30 c 0
 400 48 384 71 372 97 c 0
 367 109 364 121 359 133 c 1
 355 123 352 113 348 103 c 0
 338 80 325 59 308 41 c 0
 297 30 285 21 272 14 c 0
 232 -6 183 -2 144 17 c 0
 125 27 109 40 95 55 c 0
 58 94 40 151 40 204 c 0
 40 219 41 234 44 249 c 0
 50 274 63 298 80 318 c 0
 92 333 109 347 127 355 c 1
 127 356 l 1
 108 354 90 354 73 364 c 0
 67 367 62 371 58 376 c 0
 29 407 37 456 65 485 c 0
 84 505 111 516 137 521 c 0
 200 533 273 510 315 460 c 0
 332 440 344 416 348 390 c 0
 350 378 350 366 350 354 c 1
 247 354 l 2
 230 354 212 355 195 354 c 0
 169 351 144 342 123 327 c 0
 88 301 61 258 62 213 c 0
 63 190 71 167 84 149 c 0
 92 138 102 128 113 120 c 0
 127 109 143 102 160 97 c 0
 216 81 283 101 320 145 c 0
 332 159 341 176 345 194 c 0
 347 202 347 211 348 219 c 0
 349 225 355 230 361 228 c 0
 372 226 370 211 371 203 c 0
 374 181 384 160 399 143 c 0
 441 97 518 75 575 105 c 0
 604 120 626 147 640 176 c 0
 660 216 670 262 674 307 c 0
 678 348 678 389 670 430 c 0
 656 502 620 568 566 617 c 0
 551 631 535 644 518 654 c 0
 516 655 513 657 510 656 c 0
 505 654 501 648 498 644 c 0
 491 637 484 631 476 625 c 0
 470 621 463 617 456 623 c 0
 452 627 452 633 456 638 c 0
 460 642 465 645 470 649 c 0
 478 655 484 662 490 670 c 1
 430 693 l 1
502 689 m 1
 506 702 510 716 509 730 c 0
 508 744 505 758 499 770 c 0
 485 799 458 819 429 831 c 0
 374 852 308 851 255 825 c 0
 216 806 182 770 183 724 c 0
 183 712 187 700 191 689 c 1
 206 695 220 702 235 707 c 0
 240 709 244 710 249 712 c 0
 252 713 255 713 257 715 c 0
 260 719 260 726 261 731 c 0
 262 740 265 750 270 758 c 0
 292 796 340 812 380 795 c 0
 403 786 420 768 428 745 c 0
 430 739 431 733 432 727 c 0
 433 724 432 719 435 716 c 0
 438 711 449 710 455 708 c 0
 471 703 486 695 502 689 c 1
410 720 m 1
 410 728 408 736 405 744 c 0
 390 780 340 790 309 770 c 0
 292 759 282 740 282 720 c 1
 306 723 330 727 355 726 c 0
 373 725 392 723 410 720 c 1
409 698 m 1
 339 704 l 1
 283 698 l 1
 287 684 294 671 306 662 c 0
 328 645 366 646 388 664 c 0
 399 673 405 684 409 698 c 1
262 693 m 1
 242 687 222 681 204 671 c 1
 229 640 271 635 308 635 c 1
 308 636 l 1
 285 646 267 668 262 693 c 1
328 376 m 1
 326 391 322 406 316 420 c 0
 291 469 238 495 186 501 c 0
 164 503 137 503 117 493 c 1
 125 493 133 491 140 487 c 0
 178 469 190 421 168 386 c 0
 164 378 157 372 150 367 c 1
 150 366 l 1
 192 376 l 1
 240 376 l 1
 328 376 l 1
105 472 m 0
 93 471 81 465 73 456 c 0
 59 439 58 410 72 393 c 0
 83 380 100 376 117 377 c 0
 151 380 167 421 151 449 c 0
 142 465 123 473 105 472 c 0
EndSplineSet
EndChar
StartChar: uniE056
Encoding: 57430 57430 87
Width: 833
GlyphClass: 2
Flags: W
Fore
444 539 m 1
 434 542 426 549 419 556 c 0
 380 596 390 668 439 695 c 0
 471 712 517 707 543 682 c 0
 576 650 578 592 547 558 c 0
 532 542 512 533 492 526 c 0
 428 505 342 515 308 581 c 0
 304 590 300 600 299 610 c 0
 297 622 297 634 298 646 c 0
 300 661 306 675 313 688 c 0
 331 718 360 739 392 753 c 0
 445 775 508 776 562 758 c 0
 591 748 619 731 639 707 c 0
 651 691 661 673 665 653 c 0
 668 633 667 613 666 593 c 0
 665 572 663 552 658 531 c 1
 732 514 768 434 782 366 c 0
 790 326 795 284 792 243 c 0
 788 186 769 129 733 84 c 0
 722 70 708 56 694 45 c 0
 678 33 661 23 643 16 c 0
 620 6 594 0 569 1 c 0
 566 1 562 2 560 5 c 0
 554 10 556 19 563 22 c 0
 570 24 579 23 586 24 c 0
 598 25 610 28 621 31 c 0
 661 44 696 71 721 105 c 0
 780 186 793 314 722 392 c 0
 713 402 702 411 691 419 c 0
 681 426 670 431 659 435 c 0
 585 462 502 425 454 367 c 0
 444 355 436 343 429 330 c 0
 425 323 420 315 418 307 c 1
 432 305 445 299 457 292 c 0
 507 260 525 198 508 142 c 0
 493 96 458 62 416 39 c 0
 397 28 376 21 355 15 c 0
 341 11 326 8 312 5 c 0
 222 -9 116 11 64 93 c 0
 50 114 42 139 40 164 c 0
 39 180 40 197 40 213 c 0
 40 270 41 328 50 384 c 0
 56 417 64 450 81 479 c 0
 92 497 107 514 126 524 c 0
 167 545 220 536 251 502 c 0
 287 463 299 406 299 354 c 1
 220 354 129 330 84 259 c 0
 64 227 51 180 75 147 c 0
 96 118 133 106 167 100 c 0
 218 90 271 90 322 93 c 0
 359 95 396 97 431 110 c 0
 448 116 464 125 475 139 c 0
 498 167 497 209 474 236 c 0
 465 247 453 255 439 260 c 0
 425 265 409 265 394 260 c 0
 388 258 382 255 376 252 c 1
 381 274 388 296 396 317 c 0
 427 405 481 501 577 529 c 0
 596 534 616 535 636 535 c 1
 642 570 649 606 644 642 c 0
 637 688 599 721 557 736 c 0
 508 753 452 753 404 733 c 0
 381 724 360 711 344 692 c 0
 317 661 310 615 335 581 c 0
 341 572 350 563 360 557 c 0
 386 540 414 538 444 538 c 1
 444 539 l 1
470 682 m 0
 423 677 404 619 427 582 c 0
 440 560 465 551 490 553 c 0
 501 554 513 558 522 565 c 0
 552 587 555 635 530 663 c 0
 515 680 492 684 470 682 c 0
87 441 m 1
 87 439 l 1
 87 439 88 440 88 441 c 1
 87 441 l 1
63 266 m 1
 64 266 l 1
 97 320 157 353 218 367 c 0
 237 371 257 374 277 374 c 1
 276 401 273 433 256 456 c 0
 242 474 215 481 196 466 c 0
 188 460 183 451 179 442 c 0
 170 422 166 398 150 382 c 0
 147 379 144 377 140 375 c 0
 118 364 98 379 91 400 c 0
 89 406 88 412 87 418 c 0
 87 424 88 430 86 436 c 1
 82 422 78 408 75 394 c 0
 67 352 63 308 63 266 c 1
EndSplineSet
EndChar
StartChar: uniE066
Encoding: 57446 57446 88
Width: 718
GlyphClass: 2
Flags: W
Fore
409 693 m 1
 403 663 381 644 355 631 c 0
 314 612 263 606 220 621 c 0
 206 626 193 633 181 642 c 0
 176 646 169 656 162 657 c 0
 155 658 146 650 141 646 c 0
 130 638 119 630 109 621 c 0
 103 616 97 609 91 605 c 0
 84 599 70 601 72 613 c 0
 73 620 81 626 86 631 c 0
 99 643 114 655 129 665 c 0
 134 669 144 673 148 679 c 0
 150 684 144 695 143 700 c 0
 139 715 139 730 141 745 c 0
 151 807 211 847 268 861 c 0
 287 865 306 867 326 868 c 0
 331 868 335 867 340 867 c 0
 407 864 480 832 503 765 c 0
 508 753 510 739 510 726 c 0
 510 709 506 694 500 678 c 1
 527 664 551 643 573 621 c 0
 593 601 610 578 625 554 c 0
 711 411 688 217 570 98 c 0
 519 47 451 13 379 4 c 0
 341 -1 301 1 263 7 c 0
 192 18 114 47 71 108 c 0
 28 169 29 256 77 314 c 0
 89 329 105 346 124 353 c 1
 124 354 l 1
 78 354 l 2
 70 354 61 353 53 354 c 0
 44 355 36 364 44 372 c 0
 48 377 56 376 62 376 c 2
 107 376 l 1
 289 376 l 1
 283 410 273 446 242 466 c 0
 230 473 212 479 198 473 c 0
 191 470 185 463 180 457 c 0
 166 437 158 396 126 399 c 0
 122 399 118 400 115 402 c 0
 111 404 107 407 104 411 c 0
 99 417 96 423 94 430 c 0
 82 468 104 516 142 530 c 0
 165 539 191 535 213 526 c 0
 281 500 312 422 312 354 c 1
 239 354 l 2
 224 354 209 355 195 354 c 0
 170 351 146 342 125 328 c 0
 76 294 41 220 76 165 c 0
 82 156 90 148 98 141 c 0
 138 108 195 100 245 95 c 0
 292 91 341 89 388 95 c 0
 458 105 526 135 577 184 c 0
 612 218 638 261 649 309 c 0
 657 342 657 377 652 411 c 0
 642 484 609 553 556 606 c 0
 536 626 513 646 488 659 c 1
 480 644 464 631 450 622 c 0
 442 618 430 621 432 632 c 0
 433 639 440 643 445 646 c 0
 454 653 462 661 469 670 c 1
 436 684 l 1
 409 693 l 1
481 689 m 1
 485 705 488 720 487 737 c 0
 483 779 451 812 414 828 c 0
 358 852 289 852 234 825 c 0
 192 805 156 765 163 715 c 0
 164 706 166 697 170 689 c 1
 185 695 199 702 214 708 c 0
 219 709 223 711 228 712 c 0
 231 713 234 713 236 715 c 0
 239 719 239 727 239 732 c 0
 241 742 245 751 250 760 c 0
 272 798 321 811 360 795 c 0
 382 786 399 767 406 745 c 0
 409 739 410 733 411 727 c 0
 411 723 411 719 413 716 c 0
 417 711 428 710 434 708 c 0
 450 703 465 694 481 689 c 1
389 720 m 1
 388 736 382 752 371 763 c 0
 349 783 310 785 286 769 c 0
 269 757 263 739 260 720 c 1
 279 722 297 725 316 726 c 0
 341 727 365 723 389 720 c 1
387 698 m 1
 364 702 340 705 317 704 c 0
 298 703 280 701 262 698 c 1
 267 681 277 665 293 657 c 0
 328 639 381 655 387 698 c 1
241 692 m 1
 214 684 l 1
 183 671 l 1
 208 639 250 635 287 635 c 1
 287 636 l 1
 264 647 247 667 241 692 c 1
EndSplineSet
EndChar
StartChar: uniE076
Encoding: 57462 57462 89
Width: 676
GlyphClass: 2
Flags: W
Fore
299 556 m 1
 289 559 281 566 274 573 c 0
 235 613 245 687 296 713 c 0
 328 729 372 724 398 699 c 0
 429 669 432 616 407 581 c 0
 398 568 385 560 371 553 c 0
 320 528 256 523 206 553 c 0
 194 560 184 569 176 579 c 0
 170 586 165 594 161 602 c 0
 137 653 161 712 204 745 c 0
 242 775 291 787 339 787 c 0
 380 787 421 778 456 757 c 0
 486 738 511 709 519 674 c 0
 521 666 522 658 522 650 c 0
 522 646 522 642 519 639 c 0
 514 634 505 634 501 641 c 0
 499 646 500 651 499 656 c 0
 498 663 496 671 494 678 c 0
 485 704 463 723 440 736 c 0
 424 746 405 752 387 757 c 0
 366 762 343 765 322 765 c 0
 300 764 278 758 258 750 c 0
 235 741 214 728 199 709 c 0
 190 700 184 689 180 677 c 0
 172 655 172 631 182 610 c 0
 198 578 231 561 265 556 c 0
 276 555 288 554 299 556 c 1
367 376 m 1
 369 385 374 394 378 403 c 0
 385 421 393 438 402 455 c 0
 437 526 483 592 537 650 c 0
 553 667 570 684 587 700 c 0
 597 709 606 719 618 726 c 1
 641 686 l 1
 652 664 l 1
 599 636 549 601 507 558 c 0
 482 532 461 504 440 475 c 1
 463 486 487 496 513 490 c 0
 533 485 547 469 554 450 c 0
 566 420 561 384 549 354 c 1
 566 345 581 332 593 318 c 0
 633 271 647 202 624 144 c 0
 615 123 603 104 587 88 c 0
 530 30 444 6 364 2 c 0
 349 1 335 0 320 1 c 0
 235 5 141 29 82 94 c 0
 24 158 26 261 85 324 c 0
 101 341 122 354 143 363 c 0
 159 370 176 374 193 376 c 0
 205 377 218 376 230 376 c 2
 289 376 l 1
 283 410 273 446 242 466 c 0
 230 473 212 479 198 473 c 0
 191 470 185 463 180 457 c 0
 166 437 158 396 126 399 c 0
 122 399 118 400 115 402 c 0
 111 404 107 407 104 411 c 0
 99 417 96 423 94 430 c 0
 82 468 104 516 142 530 c 0
 165 539 191 535 213 526 c 0
 281 500 312 422 312 354 c 1
 237 354 l 2
 223 354 210 355 196 354 c 0
 177 352 159 347 142 338 c 0
 83 308 36 225 78 163 c 0
 84 154 91 146 99 140 c 0
 129 116 168 106 205 100 c 0
 247 93 290 92 332 92 c 0
 368 92 405 93 441 96 c 0
 490 101 546 111 583 146 c 0
 590 153 596 160 601 169 c 0
 634 228 597 306 540 335 c 1
 536 324 529 313 522 303 c 0
 502 274 474 250 439 242 c 0
 414 236 387 239 370 261 c 0
 353 284 352 314 356 341 c 0
 358 353 363 364 363 376 c 1
 367 376 l 1
325 699 m 0
 278 694 259 636 282 599 c 0
 295 577 320 568 345 570 c 0
 362 572 378 580 388 593 c 0
 408 618 406 658 385 681 c 0
 369 697 346 701 325 699 c 0
529 364 m 1
 539 386 542 414 535 437 c 0
 532 450 524 463 511 467 c 0
 499 472 483 469 471 465 c 0
 432 452 405 412 390 376 c 1
 448 376 l 1
 489 375 l 1
 529 364 l 1
520 345 m 1
 500 351 482 354 461 354 c 2
 406 354 l 2
 400 354 389 356 384 353 c 0
 378 350 378 338 377 332 c 0
 374 311 376 282 394 268 c 0
 407 259 424 261 438 265 c 0
 466 272 488 293 505 316 c 0
 511 325 517 335 520 345 c 1
EndSplineSet
EndChar
StartChar: uniE086
Encoding: 57478 57478 90
Width: 676
GlyphClass: 2
Flags: W
Fore
299 556 m 1
 289 559 281 566 274 573 c 0
 236 612 244 684 293 711 c 0
 325 729 372 724 399 698 c 0
 427 669 432 622 411 588 c 0
 397 564 371 551 345 542 c 0
 288 523 214 531 174 581 c 0
 168 588 164 596 160 604 c 0
 156 614 153 625 152 636 c 0
 151 649 152 662 156 675 c 0
 167 719 203 750 243 768 c 0
 302 793 375 795 434 768 c 0
 475 750 509 717 519 673 c 1
 537 688 557 700 578 711 c 0
 591 717 604 723 618 726 c 1
 641 685 l 1
 652 665 l 1
 631 664 609 661 589 655 c 0
 548 642 510 617 483 583 c 0
 468 565 458 545 448 524 c 1
 458 527 467 531 477 533 c 0
 507 538 540 533 563 511 c 0
 598 476 598 414 563 379 c 0
 556 372 547 365 537 362 c 1
 537 360 l 1
 558 353 579 335 593 318 c 0
 633 271 647 203 624 145 c 0
 617 128 607 111 595 97 c 0
 572 69 541 49 508 35 c 0
 450 9 383 -1 320 1 c 0
 235 5 141 29 82 94 c 0
 24 158 26 261 85 324 c 0
 101 341 122 354 143 363 c 0
 159 370 176 374 193 376 c 0
 205 377 218 376 230 376 c 2
 289 376 l 1
 283 410 273 446 242 466 c 0
 230 473 212 479 198 473 c 0
 191 470 185 463 180 457 c 0
 166 437 158 396 126 399 c 0
 122 399 118 400 115 402 c 0
 111 404 107 407 104 411 c 0
 99 417 96 423 94 430 c 0
 82 468 104 516 142 530 c 0
 165 539 191 535 213 526 c 0
 281 500 312 422 312 354 c 1
 237 354 l 2
 223 354 210 355 196 354 c 0
 178 352 159 347 143 339 c 0
 103 319 73 281 65 238 c 0
 60 214 62 189 75 167 c 0
 81 158 88 150 96 142 c 0
 121 120 155 110 187 103 c 0
 247 91 307 92 368 92 c 0
 413 92 459 96 503 107 c 0
 528 113 553 122 573 137 c 0
 583 145 591 154 598 164 c 0
 627 208 611 269 578 306 c 0
 564 321 546 333 527 342 c 0
 500 354 471 354 442 354 c 2
 363 354 l 1
 363 393 369 430 388 465 c 0
 393 473 398 482 404 489 c 0
 409 494 414 499 417 505 c 0
 421 514 422 526 426 536 c 0
 431 554 439 571 448 587 c 0
 457 604 469 621 481 636 c 0
 487 642 498 650 498 659 c 0
 499 669 493 682 488 691 c 0
 473 717 447 735 419 746 c 0
 389 758 354 766 322 765 c 0
 279 763 232 745 202 713 c 0
 174 683 164 635 189 599 c 0
 196 589 204 581 214 575 c 0
 240 557 269 555 299 555 c 1
 299 556 l 1
325 699 m 0
 278 694 259 636 282 599 c 0
 295 577 320 568 345 570 c 0
 362 572 378 580 388 593 c 0
 408 618 406 658 385 681 c 0
 369 697 346 701 325 699 c 0
492 513 m 0
 479 512 466 508 454 502 c 0
 449 499 443 496 440 492 c 0
 437 488 437 484 436 480 c 0
 435 472 434 465 434 457 c 0
 434 444 434 431 438 419 c 0
 449 390 478 375 508 377 c 0
 519 378 530 381 539 387 c 0
 573 411 576 465 549 494 c 0
 534 509 512 514 492 513 c 0
412 461 m 1
 406 454 403 446 399 438 c 0
 391 418 389 397 385 376 c 1
 442 376 l 1
 428 392 416 408 413 429 c 0
 411 440 412 450 412 461 c 1
EndSplineSet
EndChar
StartChar: uniE096
Encoding: 57494 57494 91
Width: 1317
GlyphClass: 2
Flags: W
Fore
991 693 m 1
 987 665 965 645 941 633 c 0
 899 612 846 605 801 622 c 0
 787 627 774 634 762 643 c 0
 757 647 750 657 743 657 c 0
 740 657 737 655 734 653 c 2
 718 643 l 2
 695 626 675 607 657 586 c 0
 654 583 651 579 647 577 c 0
 640 575 633 581 633 588 c 0
 634 598 646 607 652 614 c 0
 667 630 683 645 701 658 c 0
 707 662 713 667 719 671 c 0
 722 673 727 675 730 678 c 0
 732 681 730 683 730 686 c 1
 728 691 726 696 725 701 c 0
 721 718 721 735 725 752 c 0
 740 819 810 856 873 865 c 0
 885 867 897 868 909 868 c 0
 981 869 1065 835 1087 760 c 0
 1091 748 1092 735 1092 722 c 0
 1092 707 1088 692 1082 678 c 1
 1092 673 1102 666 1111 660 c 0
 1129 646 1147 631 1162 614 c 0
 1208 563 1241 501 1253 434 c 0
 1260 401 1260 368 1259 334 c 0
 1258 303 1256 273 1252 242 c 0
 1243 181 1228 117 1191 67 c 0
 1176 46 1156 28 1133 16 c 0
 1085 -7 1025 -4 983 30 c 0
 962 47 945 71 934 96 c 0
 928 108 925 121 920 133 c 1
 914 118 910 103 903 89 c 0
 888 59 865 31 835 15 c 0
 796 -6 744 -3 706 18 c 0
 675 36 651 64 635 95 c 0
 629 107 623 119 620 132 c 1
 619 132 l 1
 617 113 611 93 604 75 c 0
 598 60 590 46 579 34 c 0
 539 -14 467 -3 418 26 c 0
 410 30 402 36 395 42 c 0
 385 50 377 58 369 68 c 0
 364 75 359 83 353 90 c 1
 350 76 343 62 336 50 c 0
 327 36 316 22 301 14 c 0
 281 1 258 0 235 2 c 0
 209 4 183 12 159 24 c 0
 148 29 138 36 128 44 c 0
 123 47 119 52 114 55 c 0
 108 59 103 57 97 55 c 0
 90 53 82 50 75 48 c 0
 69 47 61 46 59 54 c 0
 58 62 62 72 64 80 c 0
 70 98 76 116 83 134 c 0
 112 209 152 281 204 343 c 0
 223 366 244 388 266 407 c 0
 273 413 289 422 285 432 c 0
 280 444 271 455 261 464 c 0
 253 470 244 476 235 479 c 0
 228 482 220 484 212 485 c 0
 207 485 203 485 198 484 c 0
 181 482 168 470 158 456 c 0
 143 435 134 409 116 390 c 0
 101 374 74 365 56 382 c 0
 53 386 50 390 48 394 c 0
 41 409 40 426 42 442 c 0
 48 478 71 510 105 525 c 0
 126 534 147 536 169 534 c 0
 204 531 240 518 267 495 c 0
 283 481 300 461 305 439 c 1
 345 467 387 491 433 508 c 0
 519 539 614 544 702 520 c 0
 735 511 767 498 797 482 c 0
 804 478 811 474 818 469 c 0
 821 467 824 464 824 459 c 0
 824 454 821 451 817 449 c 0
 809 446 798 447 789 446 c 0
 750 441 713 422 685 394 c 0
 641 350 616 284 625 221 c 0
 633 163 673 107 733 95 c 0
 763 88 796 93 824 104 c 0
 857 118 886 143 901 176 c 0
 905 186 907 196 908 206 c 0
 909 211 908 216 910 220 c 0
 911 224 914 228 919 229 c 0
 925 229 930 224 931 218 c 0
 932 210 932 201 934 193 c 0
 938 175 947 159 958 145 c 0
 999 98 1075 76 1133 103 c 0
 1155 114 1173 131 1186 151 c 0
 1216 194 1229 248 1234 299 c 0
 1239 342 1240 386 1231 429 c 0
 1214 519 1160 602 1083 652 c 0
 1080 653 1075 657 1072 657 c 1
 1067 655 1064 649 1061 646 c 0
 1054 639 1048 633 1040 627 c 0
 1034 623 1025 616 1017 623 c 0
 1013 627 1013 633 1017 638 c 0
 1021 642 1026 645 1031 649 c 0
 1039 655 1045 662 1051 670 c 1
 991 693 l 1
1063 689 m 1
 1067 702 1071 716 1070 730 c 0
 1069 744 1066 758 1060 770 c 0
 1046 799 1019 819 990 831 c 0
 935 852 869 851 816 825 c 0
 777 806 743 770 744 724 c 0
 744 712 748 700 752 689 c 1
 767 695 781 702 796 707 c 0
 801 709 805 710 810 712 c 0
 813 713 816 713 818 715 c 0
 821 719 821 726 822 731 c 0
 823 740 826 750 831 758 c 0
 853 796 901 812 941 795 c 0
 964 786 981 768 989 745 c 0
 991 739 992 733 993 727 c 0
 994 724 993 719 996 716 c 0
 999 711 1010 710 1016 708 c 0
 1032 703 1047 695 1063 689 c 1
971 720 m 1
 971 728 969 736 966 744 c 0
 951 780 901 790 870 770 c 0
 853 759 843 740 843 720 c 1
 867 723 891 727 916 726 c 0
 934 725 953 723 971 720 c 1
970 698 m 1
 900 704 l 1
 844 698 l 1
 848 684 854 673 865 664 c 0
 887 646 925 645 947 662 c 0
 959 671 966 684 970 698 c 1
823 693 m 1
 803 687 783 681 765 671 c 1
 790 640 832 635 869 635 c 1
 869 636 l 1
 846 646 828 668 823 693 c 1
777 467 m 1
 766 475 752 479 740 484 c 0
 709 497 676 505 643 509 c 0
 525 524 408 489 314 418 c 0
 298 406 282 392 267 378 c 0
 257 369 247 360 239 349 c 1
 279 369 320 382 364 385 c 0
 456 391 554 350 601 269 c 1
 605 277 605 287 607 296 c 0
 610 311 615 326 621 340 c 0
 644 389 682 429 731 452 c 0
 746 459 761 462 777 467 c 1
361 363 m 0
 311 359 263 342 222 314 c 0
 210 305 198 296 188 286 c 0
 181 278 176 269 171 261 c 0
 163 248 155 235 148 222 c 0
 137 203 128 184 119 164 c 0
 116 158 109 148 111 141 c 0
 113 134 123 129 129 125 c 0
 177 92 252 74 302 115 c 0
 310 121 317 128 322 136 c 0
 338 158 346 182 348 209 c 0
 349 216 350 228 360 228 c 0
 369 228 371 218 371 211 c 0
 371 202 370 192 370 183 c 0
 369 174 368 165 373 157 c 0
 400 113 451 89 502 92 c 0
 515 93 528 96 540 101 c 0
 550 105 560 110 568 117 c 0
 582 128 594 144 599 162 c 0
 601 171 601 179 601 188 c 0
 601 216 592 244 577 268 c 0
 531 338 442 369 361 363 c 0
EndSplineSet
EndChar
StartChar: uniE0AC
Encoding: 57516 57516 92
Width: 1023
GlyphClass: 2
Flags: W
Fore
754 608 m 1
 741 613 730 622 723 633 c 0
 692 675 703 740 750 764 c 0
 780 780 823 777 849 755 c 0
 877 731 886 691 874 657 c 0
 870 645 864 633 855 624 c 0
 837 606 809 596 785 590 c 0
 726 576 653 589 620 646 c 0
 616 654 612 664 610 673 c 0
 607 686 607 698 608 711 c 0
 609 725 614 739 620 752 c 0
 648 804 708 831 764 838 c 0
 835 846 920 826 960 761 c 0
 973 740 977 717 977 693 c 0
 977 647 959 601 929 566 c 0
 918 554 905 543 891 534 c 0
 884 530 877 526 869 524 c 1
 874 520 880 517 885 514 c 0
 893 508 902 501 909 494 c 0
 937 465 954 426 960 386 c 0
 962 373 964 359 962 346 c 0
 960 340 957 334 955 328 c 1
 945 331 937 336 927 340 c 0
 913 345 898 348 883 350 c 0
 819 357 746 329 711 273 c 0
 702 259 696 243 693 226 c 0
 691 209 692 192 695 175 c 0
 703 123 734 67 788 51 c 0
 799 48 810 46 821 46 c 0
 858 46 897 55 930 70 c 0
 946 77 960 87 976 95 c 1
 978 90 983 81 982 75 c 0
 981 71 977 68 974 66 c 2
 961 53 l 2
 949 40 938 26 929 11 c 0
 905 -29 893 -74 890 -120 c 0
 888 -147 891 -174 909 -196 c 0
 922 -212 940 -217 958 -225 c 0
 965 -228 972 -231 978 -237 c 0
 985 -245 985 -258 977 -265 c 0
 966 -274 947 -273 934 -271 c 0
 892 -266 856 -236 844 -195 c 0
 837 -172 839 -146 843 -123 c 0
 851 -69 875 -21 906 23 c 1
 833 -6 749 -10 682 37 c 0
 670 46 658 56 648 68 c 0
 635 82 623 99 617 117 c 1
 616 117 l 1
 614 99 607 81 599 65 c 0
 590 47 579 30 562 18 c 0
 517 -14 450 3 408 32 c 0
 394 41 381 53 371 66 c 0
 365 74 360 83 353 90 c 1
 350 76 343 61 335 49 c 0
 326 35 315 22 301 14 c 0
 281 1 258 0 235 2 c 0
 209 4 183 11 160 23 c 0
 149 29 138 36 128 44 c 0
 123 47 118 52 113 56 c 0
 108 58 103 57 98 56 c 0
 90 53 83 50 75 48 c 0
 69 47 61 46 60 53 c 0
 58 60 59 69 58 77 c 0
 56 97 54 116 53 136 c 0
 46 210 43 283 42 357 c 0
 42 375 41 393 41 411 c 0
 41 434 42 456 54 477 c 0
 61 490 70 502 82 511 c 0
 91 518 102 524 113 528 c 0
 122 531 131 533 140 534 c 0
 207 542 260 490 288 435 c 0
 295 422 302 408 305 394 c 1
 317 400 328 408 339 415 c 0
 361 427 383 439 406 450 c 0
 486 487 571 510 658 524 c 0
 693 529 729 532 764 534 c 0
 774 534 785 535 795 535 c 0
 808 535 821 534 834 537 c 0
 861 541 885 554 905 573 c 0
 920 588 932 607 941 626 c 0
 948 643 952 661 954 679 c 0
 955 693 955 706 953 719 c 0
 944 759 911 788 874 803 c 0
 813 827 735 822 680 784 c 0
 664 773 649 759 640 741 c 0
 626 714 625 678 643 653 c 0
 649 644 656 636 665 630 c 0
 691 610 723 607 754 607 c 1
 754 608 l 1
789 752 m 0
 772 751 755 745 744 732 c 0
 718 702 723 648 760 629 c 0
 771 623 784 621 797 622 c 0
 815 623 833 631 844 646 c 0
 868 678 858 732 819 747 c 0
 810 751 799 752 789 752 c 0
740 510 m 1
 708 510 676 504 645 499 c 0
 573 487 502 467 435 438 c 0
 409 427 384 415 359 401 c 0
 347 394 335 387 324 379 c 1
 348 383 372 386 397 385 c 0
 483 380 577 334 610 250 c 1
 611 250 l 1
 617 265 624 279 633 292 c 0
 677 356 757 392 834 389 c 0
 861 388 888 382 913 373 c 2
 940 361 l 1
 939 368 939 376 937 383 c 0
 931 423 907 474 860 475 c 0
 853 475 846 475 839 472 c 0
 810 461 793 424 760 422 c 0
 732 421 716 452 721 476 c 0
 724 490 732 499 740 510 c 1
78 117 m 1
 98 174 132 226 170 272 c 0
 180 285 190 298 201 310 c 0
 211 320 221 328 232 337 c 0
 242 344 251 353 261 361 c 0
 267 365 272 369 278 374 c 0
 281 376 285 378 286 381 c 0
 287 385 286 389 285 392 c 2
 276 416 l 2
 265 445 247 480 213 484 c 0
 208 485 203 485 198 485 c 0
 182 483 169 472 160 459 c 0
 146 440 137 419 124 400 c 0
 113 386 98 373 79 373 c 0
 73 373 68 375 63 377 c 1
 70 209 l 1
 74 151 l 1
 77 117 l 1
 78 117 l 1
363 363 m 0
 325 360 285 348 253 326 c 0
 237 314 223 299 210 285 c 0
 190 264 172 242 155 218 c 0
 143 200 131 181 121 161 c 0
 119 156 111 145 113 139 c 0
 114 136 118 133 121 131 c 0
 129 125 138 119 147 114 c 0
 194 90 258 79 302 115 c 0
 310 121 317 128 322 136 c 0
 338 158 346 182 348 209 c 0
 349 216 350 228 360 228 c 0
 369 228 371 218 371 211 c 0
 371 202 370 192 370 183 c 0
 369 174 368 165 373 157 c 0
 400 113 451 89 502 92 c 0
 515 93 528 96 540 101 c 0
 550 105 560 110 568 117 c 0
 583 129 594 145 599 163 c 0
 601 171 601 180 601 188 c 0
 601 216 592 244 577 267 c 0
 533 337 443 369 363 363 c 0
906 24 m 1
 906 22 l 1
 906 22 907 23 907 24 c 1
 906 24 l 1
EndSplineSet
EndChar
StartChar: uniE0CC
Encoding: 57548 57548 93
Width: 937
GlyphClass: 2
Flags: W
Fore
668 608 m 1
 655 613 644 622 637 633 c 0
 606 675 617 740 664 764 c 0
 694 780 737 777 763 755 c 0
 791 731 800 691 788 657 c 0
 784 645 778 633 769 624 c 0
 751 606 723 596 699 590 c 0
 640 576 567 589 534 646 c 0
 530 654 526 664 524 673 c 0
 521 686 521 698 522 711 c 0
 523 725 528 739 534 752 c 0
 562 804 622 831 678 838 c 0
 749 846 834 826 874 761 c 0
 887 740 891 717 891 693 c 0
 891 647 873 601 843 566 c 0
 832 554 819 543 805 534 c 0
 798 530 791 526 783 524 c 1
 789 519 796 515 803 511 c 0
 812 504 820 496 828 488 c 0
 852 461 867 425 873 390 c 0
 875 377 878 362 876 348 c 0
 875 341 871 334 869 328 c 1
 859 331 851 336 841 340 c 0
 827 345 812 348 797 350 c 0
 733 357 660 329 625 273 c 0
 616 259 610 243 607 226 c 0
 605 209 606 192 609 175 c 0
 617 123 648 67 702 51 c 0
 713 48 724 46 735 46 c 0
 772 46 811 55 844 70 c 0
 860 77 874 87 890 95 c 1
 892 90 897 81 896 75 c 0
 895 71 891 68 888 66 c 2
 875 53 l 2
 863 40 852 26 843 11 c 0
 819 -29 807 -74 804 -120 c 0
 802 -147 805 -174 823 -196 c 0
 836 -212 854 -217 872 -225 c 0
 879 -228 886 -231 892 -237 c 0
 899 -245 899 -258 891 -265 c 0
 880 -274 861 -273 848 -271 c 0
 806 -266 770 -236 758 -195 c 0
 751 -172 753 -146 757 -123 c 0
 765 -69 789 -21 820 23 c 1
 747 -6 663 -10 596 37 c 0
 583 47 571 58 560 70 c 0
 548 84 538 100 531 117 c 0
 522 136 516 157 516 178 c 1
 515 178 l 1
 512 110 461 58 401 31 c 0
 363 14 321 4 279 2 c 0
 238 0 197 4 158 19 c 0
 104 41 58 83 45 141 c 0
 40 160 41 178 41 197 c 0
 41 218 41 238 42 259 c 2
 42 284 l 2
 44 331 47 380 60 426 c 0
 67 451 77 477 94 497 c 0
 104 508 116 518 129 525 c 0
 172 546 225 534 256 497 c 0
 289 458 300 404 300 354 c 1
 221 354 130 330 85 259 c 0
 65 227 52 180 76 147 c 0
 97 118 134 106 168 100 c 0
 219 90 272 90 323 93 c 0
 360 95 397 97 432 110 c 0
 449 116 465 125 476 139 c 0
 499 167 498 209 475 236 c 0
 466 247 454 255 440 260 c 0
 426 265 410 265 395 260 c 0
 389 258 383 255 377 252 c 1
 379 261 382 270 385 279 c 0
 387 288 389 298 393 307 c 0
 431 405 513 483 613 517 c 0
 640 526 669 531 698 534 c 0
 719 535 741 534 762 540 c 0
 789 548 812 564 830 586 c 0
 840 598 848 611 854 625 c 0
 861 642 866 660 868 678 c 0
 870 697 869 716 862 734 c 0
 849 770 813 795 777 807 c 0
 728 823 673 821 626 801 c 0
 602 792 579 777 564 756 c 0
 543 729 536 691 552 660 c 0
 560 646 572 634 585 626 c 0
 610 609 639 607 668 607 c 1
 668 608 l 1
703 752 m 0
 686 751 669 745 658 732 c 0
 632 702 637 648 674 629 c 0
 685 623 698 621 711 622 c 0
 729 623 747 631 758 646 c 0
 782 678 772 732 733 747 c 0
 724 751 713 752 703 752 c 0
647 503 m 1
 628 500 609 492 592 485 c 0
 537 461 488 422 453 373 c 0
 439 353 426 331 418 308 c 1
 430 304 443 300 454 293 c 0
 486 275 512 239 514 201 c 1
 515 201 l 1
 519 227 524 251 536 275 c 0
 576 350 666 393 749 389 c 0
 776 387 802 382 827 373 c 2
 854 361 l 1
 853 368 853 376 851 383 c 0
 845 423 821 473 775 475 c 0
 768 475 761 475 754 473 c 0
 724 462 709 427 677 423 c 0
 651 419 632 445 634 469 c 0
 635 482 641 492 647 503 c 1
88 441 m 1
 88 439 l 1
 88 439 89 440 89 441 c 1
 88 441 l 1
820 22 m 1
 820 20 l 1
 820 20 821 21 821 22 c 1
 820 22 l 1
64 264 m 1
 65 264 l 1
 98 318 158 351 219 365 c 0
 238 369 258 372 278 372 c 1
 277 399 274 431 257 454 c 0
 243 472 216 479 197 464 c 0
 189 458 184 449 180 440 c 0
 171 420 167 396 151 380 c 0
 148 377 145 375 141 373 c 0
 119 362 99 377 92 398 c 0
 90 404 89 410 88 416 c 0
 88 422 89 428 87 434 c 1
 83 420 79 406 76 392 c 0
 68 350 64 306 64 264 c 1
EndSplineSet
EndChar
StartChar: uniE0E6
Encoding: 57574 57574 95
Width: 676
GlyphClass: 2
Flags: W
Fore
299 556 m 1
 289 559 281 566 274 573 c 0
 236 612 244 684 293 711 c 0
 325 729 372 724 399 698 c 0
 427 669 432 622 411 588 c 0
 397 564 371 551 345 542 c 0
 288 523 214 531 174 581 c 0
 168 588 164 596 160 604 c 0
 156 614 153 625 152 636 c 0
 151 649 152 662 156 675 c 0
 167 719 203 750 243 768 c 0
 302 793 375 795 434 768 c 0
 475 750 509 717 519 673 c 1
 537 688 557 700 578 711 c 0
 591 717 604 723 618 726 c 1
 641 685 l 1
 652 665 l 1
 631 664 609 661 589 655 c 0
 548 642 510 617 483 583 c 0
 468 565 458 545 448 524 c 1
 458 527 467 531 477 533 c 0
 507 538 540 533 563 511 c 0
 598 476 598 414 563 379 c 0
 556 372 547 365 537 362 c 1
 537 360 l 1
 558 353 578 336 592 319 c 0
 633 271 647 202 623 143 c 0
 614 119 598 99 580 81 c 0
 546 49 501 29 457 17 c 0
 373 -6 281 -5 198 23 c 0
 149 39 101 66 70 109 c 0
 55 131 45 156 41 182 c 0
 39 201 40 221 40 240 c 0
 40 265 40 290 42 315 c 0
 46 362 47 410 65 455 c 0
 72 474 82 493 96 507 c 0
 143 553 219 538 261 494 c 0
 296 457 312 404 312 354 c 1
 237 354 l 2
 223 354 210 355 196 354 c 0
 178 352 159 347 143 339 c 0
 103 319 73 281 65 238 c 0
 60 214 62 189 75 167 c 0
 81 158 88 150 96 142 c 0
 121 120 155 110 187 103 c 0
 247 91 307 92 368 92 c 0
 413 92 459 96 503 107 c 0
 528 113 553 122 573 137 c 0
 583 145 591 154 598 164 c 0
 627 208 611 269 578 306 c 0
 564 321 546 333 527 342 c 0
 500 354 471 354 442 354 c 2
 363 354 l 1
 363 393 369 430 388 465 c 0
 393 473 398 482 404 489 c 0
 409 494 414 499 417 505 c 0
 421 514 422 526 426 536 c 0
 431 554 439 571 448 587 c 0
 457 604 469 621 481 636 c 0
 487 642 498 650 498 659 c 0
 499 669 493 682 488 691 c 0
 473 717 447 735 419 746 c 0
 389 758 354 766 322 765 c 0
 279 763 232 745 202 713 c 0
 174 683 164 635 189 599 c 0
 196 589 204 581 214 575 c 0
 240 557 269 555 299 555 c 1
 299 556 l 1
325 699 m 0
 278 694 259 636 282 599 c 0
 295 577 320 568 345 570 c 0
 362 572 378 580 388 593 c 0
 408 618 406 658 385 681 c 0
 369 697 346 701 325 699 c 0
492 513 m 0
 479 512 466 508 454 502 c 0
 449 499 443 496 440 492 c 0
 437 488 437 484 436 480 c 0
 435 472 434 465 434 457 c 0
 434 444 434 431 438 419 c 0
 449 390 478 375 508 377 c 0
 519 378 530 381 539 387 c 0
 573 411 576 465 549 494 c 0
 534 509 512 514 492 513 c 0
289 376 m 1
 284 410 273 450 240 468 c 0
 227 474 208 479 195 472 c 0
 189 468 184 463 180 457 c 0
 177 453 175 448 172 444 c 0
 163 425 151 396 125 399 c 0
 122 399 119 400 116 402 c 0
 112 404 108 407 105 410 c 0
 101 415 97 421 95 427 c 0
 91 438 93 448 90 459 c 1
 75 423 69 384 66 345 c 0
 65 328 63 312 63 295 c 1
 64 295 l 1
 91 340 139 369 191 375 c 0
 203 377 215 376 227 376 c 2
 289 376 l 1
412 461 m 1
 406 454 403 446 399 438 c 0
 391 418 389 397 385 376 c 1
 442 376 l 1
 428 392 416 408 413 429 c 0
 411 440 412 450 412 461 c 1
EndSplineSet
EndChar
StartChar: uniE0F6
Encoding: 57590 57590 102
Width: 718
GlyphClass: 2
Flags: W
Fore
409 693 m 1
 403 663 381 644 355 631 c 0
 314 612 263 606 220 621 c 0
 206 626 193 633 181 642 c 0
 176 646 169 656 162 657 c 0
 155 658 146 650 141 646 c 0
 130 638 119 630 109 621 c 0
 103 616 97 609 91 605 c 0
 84 599 70 601 72 613 c 0
 73 620 81 626 86 631 c 0
 99 643 114 655 129 665 c 0
 134 669 144 673 148 679 c 0
 150 684 144 695 143 700 c 0
 139 715 139 730 141 745 c 0
 151 807 211 847 268 861 c 0
 287 865 306 867 326 868 c 0
 331 868 335 867 340 867 c 0
 407 864 480 832 503 765 c 0
 508 753 510 739 510 726 c 0
 510 709 506 694 500 678 c 1
 512 672 524 663 535 655 c 0
 559 637 580 615 599 592 c 0
 629 553 652 508 665 461 c 0
 695 350 671 226 601 134 c 0
 579 105 552 80 522 58 c 0
 493 38 461 23 427 14 c 0
 390 3 351 -1 313 2 c 0
 270 5 228 18 190 38 c 0
 82 95 16 227 47 347 c 0
 54 373 65 399 81 421 c 0
 93 439 108 456 126 470 c 0
 147 486 170 498 195 505 c 0
 260 524 332 509 387 471 c 0
 409 456 429 436 445 414 c 0
 450 407 461 394 450 386 c 0
 443 382 437 386 433 391 c 0
 421 406 411 421 397 434 c 0
 352 475 291 497 230 490 c 0
 143 479 79 405 65 321 c 0
 59 286 62 251 77 219 c 0
 108 154 180 117 248 102 c 0
 375 73 521 108 604 214 c 0
 625 242 641 274 649 308 c 0
 657 342 657 377 652 411 c 0
 642 484 609 553 557 605 c 0
 537 625 514 646 488 659 c 1
 480 644 464 631 450 622 c 0
 442 618 430 621 432 632 c 0
 433 639 440 643 445 646 c 0
 454 653 462 661 469 670 c 1
 436 684 l 1
 409 693 l 1
481 689 m 1
 485 705 488 720 487 737 c 0
 483 779 451 812 414 828 c 0
 358 852 289 852 234 825 c 0
 192 805 156 765 163 715 c 0
 164 706 166 697 170 689 c 1
 185 695 199 702 214 708 c 0
 219 709 223 711 228 712 c 0
 231 713 234 713 236 715 c 0
 239 719 239 727 239 732 c 0
 241 742 245 751 250 760 c 0
 272 798 321 811 360 795 c 0
 382 786 399 767 406 745 c 0
 409 739 410 733 411 727 c 0
 411 723 411 719 413 716 c 0
 417 711 428 710 434 708 c 0
 450 703 465 694 481 689 c 1
389 720 m 1
 388 736 382 752 371 763 c 0
 349 783 310 785 286 769 c 0
 269 757 263 739 260 720 c 1
 279 722 297 725 316 726 c 0
 341 727 365 723 389 720 c 1
387 698 m 1
 364 702 340 705 317 704 c 0
 298 703 280 701 262 698 c 1
 267 681 277 665 293 657 c 0
 328 639 381 655 387 698 c 1
241 692 m 1
 214 684 l 1
 183 671 l 1
 208 639 250 635 287 635 c 1
 287 636 l 1
 264 647 247 667 241 692 c 1
EndSplineSet
EndChar
StartChar: uniE106
Encoding: 57606 57606 109
Width: 676
GlyphClass: 2
Flags: W
Fore
172 597 m 1
 122 619 115 691 146 730 c 0
 174 765 229 770 265 746 c 0
 277 738 287 726 293 712 c 0
 300 697 302 680 301 663 c 0
 298 644 290 624 276 610 c 0
 258 593 231 583 207 578 c 0
 148 566 80 583 46 636 c 0
 41 644 37 653 34 662 c 0
 30 675 29 688 29 701 c 0
 29 716 33 731 40 744 c 0
 48 761 60 776 75 789 c 0
 87 799 101 807 116 813 c 0
 128 818 141 821 154 823 c 0
 239 838 319 792 382 741 c 0
 412 716 441 691 467 663 c 0
 522 604 567 533 597 458 c 0
 611 423 623 388 629 351 c 0
 635 313 636 275 634 237 c 0
 633 210 632 183 627 156 c 0
 621 115 611 70 583 37 c 0
 574 27 563 18 551 11 c 0
 507 -10 451 3 416 35 c 0
 398 52 383 73 373 96 c 0
 367 108 364 121 359 133 c 1
 355 123 352 114 348 104 c 0
 341 85 331 68 318 52 c 0
 308 40 296 29 282 20 c 0
 242 -5 187 -5 146 18 c 0
 118 33 97 56 81 83 c 0
 65 109 55 139 48 169 c 0
 40 206 37 245 43 282 c 0
 51 336 80 388 122 423 c 0
 152 447 187 463 225 468 c 0
 228 469 230 469 233 469 c 0
 242 470 260 474 262 461 c 0
 265 447 249 448 240 447 c 0
 206 444 174 433 146 413 c 0
 70 358 35 242 86 159 c 0
 100 135 121 115 146 103 c 0
 203 77 279 97 320 144 c 0
 332 158 341 175 345 193 c 0
 347 201 347 210 348 218 c 0
 349 224 354 229 360 229 c 0
 365 228 369 224 370 219 c 0
 371 212 371 205 372 198 c 0
 374 187 378 176 383 166 c 0
 402 131 437 108 475 98 c 0
 492 93 512 90 530 93 c 0
 574 99 594 141 603 179 c 0
 609 202 611 225 612 249 c 0
 615 298 609 347 596 394 c 0
 592 409 587 424 581 438 c 0
 577 449 571 460 568 472 c 1
 554 458 537 446 518 440 c 0
 458 421 390 452 367 511 c 0
 358 533 358 554 359 577 c 0
 360 605 362 632 366 660 c 0
 368 672 370 684 373 696 c 0
 374 701 376 708 376 713 c 0
 375 718 370 722 366 725 c 0
 357 732 347 740 337 747 c 0
 295 777 244 803 191 804 c 0
 143 805 90 786 65 743 c 0
 59 734 55 724 53 713 c 0
 51 704 50 695 51 686 c 0
 53 677 55 669 58 661 c 0
 77 617 127 596 172 596 c 1
 172 597 l 1
213 739 m 0
 196 738 178 733 167 720 c 0
 140 692 145 639 178 618 c 0
 189 611 203 609 216 609 c 0
 234 609 252 616 264 630 c 0
 288 658 283 709 251 729 c 0
 240 736 226 739 213 739 c 0
425 674 m 1
 409 661 399 640 392 621 c 0
 377 581 371 526 407 494 c 0
 413 489 419 485 426 482 c 0
 458 467 498 471 523 497 c 0
 529 503 539 515 539 524 c 0
 539 532 531 542 526 549 c 0
 514 569 500 588 486 607 c 0
 467 631 446 653 425 674 c 1
EndSplineSet
EndChar
StartChar: uniE116
Encoding: 57622 57622 116
Width: 740
GlyphClass: 2
Flags: W
Fore
430 693 m 1
 426 665 404 645 380 633 c 0
 338 612 285 605 240 622 c 0
 226 627 213 634 201 643 c 0
 196 647 189 657 182 657 c 0
 179 657 176 655 173 653 c 2
 157 643 l 2
 134 626 114 607 96 586 c 0
 93 583 90 579 86 577 c 0
 79 575 72 581 72 588 c 0
 73 598 85 607 91 614 c 0
 106 630 122 645 140 658 c 0
 146 662 152 667 158 671 c 0
 161 673 166 675 169 678 c 0
 171 681 169 683 169 686 c 1
 167 691 165 696 164 701 c 0
 160 718 160 735 164 752 c 0
 179 819 249 856 312 865 c 0
 324 867 336 868 348 868 c 0
 420 869 504 835 526 760 c 0
 530 748 531 736 531 723 c 0
 531 707 527 693 521 678 c 1
 531 673 541 666 550 660 c 0
 568 646 586 631 601 614 c 0
 647 563 680 501 692 434 c 0
 699 401 699 368 698 334 c 0
 697 303 695 273 691 242 c 0
 682 181 667 116 629 66 c 0
 614 46 595 28 572 16 c 0
 524 -7 464 -4 422 30 c 0
 400 48 384 71 372 97 c 0
 367 109 364 121 359 133 c 1
 355 123 352 113 348 103 c 0
 338 80 325 59 308 41 c 0
 294 27 277 15 258 8 c 0
 243 3 227 1 211 1 c 0
 197 1 184 3 171 7 c 0
 159 10 147 15 136 22 c 0
 70 60 40 137 40 210 c 0
 40 256 59 301 93 332 c 0
 102 340 112 348 124 353 c 1
 124 354 l 1
 78 354 l 2
 70 354 61 353 53 354 c 0
 44 355 36 364 44 372 c 0
 48 377 56 376 62 376 c 2
 107 376 l 1
 289 376 l 1
 283 410 273 446 242 466 c 0
 230 473 212 479 198 473 c 0
 191 470 185 463 180 457 c 0
 166 437 158 396 126 399 c 0
 122 399 118 400 115 402 c 0
 111 404 107 407 104 411 c 0
 99 417 96 423 94 430 c 0
 82 468 104 516 142 530 c 0
 165 539 191 535 213 526 c 0
 281 500 312 422 312 354 c 1
 241 354 l 2
 226 354 210 355 195 354 c 0
 167 351 139 340 117 322 c 0
 85 297 61 255 62 213 c 0
 63 190 71 167 85 148 c 0
 93 137 103 127 114 119 c 0
 128 109 144 101 161 97 c 0
 217 81 284 101 321 146 c 0
 333 160 342 176 345 194 c 0
 347 202 347 211 348 219 c 0
 349 225 355 230 361 228 c 0
 372 226 370 211 371 203 c 0
 374 181 384 160 399 143 c 0
 441 97 518 75 575 105 c 0
 604 120 626 148 641 177 c 0
 661 218 670 263 674 308 c 0
 678 349 678 390 670 430 c 0
 656 502 620 568 566 617 c 0
 551 631 535 644 518 654 c 0
 516 655 513 657 510 656 c 0
 505 654 501 648 498 644 c 0
 491 637 484 631 476 625 c 0
 470 621 463 617 456 623 c 0
 452 627 452 633 456 638 c 0
 460 642 465 645 470 649 c 0
 478 655 484 662 490 670 c 1
 430 693 l 1
502 689 m 1
 506 702 510 716 509 730 c 0
 508 744 505 758 499 770 c 0
 485 799 458 819 429 831 c 0
 374 852 308 851 255 825 c 0
 216 806 182 770 183 724 c 0
 183 712 187 700 191 689 c 1
 206 695 220 702 235 707 c 0
 240 709 244 710 249 712 c 0
 252 713 255 713 257 715 c 0
 260 719 260 726 261 731 c 0
 262 740 265 750 270 758 c 0
 292 796 340 812 380 795 c 0
 403 786 420 768 428 745 c 0
 430 739 431 733 432 727 c 0
 433 724 432 719 435 716 c 0
 438 711 449 710 455 708 c 0
 471 703 486 695 502 689 c 1
410 720 m 1
 410 728 408 736 405 744 c 0
 390 780 340 790 309 770 c 0
 292 759 282 740 282 720 c 1
 306 723 330 727 355 726 c 0
 373 725 392 723 410 720 c 1
409 698 m 1
 339 704 l 1
 283 698 l 1
 287 684 294 671 306 662 c 0
 328 645 366 646 388 664 c 0
 399 673 405 684 409 698 c 1
262 693 m 1
 242 687 222 681 204 671 c 1
 229 640 271 635 308 635 c 1
 308 636 l 1
 285 646 267 668 262 693 c 1
EndSplineSet
EndChar
StartChar: uniE126
Encoding: 57638 57638 123
Width: 676
GlyphClass: 2
Flags: W
Fore
172 597 m 1
 122 619 115 691 146 730 c 0
 174 765 229 770 265 746 c 0
 277 738 287 726 293 712 c 0
 300 697 302 680 301 663 c 0
 298 644 290 624 276 610 c 0
 258 593 231 583 207 578 c 0
 148 566 80 583 46 636 c 0
 41 644 37 653 34 662 c 0
 30 675 29 688 29 701 c 0
 29 716 33 731 40 744 c 0
 48 761 60 776 75 789 c 0
 87 799 101 807 116 813 c 0
 128 818 141 821 154 823 c 0
 239 838 319 792 382 741 c 0
 412 716 441 691 467 663 c 0
 522 604 567 533 597 458 c 0
 611 423 623 388 629 351 c 0
 635 313 636 275 634 237 c 0
 633 210 632 183 627 156 c 0
 621 115 611 70 583 37 c 0
 574 27 563 18 551 11 c 0
 507 -10 451 3 416 35 c 0
 398 52 383 73 373 96 c 0
 367 108 364 121 359 133 c 1
 355 123 352 112 348 102 c 0
 338 80 325 58 308 41 c 0
 294 27 277 15 258 8 c 0
 243 3 227 1 211 1 c 0
 197 1 184 3 171 7 c 0
 159 10 147 15 136 22 c 0
 70 60 40 137 40 210 c 0
 40 256 59 301 93 332 c 0
 102 340 112 348 124 353 c 1
 124 354 l 1
 78 354 l 2
 70 354 61 353 53 354 c 0
 44 355 36 364 44 372 c 0
 48 377 56 376 62 376 c 2
 107 376 l 1
 289 376 l 1
 283 410 273 446 242 466 c 0
 230 473 212 479 198 473 c 0
 191 470 185 463 180 457 c 0
 166 437 158 396 126 399 c 0
 122 399 118 400 115 402 c 0
 111 404 107 407 104 411 c 0
 99 417 96 423 94 430 c 0
 82 468 104 516 142 530 c 0
 165 539 191 535 213 526 c 0
 281 500 312 422 312 354 c 1
 236 354 l 2
 223 354 209 355 196 354 c 0
 177 352 157 346 140 337 c 0
 85 308 47 241 69 179 c 0
 72 168 78 157 85 148 c 0
 94 135 106 124 119 116 c 0
 182 73 278 90 325 150 c 0
 338 167 345 188 348 209 c 0
 348 217 348 228 358 229 c 0
 363 229 368 225 369 220 c 0
 371 214 371 206 372 200 c 0
 373 189 377 178 382 168 c 0
 402 129 441 105 482 96 c 0
 498 92 517 90 534 93 c 0
 574 101 593 140 602 176 c 0
 608 200 611 224 612 249 c 0
 615 298 609 347 596 395 c 0
 591 410 587 425 581 439 c 0
 577 450 571 461 568 472 c 1
 554 458 537 446 518 440 c 0
 458 421 390 452 367 511 c 0
 358 533 358 554 359 577 c 0
 360 605 362 632 366 660 c 0
 368 672 370 684 373 696 c 0
 374 701 376 708 376 713 c 0
 375 718 370 722 366 725 c 0
 357 732 347 740 337 747 c 0
 295 777 244 803 191 804 c 0
 143 805 90 786 65 743 c 0
 59 734 55 724 53 713 c 0
 51 704 50 695 51 686 c 0
 53 677 55 669 58 661 c 0
 77 617 127 596 172 596 c 1
 172 597 l 1
213 739 m 0
 196 738 178 733 167 720 c 0
 140 692 145 639 178 618 c 0
 189 611 203 609 216 609 c 0
 234 609 252 616 264 630 c 0
 288 658 283 709 251 729 c 0
 240 736 226 739 213 739 c 0
425 674 m 1
 409 661 399 640 392 621 c 0
 377 581 371 526 407 494 c 0
 413 489 419 485 426 482 c 0
 458 467 498 471 523 497 c 0
 529 503 539 515 539 524 c 0
 539 532 531 542 526 549 c 0
 514 569 500 588 486 607 c 0
 467 631 446 653 425 674 c 1
EndSplineSet
EndChar
